<svg id="Layer_1" data-name="Layer 1" xmlns="http://www.w3.org/2000/svg" xmlns:xlink="http://www.w3.org/1999/xlink" width="644" height="188" viewBox="0 0 644 188"><defs><style>.cls-1{fill:#c6c6c5;}.cls-2,.cls-21,.cls-22,.cls-23,.cls-24,.cls-25,.cls-26,.cls-27,.cls-28,.cls-29,.cls-3,.cls-30,.cls-31,.cls-32,.cls-33,.cls-35,.cls-36,.cls-4,.cls-5,.cls-6,.cls-7,.cls-8,.cls-9{isolation:isolate;}.cls-2,.cls-23,.cls-24,.cls-25,.cls-26,.cls-27,.cls-30,.cls-35,.cls-36,.cls-6{opacity:0.7;}.cls-2{fill:url(#linear-gradient);}.cls-21,.cls-22,.cls-28,.cls-3,.cls-31,.cls-33,.cls-5,.cls-7,.cls-9{opacity:0.8;}.cls-3{fill:url(#linear-gradient-2);}.cls-29,.cls-32,.cls-4,.cls-8{opacity:0.9;}.cls-4{fill:url(#linear-gradient-3);}.cls-5{fill:url(#linear-gradient-4);}.cls-6{fill:url(#linear-gradient-5);}.cls-7{fill:url(#linear-gradient-6);}.cls-8{fill:url(#linear-gradient-7);}.cls-9{fill:url(#linear-gradient-8);}.cls-10{fill:url(#linear-gradient-9);}.cls-11{fill:url(#linear-gradient-10);}.cls-12{fill:url(#linear-gradient-11);}.cls-13{fill:url(#linear-gradient-12);}.cls-14{fill:url(#linear-gradient-13);}.cls-15{fill:url(#linear-gradient-14);}.cls-16{fill:url(#linear-gradient-15);}.cls-17{fill:url(#linear-gradient-16);}.cls-18{opacity:0.7;fill:url(#linear-gradient-17);}.cls-19{fill:url(#linear-gradient-18);}.cls-20{fill:url(#linear-gradient-19);}.cls-21{fill:url(#linear-gradient-20);}.cls-22{fill:url(#linear-gradient-21);}.cls-23{fill:url(#linear-gradient-22);}.cls-24{fill:url(#linear-gradient-23);}.cls-25{fill:url(#linear-gradient-24);}.cls-26{fill:url(#linear-gradient-25);}.cls-27{fill:url(#linear-gradient-26);}.cls-28{fill:url(#linear-gradient-27);}.cls-29{fill:url(#linear-gradient-28);}.cls-30{fill:url(#linear-gradient-29);}.cls-31{fill:url(#linear-gradient-30);}.cls-32{fill:url(#linear-gradient-31);}.cls-33{fill:url(#linear-gradient-32);}.cls-34{fill:url(#linear-gradient-33);}.cls-35{fill:url(#linear-gradient-34);}.cls-36{fill:url(#linear-gradient-35);}</style><linearGradient id="linear-gradient" x1="54.03" y1="144.25" x2="124.97" y2="83.48" gradientTransform="matrix(1, 0, 0, -1, 0, 188)" gradientUnits="userSpaceOnUse"><stop offset="0" stop-color="#c2c2c1"/><stop offset="0.73" stop-color="#9b9a99"/><stop offset="0.95" stop-color="#494948"/></linearGradient><linearGradient id="linear-gradient-2" x1="-65.94" y1="166.36" x2="139.48" y2="90.57" gradientTransform="matrix(1, 0, 0, -1, 0, 188)" gradientUnits="userSpaceOnUse"><stop offset="0.04" stop-color="#b59900"/><stop offset="0.27" stop-color="#d79c0d"/><stop offset="0.53" stop-color="#d99900"/><stop offset="0.95" stop-color="#bfbfbe"/></linearGradient><linearGradient id="linear-gradient-3" x1="38.97" y1="87.74" x2="78.77" y2="87.74" gradientTransform="matrix(1, 0, 0, -1, 0, 188)" gradientUnits="userSpaceOnUse"><stop offset="0.45" stop-color="#9b9a99"/><stop offset="0.95" stop-color="#494948"/></linearGradient><linearGradient id="linear-gradient-4" x1="24.17" y1="64.81" x2="63.96" y2="64.81" xlink:href="#linear-gradient-2"/><linearGradient id="linear-gradient-5" x1="-510.62" y1="126.41" x2="-439.69" y2="65.64" gradientTransform="translate(154.36 188) rotate(180)" xlink:href="#linear-gradient"/><linearGradient id="linear-gradient-6" x1="-584.26" y1="117.91" x2="-378.84" y2="42.13" gradientTransform="translate(154.36 188) rotate(180)" xlink:href="#linear-gradient-2"/><linearGradient id="linear-gradient-7" x1="106.19" y1="155.9" x2="145.98" y2="155.9" gradientTransform="translate(154.36 188) rotate(180)" xlink:href="#linear-gradient-3"/><linearGradient id="linear-gradient-8" x1="96.28" y1="134.4" x2="136.07" y2="134.4" gradientTransform="translate(154.36 188) rotate(180)" xlink:href="#linear-gradient-2"/><linearGradient id="linear-gradient-9" x1="44.88" y1="89.27" x2="115.81" y2="28.5" gradientTransform="translate(154.36 188) rotate(180)" xlink:href="#linear-gradient-2"/><linearGradient id="linear-gradient-10" x1="-25.04" y1="158.37" x2="45.9" y2="97.6" gradientTransform="translate(154.36 188) rotate(180)" xlink:href="#linear-gradient-2"/><linearGradient id="linear-gradient-11" x1="-47" y1="143.32" x2="23.94" y2="82.56" gradientTransform="translate(154.36 188) rotate(180)" xlink:href="#linear-gradient-2"/><linearGradient id="linear-gradient-12" x1="44.34" y1="215.31" x2="115.27" y2="154.54" gradientTransform="translate(154.36 188) rotate(180)" xlink:href="#linear-gradient-2"/><linearGradient id="linear-gradient-13" x1="-490.92" y1="158.41" x2="-419.98" y2="97.64" gradientTransform="translate(154.36 188) rotate(180)" xlink:href="#linear-gradient-2"/><linearGradient id="linear-gradient-14" x1="-172.75" y1="162.09" x2="-101.81" y2="101.31" gradientTransform="translate(154.36 188) rotate(180)" xlink:href="#linear-gradient-2"/><linearGradient id="linear-gradient-15" x1="-79.09" y1="718.15" x2="-8.15" y2="657.38" gradientTransform="matrix(-1, 0, 0, 1, 154.36, -566.5)" xlink:href="#linear-gradient-2"/><linearGradient id="linear-gradient-16" x1="-363.77" y1="751.48" x2="-309.47" y2="704.96" gradientTransform="matrix(-1, 0, 0, 1, 154.36, -566.5)" gradientUnits="userSpaceOnUse"><stop offset="0" stop-color="#d4dbe4"/><stop offset="0.56" stop-color="#abb1c3"/><stop offset="0.95" stop-color="#6e7294"/></linearGradient><linearGradient id="linear-gradient-17" x1="-53.38" y1="124.97" x2="0.93" y2="78.45" gradientTransform="translate(154.36 188) rotate(180)" xlink:href="#linear-gradient-16"/><linearGradient id="linear-gradient-18" x1="-330.9" y1="102.04" x2="-276.59" y2="55.51" gradientTransform="translate(154.36 188) rotate(180)" xlink:href="#linear-gradient-2"/><linearGradient id="linear-gradient-19" x1="-357.8" y1="91.39" x2="-303.5" y2="44.87" gradientTransform="translate(154.36 188) rotate(180)" xlink:href="#linear-gradient-2"/><linearGradient id="linear-gradient-20" x1="75.44" y1="137.66" x2="115.23" y2="137.66" gradientTransform="translate(154.36 188) rotate(180)" xlink:href="#linear-gradient-2"/><linearGradient id="linear-gradient-21" x1="-430.29" y1="138.99" x2="-390.5" y2="138.99" gradientTransform="translate(154.36 188) rotate(180)" xlink:href="#linear-gradient-2"/><linearGradient id="linear-gradient-22" x1="531.86" y1="216.49" x2="602.8" y2="155.72" xlink:href="#linear-gradient"/><linearGradient id="linear-gradient-23" x1="479.35" y1="93.65" x2="550.29" y2="32.88" xlink:href="#linear-gradient"/><linearGradient id="linear-gradient-24" x1="-456.18" y1="152.13" x2="-401.88" y2="105.61" gradientTransform="translate(154.36 188) rotate(180)" xlink:href="#linear-gradient-16"/><linearGradient id="linear-gradient-25" x1="-341.93" y1="94.29" x2="-287.63" y2="47.78" gradientTransform="translate(154.36 188) rotate(180)" xlink:href="#linear-gradient-16"/><linearGradient id="linear-gradient-26" x1="159.02" y1="144.76" x2="229.96" y2="83.99" gradientTransform="translate(796.99 188) rotate(180)" xlink:href="#linear-gradient"/><linearGradient id="linear-gradient-27" x1="78.9" y1="136.27" x2="284.32" y2="60.48" gradientTransform="translate(796.99 188) rotate(180)" xlink:href="#linear-gradient-2"/><linearGradient id="linear-gradient-28" x1="233.37" y1="66.01" x2="273.16" y2="66.01" gradientTransform="translate(796.99 188) rotate(180)" xlink:href="#linear-gradient-3"/><linearGradient id="linear-gradient-29" x1="-507.32" y1="186.71" x2="-436.38" y2="125.94" gradientTransform="matrix(1, 0, 0, -1, 642.63, 188)" xlink:href="#linear-gradient"/><linearGradient id="linear-gradient-30" x1="-558.1" y1="223.23" x2="-352.68" y2="147.45" gradientTransform="matrix(1, 0, 0, -1, 642.63, 188)" xlink:href="#linear-gradient-2"/><linearGradient id="linear-gradient-31" x1="-413.75" y1="153.91" x2="-373.96" y2="153.91" gradientTransform="matrix(1, 0, 0, -1, 642.63, 188)" xlink:href="#linear-gradient-3"/><linearGradient id="linear-gradient-32" x1="-393.91" y1="132.41" x2="-354.12" y2="132.41" gradientTransform="matrix(1, 0, 0, -1, 642.63, 188)" xlink:href="#linear-gradient-2"/><linearGradient id="linear-gradient-33" x1="-113.46" y1="179.09" x2="-59.15" y2="132.57" gradientTransform="matrix(1, 0, 0, -1, 283.18, 188)" xlink:href="#linear-gradient-2"/><linearGradient id="linear-gradient-34" x1="-97.59" y1="182" x2="-43.29" y2="135.48" gradientTransform="matrix(1, 0, 0, -1, 283.18, 188)" xlink:href="#linear-gradient-16"/><linearGradient id="linear-gradient-35" x1="446.25" y1="93.65" x2="517.19" y2="32.88" xlink:href="#linear-gradient"/></defs><path class="cls-1" d="M634.27,188H9.73A9.6,9.6,0,0,1,0,178.6V9.4A9.6,9.6,0,0,1,9.73,0H634.27A9.6,9.6,0,0,1,644,9.4V178.6A9.6,9.6,0,0,1,634.27,188Z"/><polygon class="cls-2" points="116.36 104.99 96.46 104.99 86.51 88.69 96.46 72.24 116.36 72.24 126.3 88.69 116.36 104.99"/><polygon class="cls-3" points="87 90.77 67.1 90.77 57.16 74.32 67.1 58.02 87 58.02 96.95 74.32 87 90.77"/><polygon class="cls-4" points="68.9 116.63 49 116.63 39.05 100.33 49 83.88 68.9 83.88 78.85 100.33 68.9 116.63"/><polygon class="cls-5" points="54.02 139.57 34.12 139.57 24.17 123.11 34.12 106.82 54.02 106.82 63.96 123.11 54.02 139.57"/><polygon class="cls-6" points="602.66 122.91 622.56 122.91 632.51 106.46 622.56 90.01 602.66 90.01 592.72 106.46 602.66 122.91"/><polygon class="cls-7" points="585.7 139.21 605.6 139.21 615.55 122.91 605.6 106.46 585.7 106.46 575.75 122.91 585.7 139.21"/><polygon class="cls-8" points="18.24 48.55 38.14 48.55 48.09 32.1 38.14 15.65 18.24 15.65 8.3 32.1 18.24 48.55"/><polygon class="cls-9" points="28.23 69.97 48.13 69.97 58.08 53.67 48.13 37.22 28.23 37.22 18.28 53.67 28.23 69.97"/><polygon class="cls-10" points="47.21 160.01 67.1 160.01 77.05 143.56 67.1 127.1 47.21 127.1 37.26 143.56 47.21 160.01"/><polygon class="cls-11" points="117.11 90.84 137.01 90.84 146.95 74.54 137.01 58.09 117.11 58.09 107.16 74.54 117.11 90.84"/><polygon class="cls-12" points="139.05 105.98 158.94 105.98 168.89 89.53 158.94 73.08 139.05 73.08 129.1 89.53 139.05 105.98"/><polygon class="cls-13" points="47.7 34.01 67.59 34.01 77.54 17.56 67.59 1.11 47.7 1.11 37.75 17.56 47.7 34.01"/><polygon class="cls-14" points="582.94 90.84 602.84 90.84 612.79 74.54 602.84 58.09 582.94 58.09 572.99 74.54 582.94 90.84"/><polygon class="cls-15" points="264.71 87.22 284.77 87.22 294.72 70.77 284.77 54.32 264.71 54.32 254.76 70.77 264.71 87.22"/><polygon class="cls-16" points="171.15 90.44 191.05 90.44 201 106.74 191.05 123.19 171.15 123.19 161.21 106.74 171.15 90.44"/><polygon class="cls-17" points="470.45 138.06 485.62 138.06 493.28 150.63 485.62 163.21 470.45 163.21 462.79 150.63 470.45 138.06"/><polygon class="cls-18" points="159.98 109.87 175.31 109.87 182.97 97.45 175.31 84.88 159.98 84.88 152.48 97.45 159.98 109.87"/><polygon class="cls-19" points="437.54 132.84 452.87 132.84 460.37 120.27 452.87 107.7 437.54 107.7 430.04 120.27 437.54 132.84"/><polygon class="cls-20" points="464.45 143.56 479.62 143.56 487.28 130.98 479.62 118.41 464.45 118.41 456.79 130.98 464.45 143.56"/><polygon class="cls-21" points="49 66.71 68.9 66.71 78.85 50.26 68.9 33.96 49 33.96 39.05 50.26 49 66.71"/><polygon class="cls-22" points="554.73 65.39 574.63 65.39 584.57 49.09 574.63 32.64 554.73 32.64 544.78 49.09 554.73 65.39"/><polygon class="cls-23" points="594.18 32.75 574.29 32.75 564.34 16.45 574.29 0 594.18 0 604.13 16.45 594.18 32.75"/><polygon class="cls-24" points="541.67 155.66 521.77 155.66 511.83 139.21 521.77 122.76 541.67 122.76 551.62 139.21 541.67 155.66"/><polygon class="cls-25" points="562.88 82.77 578.05 82.77 585.72 70.2 578.05 57.63 562.88 57.63 555.22 70.2 562.88 82.77"/><polygon class="cls-26" points="448.63 140.61 463.8 140.61 471.46 128.03 463.8 115.46 448.63 115.46 440.97 128.03 448.63 140.61"/><polygon class="cls-27" points="575.68 104.52 595.58 104.52 605.53 88.07 595.58 71.62 575.68 71.62 565.74 88.07 575.68 104.52"/><polygon class="cls-28" points="565.25 120.82 585.14 120.82 595.09 104.52 585.14 88.07 565.25 88.07 555.3 104.52 565.25 120.82"/><polygon class="cls-29" points="533.77 138.36 553.67 138.36 563.62 121.91 553.67 105.61 533.77 105.61 523.83 121.91 533.77 138.36"/><polygon class="cls-30" points="197.57 62.48 177.67 62.48 167.72 46.03 177.67 29.73 197.57 29.73 207.52 46.03 197.57 62.48"/><polygon class="cls-31" points="237.36 33.86 217.47 33.86 207.52 17.56 217.47 1.11 237.36 1.11 247.31 17.56 237.36 33.86"/><polygon class="cls-32" points="258.73 50.47 238.83 50.47 228.88 34.01 238.83 17.71 258.73 17.71 268.67 34.01 258.73 50.47"/><polygon class="cls-33" points="278.62 72.04 258.73 72.04 248.78 55.59 258.73 39.13 278.62 39.13 288.57 55.59 278.62 72.04"/><polygon class="cls-34" points="217.41 55.83 202.24 55.83 194.58 43.26 202.24 30.69 217.41 30.69 225.07 43.26 217.41 55.83"/><polygon class="cls-35" points="233.23 52.88 218.06 52.88 210.4 40.31 218.06 27.74 233.23 27.74 240.89 40.31 233.23 52.88"/><polygon class="cls-36" points="508.56 155.66 488.67 155.66 478.72 139.21 488.67 122.76 508.56 122.76 518.51 139.21 508.56 155.66"/></svg>