<svg id="Layer_1" data-name="Layer 1" xmlns="http://www.w3.org/2000/svg" width="160" height="40" viewBox="0 0 160 40"><defs><style>.cls-1{fill:#b39a31;}.cls-2{isolation:isolate;}.cls-3{fill:#3c444c;}</style></defs><g id="Layer_3" data-name="Layer 3"><g id="Layer_5" data-name="Layer 5"><rect class="cls-1" x="3.26" y="4.42" width="153.49" height="32.16" rx="7.11"/><g class="cls-2"><g class="cls-2"><path d="M74.25,18.92a1.22,1.22,0,0,1-.14.16.39.39,0,0,1-.2.05.58.58,0,0,1-.3-.11,4.1,4.1,0,0,0-.4-.25,3.37,3.37,0,0,0-.59-.25,2.92,2.92,0,0,0-.85-.11,2.73,2.73,0,0,0-1.18.24,2.23,2.23,0,0,0-.86.69,3.17,3.17,0,0,0-.53,1.09A5.66,5.66,0,0,0,69,21.86a5.09,5.09,0,0,0,.19,1.47,3,3,0,0,0,.53,1.08,2.25,2.25,0,0,0,.84.66,2.49,2.49,0,0,0,1.1.23,2.73,2.73,0,0,0,1-.14,2.39,2.39,0,0,0,.62-.31,4.18,4.18,0,0,0,.42-.31A.53.53,0,0,1,74,24.4a.36.36,0,0,1,.31.16l.45.58a3.06,3.06,0,0,1-.67.63,4.32,4.32,0,0,1-.82.44,4,4,0,0,1-.91.25,5.33,5.33,0,0,1-1,.09,3.91,3.91,0,0,1-1.58-.32,3.61,3.61,0,0,1-1.28-.91,4.22,4.22,0,0,1-.84-1.47,5.9,5.9,0,0,1-.31-2A6.23,6.23,0,0,1,67.67,20a4.23,4.23,0,0,1,.83-1.49,3.75,3.75,0,0,1,1.34-1,4.57,4.57,0,0,1,1.84-.35,4.25,4.25,0,0,1,1.69.31,4.1,4.1,0,0,1,1.3.88Z"/></g><g class="cls-2"><path d="M81.59,13.52a7.64,7.64,0,0,1,2,.24,3.82,3.82,0,0,1,1.42.66,2.62,2.62,0,0,1,.81,1.06,3.73,3.73,0,0,1,.26,1.41,2.76,2.76,0,0,1-.15.91,3,3,0,0,1-.44.82,3.29,3.29,0,0,1-.75.68,4.4,4.4,0,0,1-1.07.49,3.87,3.87,0,0,1,2.14,1,2.7,2.7,0,0,1,.71,1.95,3.64,3.64,0,0,1-.3,1.49,3.12,3.12,0,0,1-.88,1.16,3.89,3.89,0,0,1-1.43.75,6.27,6.27,0,0,1-1.92.27H77.48V13.52ZM79.22,14.9v4.4h2.3a4.55,4.55,0,0,0,1.29-.16,2.71,2.71,0,0,0,.9-.45,1.79,1.79,0,0,0,.52-.7,2.17,2.17,0,0,0,.17-.89,2,2,0,0,0-.68-1.67,3.51,3.51,0,0,0-2.13-.53ZM82,25a4.12,4.12,0,0,0,1.29-.17,2.26,2.26,0,0,0,.88-.48,1.89,1.89,0,0,0,.51-.74,2.58,2.58,0,0,0,.16-.94,1.93,1.93,0,0,0-.71-1.58A3.34,3.34,0,0,0,82,20.54H79.22V25Z"/></g><g class="cls-2"><path d="M90.76,19.13a4.17,4.17,0,0,1,1.07-1.46,2.32,2.32,0,0,1,1.54-.53,2.51,2.51,0,0,1,.55.06,1.67,1.67,0,0,1,.47.2l-.12,1.2a.25.25,0,0,1-.27.22,1.5,1.5,0,0,1-.36-.05,2.39,2.39,0,0,0-.55-.05,2.26,2.26,0,0,0-.77.12,1.84,1.84,0,0,0-.61.38,2.52,2.52,0,0,0-.47.61,5.85,5.85,0,0,0-.39.83v5.76H89.24V17.3h.92a.51.51,0,0,1,.36.1.63.63,0,0,1,.14.34Z"/><path d="M98.53,14.44a1.08,1.08,0,0,1-.09.44,1.78,1.78,0,0,1-.25.36,1.6,1.6,0,0,1-.37.25,1.15,1.15,0,0,1-.89,0,1.48,1.48,0,0,1-.35-.25,1.41,1.41,0,0,1-.24-.36,1.08,1.08,0,0,1-.09-.44,1.12,1.12,0,0,1,.09-.44,1.17,1.17,0,0,1,.59-.62,1.12,1.12,0,0,1,.44-.09,1.13,1.13,0,0,1,.45.09,1.15,1.15,0,0,1,.37.25,1.27,1.27,0,0,1,.25.37A1.12,1.12,0,0,1,98.53,14.44Zm-.34,2.86v9.12h-1.6V17.3Z"/><path d="M109.06,13.16V26.42h-1a.4.4,0,0,1-.43-.33L107.53,25a4.74,4.74,0,0,1-1.33,1.13,3.37,3.37,0,0,1-1.73.44,3.15,3.15,0,0,1-1.42-.31,2.89,2.89,0,0,1-1.09-.88,4.21,4.21,0,0,1-.69-1.46,7.56,7.56,0,0,1-.25-2,6.26,6.26,0,0,1,.27-1.87,4.5,4.5,0,0,1,.78-1.51,3.45,3.45,0,0,1,1.24-1,3.58,3.58,0,0,1,1.65-.37,3.44,3.44,0,0,1,1.43.28,3.58,3.58,0,0,1,1.07.79V13.16Zm-1.6,6.31a2.59,2.59,0,0,0-1-.84,2.78,2.78,0,0,0-1.17-.24,2.33,2.33,0,0,0-2,.91,4.29,4.29,0,0,0-.68,2.59,6.7,6.7,0,0,0,.15,1.53,3.23,3.23,0,0,0,.45,1,1.75,1.75,0,0,0,.73.6,2.38,2.38,0,0,0,1,.19,2.64,2.64,0,0,0,1.39-.36,4,4,0,0,0,1.08-1Z"/></g><g class="cls-2"><path d="M120,17.66v.6c0,.2-.13.32-.38.37l-1,.14a2.87,2.87,0,0,1,.3,1.31,2.65,2.65,0,0,1-.26,1.21,2.61,2.61,0,0,1-.7.94,3.3,3.3,0,0,1-1.08.59,4.32,4.32,0,0,1-1.37.21,4.2,4.2,0,0,1-1.2-.16,1.6,1.6,0,0,0-.45.39.67.67,0,0,0-.15.41.55.55,0,0,0,.27.49,1.75,1.75,0,0,0,.69.23,8.69,8.69,0,0,0,1,.1l1.13.05c.39,0,.77.08,1.14.14a3.53,3.53,0,0,1,1,.33,1.82,1.82,0,0,1,.7.62,1.76,1.76,0,0,1,.27,1,2.37,2.37,0,0,1-.3,1.14,2.94,2.94,0,0,1-.84,1,4.13,4.13,0,0,1-1.34.69,5.88,5.88,0,0,1-1.8.26,7,7,0,0,1-1.75-.2,4.17,4.17,0,0,1-1.24-.53,2.45,2.45,0,0,1-.74-.77,1.9,1.9,0,0,1-.25-.92,1.6,1.6,0,0,1,.43-1.14,2.92,2.92,0,0,1,1.16-.75,1.7,1.7,0,0,1-.65-.48,1.26,1.26,0,0,1-.23-.81,1.18,1.18,0,0,1,.07-.41,1.6,1.6,0,0,1,.22-.43,2.66,2.66,0,0,1,.36-.4,2.8,2.8,0,0,1,.51-.33,2.84,2.84,0,0,1-1.06-1,2.78,2.78,0,0,1-.37-1.46,2.85,2.85,0,0,1,.25-1.21A2.59,2.59,0,0,1,113,18a3.18,3.18,0,0,1,1.09-.59,4.4,4.4,0,0,1,1.39-.21,4.33,4.33,0,0,1,1.11.13,3.86,3.86,0,0,1,.93.38Zm-1.63,9.26a.73.73,0,0,0-.19-.54,1.33,1.33,0,0,0-.51-.33,3.51,3.51,0,0,0-.74-.17l-.9-.07-1-.06a7,7,0,0,1-.94-.09,2.58,2.58,0,0,0-.82.59,1.19,1.19,0,0,0-.32.84,1.16,1.16,0,0,0,.15.57,1.46,1.46,0,0,0,.49.46,2.54,2.54,0,0,0,.81.3,4.92,4.92,0,0,0,1.16.12,5.11,5.11,0,0,0,1.16-.12,2.87,2.87,0,0,0,.87-.34,1.66,1.66,0,0,0,.54-.51A1.15,1.15,0,0,0,118.37,26.92Zm-2.89-5a2.55,2.55,0,0,0,.86-.13,1.85,1.85,0,0,0,.62-.38,1.41,1.41,0,0,0,.37-.58,2,2,0,0,0,.13-.74A1.76,1.76,0,0,0,117,18.8a2.43,2.43,0,0,0-3,0,1.76,1.76,0,0,0-.51,1.33,2.17,2.17,0,0,0,.13.74,1.56,1.56,0,0,0,.39.58,1.67,1.67,0,0,0,.62.38A2.45,2.45,0,0,0,115.48,22Z"/></g><g class="cls-2"><path d="M129.61,25.14a3.08,3.08,0,0,1-.71.63,4.31,4.31,0,0,1-.89.43,5.34,5.34,0,0,1-1,.26,5.72,5.72,0,0,1-1,.09,4.68,4.68,0,0,1-1.74-.32,4,4,0,0,1-1.38-.94,4.14,4.14,0,0,1-.9-1.53,6.05,6.05,0,0,1-.33-2.08,5.51,5.51,0,0,1,.29-1.79,4.18,4.18,0,0,1,.85-1.43,3.71,3.71,0,0,1,1.34-.95,4.56,4.56,0,0,1,3.3-.08,3.51,3.51,0,0,1,1.2.8,3.58,3.58,0,0,1,.8,1.27,5,5,0,0,1,.29,1.74,1.07,1.07,0,0,1-.08.5.36.36,0,0,1-.31.13h-6.09a5.14,5.14,0,0,0,.23,1.5,3.33,3.33,0,0,0,.59,1.07,2.54,2.54,0,0,0,.9.63,2.94,2.94,0,0,0,1.17.22,3.49,3.49,0,0,0,1-.14,5.67,5.67,0,0,0,.76-.31,3.42,3.42,0,0,0,.52-.3.71.71,0,0,1,.37-.14.35.35,0,0,1,.3.16Zm-1.29-4.27a3.26,3.26,0,0,0-.16-1,2.48,2.48,0,0,0-.46-.81,2.26,2.26,0,0,0-.73-.52,2.57,2.57,0,0,0-1-.18,2.46,2.46,0,0,0-1.82.67,3.21,3.21,0,0,0-.83,1.86Z"/></g></g><g class="cls-2"><path d="M138.2,13l-3,7.48h-.91l-3-7.48H132a.28.28,0,0,1,.21.07.37.37,0,0,1,.13.17l2.11,5.28c0,.12.09.24.13.38l.12.44c0-.15.07-.3.11-.44s.08-.26.12-.38l2.11-5.28a.36.36,0,0,1,.12-.16.29.29,0,0,1,.22-.08Z"/><path d="M143.79,19.55a.32.32,0,0,1,.24.09.3.3,0,0,1,.09.23v.56h-5v-.32a.51.51,0,0,1,0-.2.63.63,0,0,1,.13-.2l2.4-2.4c.2-.2.38-.4.54-.58a4.8,4.8,0,0,0,.42-.56,3.38,3.38,0,0,0,.27-.58A2.06,2.06,0,0,0,143,15a1.66,1.66,0,0,0-.1-.57,1.13,1.13,0,0,0-.29-.41,1.1,1.1,0,0,0-.42-.24,1.55,1.55,0,0,0-.53-.08,1.51,1.51,0,0,0-.53.08,1.37,1.37,0,0,0-.43.23,1.73,1.73,0,0,0-.31.35,1.44,1.44,0,0,0-.17.45.42.42,0,0,1-.17.24.46.46,0,0,1-.3,0l-.49-.09a2.72,2.72,0,0,1,.29-.9,2.14,2.14,0,0,1,.53-.66,2.38,2.38,0,0,1,.73-.41,2.86,2.86,0,0,1,.89-.13,2.56,2.56,0,0,1,.89.14,2,2,0,0,1,.72.41,1.81,1.81,0,0,1,.47.65A2.06,2.06,0,0,1,144,15a2.35,2.35,0,0,1-.12.77,3.16,3.16,0,0,1-.34.69A6.73,6.73,0,0,1,143,17l-.6.62-2,2a3.15,3.15,0,0,1,.42-.09l.42,0Z"/></g><path class="cls-3" d="M27.42,26.22a5.55,5.55,0,0,1,2.15,1.19,2,2,0,0,1,.3,2.83,2.2,2.2,0,0,1-.3.31,5.44,5.44,0,0,1-2.66,1.34,9.49,9.49,0,0,1-6-.47,4.42,4.42,0,0,1-1.32-.9,2,2,0,0,1-.21-2.86,1.79,1.79,0,0,1,.28-.27A6,6,0,0,1,22.54,26L22.9,26c.12.12,0,.25,0,.39v.18a1.58,1.58,0,0,0,0,.38,1.74,1.74,0,0,0-.05.39v.43a2.18,2.18,0,0,0,0,.51.9.9,0,0,0,.05.36.39.39,0,0,0,.25.25.57.57,0,0,0,.36.07h2.84a.76.76,0,0,0,.42-.06l.14-.11c.12-.05.14-.18.2-.29a.62.62,0,0,0,0-.27,3.07,3.07,0,0,0,.05-.53,2.12,2.12,0,0,1,.05-.44V27a.56.56,0,0,1,.06-.3C27.28,26.54,27.26,26.33,27.42,26.22Z"/><polygon points="32.47 15.8 32.48 15.8 32.47 15.79 32.47 15.8"/><path d="M34,12.28h0v-.07h0Z"/><path d="M30.73,14.43v.07h0Z"/><polygon points="31.45 12.7 31.45 12.7 31.46 12.7 31.46 12.69 31.45 12.69 31.45 12.7"/><path d="M38.23,11.47h0Z"/><polygon points="34.72 10.76 34.72 10.76 34.7 10.75 34.72 10.76"/><polygon points="36.94 11.77 36.94 11.75 36.92 11.77 36.94 11.77"/><polygon points="27 21.69 27 21.68 26.98 21.69 27 21.69"/><polygon points="28.5 26.86 28.5 26.87 28.5 26.86 28.5 26.86"/><polygon points="27 18.67 26.98 18.67 26.98 18.68 27 18.67"/><path d="M25.76,22a.06.06,0,0,1-.06,0Z"/><polygon points="30.54 20.69 30.54 20.68 30.52 20.68 30.54 20.69"/><polygon points="30.23 25.72 30.23 25.72 30.23 25.72 30.23 25.71 30.23 25.72 30.23 25.72"/><path d="M30.45,21.47h.06A.06.06,0,0,1,30.45,21.47Z"/><polygon points="29 21.69 29.02 21.7 29.02 21.69 29 21.69"/><path d="M29.51,20.18h0s0,0-.07,0Z"/><path d="M29.94,21.2h0Z"/><polygon points="48.16 17.74 48.17 17.73 48.16 17.73 48.16 17.74"/><polygon points="48.95 25.65 48.95 25.65 48.97 25.64 48.97 25.64 48.95 25.65"/><polygon points="47.16 21.2 47.16 21.19 47.16 21.19 47.16 21.2"/><polygon points="49.47 18.24 49.48 18.24 49.48 18.23 49.47 18.24"/><path d="M48,17.17h0a.06.06,0,0,1,0,.06h0Z"/><polygon points="51.7 22.2 51.7 22.21 51.7 22.19 51.7 22.19 51.7 22.2"/><polygon points="52.41 27.16 52.42 27.16 52.42 27.16 52.42 27.16 52.41 27.15 52.41 27.16"/><path d="M51.69,21.47h0v0Z"/><polygon points="49.98 24.43 49.98 24.42 49.97 24.42 49.98 24.43"/><polygon points="50.19 23.21 50.2 23.2 50.19 23.2 50.19 23.21"/><polygon points="42.48 15.73 42.48 15.72 42.48 15.73 42.48 15.73"/><path d="M41.17,9.75h0V9.7h0A0,0,0,0,1,41.17,9.75Z"/><polygon points="41.48 14.93 41.48 14.93 41.48 14.93 41.48 14.93 41.48 14.92 41.48 14.93"/><path d="M44.92,18.17a0,0,0,0,1,0,.07Z"/><polygon points="44.92 18.25 44.94 18.25 44.94 18.24 44.92 18.25"/><polygon points="45.73 18.46 45.73 18.45 45.72 18.45 45.73 18.46"/><polygon points="45.63 16.45 45.65 16.44 45.63 16.44 45.63 16.45"/><path class="cls-3" d="M47.78,26a5.41,5.41,0,0,0-2.14,1.2,2,2,0,0,0-.3,2.83,2.13,2.13,0,0,0,.3.3,5.45,5.45,0,0,0,2.65,1.34,9.42,9.42,0,0,0,6-.47,4.59,4.59,0,0,0,1.33-.9,2,2,0,0,0,.21-2.86,2.37,2.37,0,0,0-.28-.27,6.2,6.2,0,0,0-2.93-1.37l-.36-.06c-.11.12,0,.26,0,.39v.18a1,1,0,0,1,0,.38,2.63,2.63,0,0,1,.06.39v.43a2.26,2.26,0,0,1,0,.52,1.1,1.1,0,0,1,0,.35.44.44,0,0,1-.26.26.73.73,0,0,1-.36.07H48.9a.91.91,0,0,1-.43-.07l-.13-.11c-.12-.05-.15-.18-.2-.29a.61.61,0,0,1,0-.27,2.31,2.31,0,0,1-.06-.52A1.71,1.71,0,0,0,48,27v-.27a.58.58,0,0,0-.06-.3C47.93,26.35,48,26.13,47.78,26Z"/><path d="M48.28,29C44.75,9.55,30.54,9.55,27,29H22.4c3.53-27.78,27-27.79,30.49,0Z"/></g></g></svg>