<?xml version="1.0" encoding="utf-8"?>
<!-- Generator: Adobe Illustrator 26.0.1, SVG Export Plug-In . SVG Version: 6.00 Build 0)  -->
<svg version="1.1" id="Layer_1" xmlns="http://www.w3.org/2000/svg" xmlns:xlink="http://www.w3.org/1999/xlink" x="0px" y="0px"
	 width="93px" height="64px" viewBox="0 0 93 64" style="enable-background:new 0 0 93 64;" xml:space="preserve">
<style type="text/css">
	.st0{fill:#FFFFFF;}
	.st1{fill:#4A4949;}
</style>
<path class="st0" d="M42.3,2.7c1.2-1.1,3-1.1,4.2,0l7.4,7.4c1.2,1.1,1.2,3,0,4.2l-7.4,7.4c-1.1,1.2-3,1.2-4.2,0.1
	c-1.2-1.1-1.2-3-0.1-4.2c0,0,0,0,0.1-0.1l2.2-2.2C33.1,16.3,24.8,26.4,26,37.7s11.3,19.6,22.7,18.4c9.6-1,17.3-8.4,18.5-17.9
	c0.2-1.6,1.6-2.8,3.2-2.6c1.6,0.2,2.8,1.6,2.6,3.2c0,0,0,0.1,0,0.1c-1.8,14.5-15.2,24.8-29.7,23c-14.6-1.8-24.9-15.1-23.1-29.6
	C21.8,19.8,32,10.2,44.7,9.3l-2.4-2.4C41.1,5.7,41.1,3.9,42.3,2.7z"/>
<path class="st0" d="M59,26.2c1.2,1.1,1.2,3,0,4.2L45.7,43.6c-1.2,1.1-3,1.1-4.2,0l-5.9-5.9c-1.2-1.1-1.2-3-0.1-4.2
	c1.1-1.2,3-1.2,4.2-0.1c0,0,0,0,0.1,0.1l3.8,3.8l11.2-11.2C56,25.1,57.9,25.1,59,26.2z"/>
</svg>
