<?xml version="1.0" encoding="UTF-8"?><svg id="Layer_1" xmlns="http://www.w3.org/2000/svg" viewBox="0 0 800 276.9"><defs><style>.cls-1{fill:none;}.cls-2,.cls-3{fill:#b39a31;}.cls-3{font-family:Circular-Medium, Circular;font-size:70px;letter-spacing:-.02em;}</style></defs><path class="cls-2" d="M321.13,147.22c4.45,2.69,8.21,6.39,10.61,11.43,2.74,5.04,4.11,11.09,4.11,17.81s-1.37,12.44-4.45,17.48c-2.74,5.04-6.84,8.74-11.98,11.09-5.13,2.69-11.29,4.03-17.79,4.03-3.76,0-7.19-.67-10.61-2.02-3.42-1.01-6.5-3.03-8.9-5.38v34.96h-19.85v-92.09h17.11l1.71,7.39c7.53-6.05,15.74-9.07,24.29-9.07,5.82,0,11.29,1.34,15.74,4.37m-10.95,41.68c3.42-3.02,5.13-7.06,5.13-12.1s-1.71-9.07-4.79-12.44c-3.08-3.36-7.18-4.7-11.63-4.7-3.76,0-7.19,.67-9.92,2.35-2.74,1.35-4.79,3.7-6.5,6.72v15.12c1.03,3.02,3.08,5.38,5.47,7.06,2.74,1.68,5.82,2.69,9.58,2.69,5.13,0,9.24-1.68,12.66-4.7"/><path class="cls-2" d="M347.48,158.98c3.08-4.7,7.18-8.74,12.66-11.43,5.47-2.69,11.63-4.37,18.48-4.37s13,1.35,18.48,4.37c5.13,2.69,9.24,6.72,12.32,11.76,3.08,5.04,4.45,10.42,4.45,16.81s-1.37,11.76-4.45,16.8c-3.08,5.04-6.84,9.07-12.32,11.76-5.13,2.69-11.63,4.37-18.48,4.37s-13-1.35-18.48-4.03c-5.48-2.69-9.58-6.39-12.66-11.43-2.74-5.04-4.45-10.76-4.45-17.48s1.71-12.1,4.45-17.14m20.19,29.24c2.74,3.36,6.5,4.71,10.95,4.71s8.21-1.68,10.95-4.71c2.74-3.02,4.11-7.39,4.11-12.1,0-5.04-1.37-9.08-4.11-12.1-3.08-3.36-6.5-5.04-11.29-5.04-4.45,0-7.87,1.68-10.95,4.71-2.74,3.36-4.11,7.39-4.11,12.44,0,4.7,1.37,8.74,4.45,12.1"/><rect class="cls-2" x="426.18" y="96.8" width="19.85" height="110.58"/><polygon class="cls-2" points="527.46 146.21 487.08 236.96 467.92 236.96 482.98 204.35 454.23 146.21 476.82 146.21 493.24 182.51 509.67 146.21 527.46 146.21"/><path class="cls-2" d="M603.42,146.2v61.17c0,5.71-1.71,11.09-5.13,15.8-3.42,4.7-7.87,8.4-13.69,11.09-5.82,2.69-11.97,4.03-18.82,4.03-5.13,0-9.58-.67-13.34-1.68-3.77-1.35-6.84-2.69-9.24-4.03-2.74-1.68-5.47-3.7-8.55-6.39l11.63-13.45c2.74,2.69,5.82,4.71,8.55,6.05,2.74,1.34,6.5,2.35,10.61,2.35,5.13,0,9.24-1.34,12.66-3.7,3.42-2.35,5.13-6.05,5.13-10.42v-8.74c-2.05,3.02-4.79,5.71-8.9,7.73-4.11,2.02-8.9,3.02-14.37,3.02s-10.95-1.35-15.74-4.37c-4.79-2.69-8.55-6.72-11.63-11.76-2.74-5.04-4.45-10.42-4.45-16.47s1.37-11.76,4.45-16.81c3.08-5.04,6.84-9.07,11.98-12.1,4.79-3.03,9.92-4.37,15.4-4.37,5.13,0,9.58,.67,13.69,2.02,4.11,1.34,7.19,3.36,9.24,5.71l2.05-4.71h18.48Zm-20.19,37.64v-15.12c-1.37-3.02-3.42-5.38-6.5-7.06-3.08-1.68-6.5-2.69-10.61-2.69-4.79,0-8.9,1.68-12.32,4.71-3.42,3.02-5.13,7.06-5.13,12.1,0,4.71,1.71,9.07,5.13,12.43,3.42,3.36,7.53,5.04,12.32,5.04,7.87-.34,13.69-3.36,17.11-9.41"/><path class="cls-2" d="M619.85,158.98c3.08-5.04,7.19-8.74,12.66-11.76,5.48-2.69,11.63-4.37,18.48-4.37s13,1.35,18.48,4.37c5.13,2.69,9.24,6.72,12.32,11.76,2.74,5.04,4.45,10.42,4.45,16.8s-1.37,11.76-4.45,16.81c-2.74,5.04-6.84,9.08-12.32,11.76-5.13,2.69-11.63,4.37-18.48,4.37s-13-1.35-18.48-4.03c-5.47-2.69-9.58-6.39-12.66-11.43-3.08-5.04-4.45-10.76-4.45-17.81,0-5.71,1.37-11.43,4.45-16.47m19.85,29.24c2.74,3.36,6.5,4.71,10.95,4.71s8.21-1.68,10.95-4.71c2.74-3.02,4.11-7.39,4.11-12.1,0-5.04-1.37-9.08-4.11-12.1-2.74-3.02-6.5-4.7-10.95-4.7s-7.87,1.68-10.95,4.7c-3.08,3.02-4.45,7.39-4.45,12.1,.34,4.7,1.71,8.74,4.45,12.1"/><path class="cls-2" d="M756.38,148.22c4.11,3.36,5.81,7.73,6.15,13.11v46.05h-20.18v-38.65c-.34-6.05-3.42-9.07-9.24-9.07-4.45,0-8.21,2.02-10.95,6.38-2.74,4.37-4.11,9.75-4.11,16.13v25.21h-19.85v-61.17h18.14l1.37,9.75c2.4-4.03,5.47-7.06,9.58-9.41,4.11-2.35,8.9-3.36,14.37-3.36,5.82,0,10.95,1.68,14.72,5.04"/><path class="cls-2" d="M177.42,145.2c-3.42-2.02-7.87-2.02-11.63,0l-26.69,15.46-18.14,10.08-26.69,15.46c-3.42,2.02-7.87,2.02-11.63,0l-21.22-12.1c-3.42-2.02-5.82-5.71-5.82-9.75v-23.86c0-4.03,2.05-7.73,5.82-9.75l20.87-11.76c3.42-2.02,7.87-2.02,11.63,0l20.87,11.76c3.42,2.02,5.82,5.71,5.82,9.75v15.46l18.14-10.42v-15.46c0-4.03-2.05-7.73-5.82-9.75l-38.67-22.18c-3.42-2.02-7.87-2.02-11.63,0l-39.35,22.18c-3.76,2.02-5.82,5.71-5.82,9.75v44.7c0,4.03,2.05,7.73,5.82,9.75l39.35,22.18c3.42,2.02,7.87,2.02,11.63,0l26.69-15.12,18.14-10.42,26.69-15.12c3.42-2.02,7.87-2.02,11.63,0l20.87,11.76c3.42,2.02,5.82,5.71,5.82,9.75v23.86c0,4.03-2.05,7.73-5.82,9.75l-20.87,12.1c-3.42,2.02-7.87,2.02-11.63,0l-20.87-11.76c-3.42-2.02-5.82-5.71-5.82-9.75v-15.46l-18.14,10.42v15.46c0,4.03,2.05,7.73,5.82,9.75l39.35,22.18c3.42,2.02,7.87,2.02,11.63,0l39.35-22.18c3.42-2.02,5.82-5.71,5.82-9.75v-44.7c0-4.03-2.05-7.73-5.82-9.75l-39.69-22.52Z"/><rect class="cls-1" x="37.47" y="96.47" width="725.06" height="159.31"/><text class="cls-3" transform="translate(258.28 68.29)"><tspan x="0" y="0">built on</tspan></text></svg>