<svg width="532" height="70" viewBox="0 0 532 70" fill="none" xmlns="http://www.w3.org/2000/svg">
<path d="M207.425 5.4C202.525 8.3 198.125 11.4 197.625 12.3C197.125 13.1 196.925 19.1 197.025 25.6L197.325 37.3L207.125 43.1C212.525 46.3 217.625 48.9 218.525 48.9C219.325 48.9 227.225 44.6 236.225 39.4C245.125 34.2 253.225 29.9 254.125 29.9C255.925 29.9 265.825 35.6 267.025 37.3C267.425 37.9 267.825 41.7 267.825 45.7V53L261.625 56.9C258.125 59.1 254.825 60.9 254.125 60.9C253.425 60.9 250.225 59.3 246.925 57.4C240.925 53.8 240.225 52.9 239.625 46.7L239.325 44L236.025 46.1C232.925 48 232.725 48.4 233.025 53.3L233.325 58.4L242.825 64.1C248.025 67.3 252.925 69.8 253.725 69.9C256.625 69.9 274.825 58.7 275.325 56.5C275.625 55.4 275.825 49.5 275.625 43.4L275.325 32.4L265.825 26.7C260.625 23.5 255.325 21 254.125 20.9C253.025 20.9 244.825 25.2 236.025 30.4C227.125 35.6 219.125 39.9 218.125 39.9C217.125 39.9 213.825 38.2 210.825 36.1L205.325 32.4L205.025 25.9C204.625 16.5 204.925 15.8 212.125 11.9L218.525 8.5L224.425 11.8C231.525 15.8 231.825 16.2 231.825 21.7V26L235.825 23.8C239.825 21.5 239.925 21.4 239.625 16.5L239.325 11.5L229.825 5.7C224.625 2.6 219.425 0 218.325 0C217.225 0.1 212.325 2.5 207.425 5.4Z" fill="#B39A31"/>
<path d="M374.824 26.3999V49.8999H379.324H383.824V26.3999V2.8999H379.324H374.824V26.3999Z" fill="#B39A31"/>
<path d="M296.824 40.3999V63.8999H301.324H305.824V55.9999V47.9999L308.624 49.4999C312.724 51.5999 319.024 51.2999 322.824 48.5999C328.124 44.9999 330.124 41.5999 330.624 35.1999C331.024 27.7999 328.024 21.2999 322.824 18.5999C318.524 16.3999 310.724 16.7999 307.824 19.3999C305.924 21.1999 305.824 21.0999 305.824 19.0999C305.824 17.1999 305.224 16.8999 301.324 16.8999H296.824V40.3999ZM317.724 25.8999C322.324 28.2999 322.824 38.3999 318.524 41.3999C312.724 45.3999 305.824 41.3999 305.824 33.8999C305.824 26.8999 311.924 22.6999 317.724 25.8999Z" fill="#B39A31"/>
<path d="M342.824 19.0999C337.624 21.6999 333.824 27.9999 333.824 33.8999C333.824 35.8999 334.824 39.4999 336.124 41.8999C342.124 53.6999 360.324 53.6999 366.524 41.8999C369.424 36.3999 369.424 31.4999 366.624 25.8999C363.924 20.5999 357.624 16.8999 351.324 16.8999C349.124 16.8999 345.224 17.8999 342.824 19.0999ZM355.324 25.4999C357.324 26.2999 359.824 31.0999 359.824 34.2999C359.824 38.2999 355.224 42.8999 351.324 42.8999C347.424 42.8999 342.824 38.2999 342.824 34.2999C342.824 31.2999 345.224 26.2999 347.024 25.5999C348.924 24.7999 353.424 24.7999 355.324 25.4999Z" fill="#B39A31"/>
<path d="M387.824 17.0998C387.824 17.2998 390.524 24.7998 393.724 33.7998L399.624 50.0998L397.324 56.9998L394.924 63.8998H399.124H403.424L406.024 56.0998C407.424 51.8998 411.124 41.2998 414.224 32.5998L419.824 16.7998L415.124 17.0998L410.324 17.3998L407.424 27.0998C405.724 32.4998 404.124 36.8998 403.824 36.8998C403.524 36.8998 401.924 32.4998 400.224 27.0998L397.324 17.3998L392.524 17.0998C389.924 16.8998 387.824 16.8998 387.824 17.0998Z" fill="#B39A31"/>
<path d="M428.824 18.6999C424.324 21.0999 420.824 27.6999 420.824 33.8999C420.824 46.3999 432.624 54.6999 442.824 49.3999C445.824 47.8999 445.824 47.8999 445.824 50.6999C445.824 55.5999 443.224 56.8999 434.024 56.8999H425.824V60.3999V63.8999H435.324C453.824 63.8999 454.824 62.4999 454.824 35.8999V16.8999H450.324C447.024 16.8999 445.824 17.2999 445.824 18.2999C445.824 19.5999 445.424 19.5999 442.324 18.2999C437.724 16.3999 433.024 16.4999 428.824 18.6999ZM443.724 27.4999C446.624 31.0999 446.524 37.4999 443.624 40.5999C440.924 43.4999 435.924 43.5999 432.724 40.9999C430.724 39.3999 430.324 38.0999 430.324 33.8999C430.324 29.6999 430.724 28.3999 432.724 26.7999C436.224 23.9999 441.224 24.2999 443.724 27.4999Z" fill="#B39A31"/>
<path d="M469.824 19.0999C464.624 21.6999 460.824 27.9999 460.824 33.8999C460.824 35.8999 461.824 39.4999 463.124 41.8999C469.124 53.6999 487.324 53.6999 493.524 41.8999C496.424 36.3999 496.424 31.4999 493.624 25.8999C490.924 20.5999 484.624 16.8999 478.324 16.8999C476.124 16.8999 472.224 17.8999 469.824 19.0999ZM482.324 25.4999C484.324 26.2999 486.824 31.0999 486.824 34.2999C486.824 38.2999 482.224 42.8999 478.324 42.8999C474.424 42.8999 469.824 38.2999 469.824 34.2999C469.824 31.2999 472.224 26.2999 474.024 25.5999C475.924 24.7999 480.424 24.7999 482.324 25.4999Z" fill="#B39A31"/>
<path d="M499.824 33.3999V49.8999H504.224H508.624L509.024 39.4999C509.324 27.9999 510.824 24.8999 515.724 24.8999C521.324 24.8999 522.824 28.1999 522.824 40.2999V49.8999H527.324H531.824V38.2999C531.824 24.8999 530.524 20.8999 525.324 18.4999C520.924 16.3999 517.024 16.4999 512.524 18.8999L508.824 20.8999V18.8999C508.824 17.1999 508.124 16.8999 504.324 16.8999H499.824V33.3999Z" fill="#B39A31"/>
<path d="M35.78 19.222H45.482C48.254 19.222 50.438 19.964 52.034 21.448C53.658 22.932 54.47 24.878 54.47 27.286C54.47 28.826 54.064 30.156 53.252 31.276C52.44 32.396 51.362 33.208 50.018 33.712C51.67 34.132 52.972 35.014 53.924 36.358C54.904 37.674 55.394 39.186 55.394 40.894C55.394 43.246 54.54 45.192 52.832 46.732C51.124 48.244 48.912 49 46.196 49H35.78V19.222ZM39.896 32.242H45.02C46.644 32.242 47.932 31.808 48.884 30.94C49.836 30.044 50.312 28.896 50.312 27.496C50.312 26.068 49.822 24.934 48.842 24.094C47.862 23.254 46.532 22.834 44.852 22.834H39.896V32.242ZM39.896 45.388H45.608C47.288 45.388 48.632 44.954 49.64 44.086C50.676 43.218 51.194 42.07 51.194 40.642C51.194 39.158 50.732 37.982 49.808 37.114C48.884 36.218 47.54 35.77 45.776 35.77H39.896V45.388ZM73.1193 46.564C72.5873 47.572 71.7753 48.342 70.6833 48.874C69.5913 49.378 68.4153 49.63 67.1553 49.63C64.8593 49.63 63.0253 48.874 61.6533 47.362C60.2813 45.822 59.5953 43.876 59.5953 41.524V28.798H63.5433V40.936C63.5433 42.448 63.9073 43.694 64.6353 44.674C65.3913 45.654 66.5533 46.144 68.1213 46.144C69.6893 46.144 70.8793 45.682 71.6913 44.758C72.5033 43.806 72.9093 42.546 72.9093 40.978V28.798H76.8573V45.262C76.8573 46.578 76.9273 47.824 77.0673 49H73.2873C73.1753 48.384 73.1193 47.572 73.1193 46.564ZM87.5004 49H83.5944V28.798H87.5004V49ZM83.5104 23.17C82.9784 22.61 82.7124 21.938 82.7124 21.154C82.7124 20.37 82.9784 19.698 83.5104 19.138C84.0704 18.578 84.7424 18.298 85.5264 18.298C86.3104 18.298 86.9824 18.578 87.5424 19.138C88.1024 19.67 88.3824 20.342 88.3824 21.154C88.3824 21.938 88.1024 22.61 87.5424 23.17C86.9824 23.702 86.3104 23.968 85.5264 23.968C84.7424 23.968 84.0704 23.702 83.5104 23.17ZM98.1654 49H94.2174V18.592H98.1654V49ZM110.173 22.414V28.798H114.541V32.368H110.173V42.868C110.173 43.82 110.383 44.52 110.803 44.968C111.251 45.416 111.979 45.64 112.987 45.64C113.575 45.64 114.093 45.584 114.541 45.472V48.832C113.869 49.084 112.973 49.21 111.853 49.21C110.117 49.21 108.745 48.706 107.737 47.698C106.729 46.69 106.225 45.276 106.225 43.456V32.368H102.361V28.798H103.453C104.489 28.798 105.259 28.518 105.763 27.958C106.295 27.37 106.561 26.614 106.561 25.69V22.414H110.173ZM134.469 44.212C135.701 45.472 137.199 46.102 138.963 46.102C140.727 46.102 142.211 45.472 143.415 44.212C144.647 42.924 145.263 41.146 145.263 38.878C145.263 36.638 144.647 34.888 143.415 33.628C142.211 32.34 140.727 31.696 138.963 31.696C137.199 31.696 135.701 32.34 134.469 33.628C133.265 34.888 132.663 36.638 132.663 38.878C132.663 41.146 133.265 42.924 134.469 44.212ZM131.529 31.234C133.489 29.19 135.967 28.168 138.963 28.168C141.959 28.168 144.423 29.19 146.355 31.234C148.315 33.25 149.295 35.798 149.295 38.878C149.295 41.986 148.329 44.562 146.397 46.606C144.465 48.622 141.987 49.63 138.963 49.63C135.939 49.63 133.461 48.622 131.529 46.606C129.597 44.562 128.631 41.986 128.631 38.878C128.631 35.798 129.597 33.25 131.529 31.234ZM158.294 37.324V49H154.346V28.798H158.21V31.696C159.554 29.372 161.626 28.21 164.426 28.21C166.75 28.21 168.528 28.952 169.76 30.436C171.02 31.92 171.65 33.838 171.65 36.19V49H167.702V36.862C167.702 33.474 166.134 31.78 162.998 31.78C161.514 31.78 160.352 32.312 159.512 33.376C158.7 34.412 158.294 35.728 158.294 37.324Z" fill="#B39A31"/>
</svg>
