<svg id="Layer_1" data-name="Layer 1" xmlns="http://www.w3.org/2000/svg" width="40" height="40" viewBox="0 0 40 40"><g id="surface1"><path d="M39.8,20.4A19.4,19.4,0,1,1,20.4,1,19.4,19.4,0,0,1,39.8,20.4Z" fill="#b39a31"/><path d="M28.887,28.129,22.328,12.27a1.763,1.763,0,0,0-1.644-1.223H20.1a1.767,1.767,0,0,0-1.645,1.223L15.6,19.18H13.445a1.178,1.178,0,0,0-1.175,1.172v.015a1.184,1.184,0,0,0,1.175,1.176H14.6l-2.723,6.586a1.337,1.337,0,0,0-.082.449,1.278,1.278,0,0,0,.32.887,1.132,1.132,0,0,0,.871.332,1.155,1.155,0,0,0,.676-.223,1.422,1.422,0,0,0,.469-.6l3-7.438h2.082a1.182,1.182,0,0,0,1.172-1.176v-.031a1.181,1.181,0,0,0-1.172-1.172H18.1L20.4,13.453l6.238,15.52a1.515,1.515,0,0,0,.469.6,1.171,1.171,0,0,0,.675.223,1.125,1.125,0,0,0,.871-.336,1.226,1.226,0,0,0,.321-.883A1.033,1.033,0,0,0,28.887,28.129Z" fill="#fff"/></g></svg>