<?xml version="1.0" encoding="UTF-8"?>
<svg xmlns="http://www.w3.org/2000/svg" xmlns:xlink="http://www.w3.org/1999/xlink" width="24px" height="24px" viewBox="0 0 24 24" version="1.1">
<g id="surface1">
<path style=" stroke:none;fill-rule:nonzero;fill:rgb(70.196078%,60.392157%,19.215686%);fill-opacity:1;" d="M 23.878906 12.238281 C 23.878906 18.667969 18.667969 23.878906 12.238281 23.878906 C 5.8125 23.878906 0.601562 18.667969 0.601562 12.238281 C 0.601562 5.8125 5.8125 0.601562 12.238281 0.601562 C 18.667969 0.601562 23.878906 5.8125 23.878906 12.238281 Z M 23.878906 12.238281 "/>
<path style=" stroke:none;fill-rule:nonzero;fill:rgb(100%,100%,100%);fill-opacity:1;" d="M 17.332031 16.878906 L 13.398438 7.363281 C 13.257812 6.933594 12.863281 6.636719 12.410156 6.628906 L 12.058594 6.628906 C 11.609375 6.636719 11.210938 6.933594 11.074219 7.363281 L 9.359375 11.507812 L 8.066406 11.507812 C 7.679688 11.507812 7.363281 11.824219 7.363281 12.210938 L 7.363281 12.21875 C 7.363281 12.609375 7.679688 12.921875 8.066406 12.925781 L 8.761719 12.925781 L 7.125 16.878906 C 7.09375 16.964844 7.078125 17.054688 7.078125 17.148438 C 7.070312 17.34375 7.140625 17.53125 7.269531 17.679688 C 7.40625 17.816406 7.597656 17.890625 7.792969 17.878906 C 7.9375 17.878906 8.078125 17.832031 8.195312 17.746094 C 8.320312 17.652344 8.417969 17.527344 8.480469 17.382812 L 10.277344 12.921875 L 11.527344 12.921875 C 11.914062 12.917969 12.230469 12.605469 12.230469 12.214844 L 12.230469 12.199219 C 12.226562 11.808594 11.914062 11.496094 11.527344 11.496094 L 10.859375 11.496094 L 12.238281 8.070312 L 15.984375 17.382812 C 16.042969 17.527344 16.140625 17.648438 16.265625 17.742188 C 16.382812 17.828125 16.523438 17.875 16.667969 17.878906 C 16.863281 17.890625 17.054688 17.816406 17.191406 17.675781 C 17.324219 17.53125 17.394531 17.339844 17.382812 17.144531 C 17.386719 17.054688 17.371094 16.960938 17.332031 16.878906 Z M 17.332031 16.878906 "/>
</g>
</svg>
