<svg id="Layer_1" data-name="Layer 1" xmlns="http://www.w3.org/2000/svg" width="40" height="40" viewBox="0 0 40 40"><rect id="Rectangle_179" data-name="Rectangle 179" x="0.005" y="0.851" width="40" height="40" fill="none"/><g id="Layer_1-2" data-name="Layer_1"><g id="_1421344023328" data-name=" 1421344023328"><path id="Path_1467" data-name="Path 1467" d="M39.405,24.837A20,20,0,1,1,24.836.594h.005A20,20,0,0,1,39.405,24.837Z" fill="#b39a31"/><path id="Path_1468" data-name="Path 1468" d="M28.531,17.212c.386-2.571-1.581-3.953-4.271-4.875l.873-3.483L23,8.326l-.85,3.391c-.56-.139-1.135-.27-1.707-.4L21.3,7.9l-2.129-.528L18.3,10.858c-.464-.105-.919-.209-1.36-.318v-.011L14,9.8l-.567,2.264s1.581.36,1.547.383a1.13,1.13,0,0,1,.993,1.233l-.994,3.968a1.789,1.789,0,0,1,.222.071l-.225-.055-1.393,5.558a.777.777,0,0,1-.976.5c.021.031-1.548-.384-1.548-.384L10,25.764l2.772.688c.516.129,1.021.263,1.519.39l-.881,3.523,2.128.528.873-3.485c.581.157,1.146.3,1.7.438l-.87,3.469,2.13.528.881-3.516c3.633.684,6.364.408,7.513-2.862.927-2.633-.046-4.151-1.956-5.141a3.385,3.385,0,0,0,2.719-3.113h0ZM23.664,24c-.659,2.633-5.113,1.209-6.557.853l1.169-4.667c1.444.359,6.075,1.069,5.388,3.814Zm.659-6.83c-.6,2.395-4.308,1.178-5.511.88l1.061-4.233c1.2.3,5.075.855,4.45,3.353Z" fill="#fff"/></g></g></svg>