<?xml version="1.0" encoding="UTF-8"?>
<svg xmlns="http://www.w3.org/2000/svg" xmlns:xlink="http://www.w3.org/1999/xlink" width="24px" height="24px" viewBox="0 0 24 24" version="1.1">
<g id="surface1">
<path style=" stroke:none;fill-rule:nonzero;fill:rgb(70.196078%,60.392157%,19.215686%);fill-opacity:1;" d="M 23.644531 14.902344 C 22.039062 21.332031 15.527344 25.246094 9.097656 23.644531 C 2.667969 22.042969 -1.246094 15.527344 0.355469 9.097656 C 1.957031 2.667969 8.472656 -1.246094 14.902344 0.355469 L 14.90625 0.355469 C 21.332031 1.960938 25.246094 8.472656 23.644531 14.902344 Z M 23.644531 14.902344 "/>
<path style=" stroke:none;fill-rule:nonzero;fill:rgb(100%,100%,100%);fill-opacity:1;" d="M 17.117188 10.328125 C 17.351562 8.785156 16.171875 7.957031 14.554688 7.402344 L 15.078125 5.3125 L 13.800781 4.996094 L 13.289062 7.03125 C 12.953125 6.945312 12.609375 6.867188 12.265625 6.789062 L 12.78125 4.738281 L 11.503906 4.421875 L 10.980469 6.515625 C 10.703125 6.453125 10.429688 6.390625 10.164062 6.324219 L 10.164062 6.316406 L 8.398438 5.878906 L 8.058594 7.238281 C 8.058594 7.238281 9.007812 7.453125 8.988281 7.46875 C 9.355469 7.511719 9.621094 7.839844 9.582031 8.207031 L 8.988281 10.589844 C 9.03125 10.601562 9.078125 10.613281 9.121094 10.632812 L 8.984375 10.597656 L 8.148438 13.933594 C 8.070312 14.175781 7.808594 14.3125 7.5625 14.234375 C 7.578125 14.25 6.636719 14.003906 6.636719 14.003906 L 6 15.457031 L 7.664062 15.871094 C 7.972656 15.949219 8.277344 16.027344 8.574219 16.105469 L 8.046875 18.21875 L 9.324219 18.535156 L 9.847656 16.445312 C 10.195312 16.539062 10.535156 16.625 10.867188 16.707031 L 10.34375 18.789062 L 11.621094 19.105469 L 12.152344 16.996094 C 14.332031 17.40625 15.96875 17.242188 16.660156 15.277344 C 17.214844 13.699219 16.632812 12.789062 15.484375 12.195312 C 16.390625 12.015625 17.058594 11.246094 17.117188 10.328125 Z M 14.199219 14.398438 C 13.804688 15.980469 11.128906 15.125 10.265625 14.910156 L 10.964844 12.113281 C 11.832031 12.328125 14.609375 12.753906 14.199219 14.398438 Z M 14.59375 10.300781 C 14.234375 11.738281 12.007812 11.007812 11.289062 10.828125 L 11.921875 8.289062 C 12.644531 8.46875 14.96875 8.804688 14.59375 10.300781 Z M 14.59375 10.300781 "/>
</g>
</svg>
