<?xml version="1.0" encoding="utf-8"?>
<!-- Generator: Adobe Illustrator 26.0.1, SVG Export Plug-In . SVG Version: 6.00 Build 0)  -->
<svg version="1.1" id="Layer_1" xmlns="http://www.w3.org/2000/svg" xmlns:xlink="http://www.w3.org/1999/xlink" x="0px" y="0px"
	 width="93px" height="64px" viewBox="0 0 93 64" style="enable-background:new 0 0 93 64;" xml:space="preserve">
<style type="text/css">
	.st0{fill:#FFFFFF;}
	.st1{fill:#4A4949;}
</style>
<g>
	<path class="st0" d="M54.1,57.2c-1.9,0-3.9,0-5.8,0c-0.1,0-0.4,0.3-0.4,0.5c-0.5,2.8-2.1,4.1-4.9,4.1c-1.1,0-2.3,0-3.4,0
		c-3.2-0.1-5.4-2.3-5.4-5.4c0-0.6,0-1.3,0-1.9c-1.2-0.6-2.4-1.1-3.5-1.6c-3.4-1.8-5.9-4.7-8.1-7.9c-0.2-0.3-0.4-0.6-0.6-1
		c-0.5-1-1.3-1.7-2.4-2c-2.2-0.6-3.8-2.7-3.8-5.1c0-1.9,0-3.9,0-5.8c0-2.4,1.6-4.4,3.9-5c0.7-0.2,1.1-0.5,1.3-1.1
		c1.6-4.9,5-8.1,9.4-10.5c0.5-0.3,0.7-0.5,0.7-1.1c0-2.6,0-5.1,0-7.7c0-1.4,0.5-2.6,1.8-3.2c1.4-0.6,2.7-0.2,3.8,0.8
		c1.7,1.7,3.5,3.3,5.7,4.4c0.8,0.4,1.7,0.7,2.5,1c-0.4,1.3-0.9,2.7-1.2,4.1c-0.4,1.9-0.4,3.7,0,5.6c0.6,2.9,2.6,4.7,5.2,5.8
		c3.7,1.6,7.4,3.1,11.1,4.6c3.4,1.4,6.3,0.7,9-1.7c2-1.8,3.5-4,4.4-6.6c0-0.1,0.1-0.2,0.2-0.4c1.5,2,2.5,4.2,3,6.5
		c1.2,5.5,0.9,10.8-1.5,15.9c-1.5,3.1-3.6,5.7-6.4,7.8C68.2,50.6,68,51,68,51.6c0,1.5,0,3.1,0,4.6c0,3.3-2.2,5.5-5.6,5.6
		c-1.3,0-2.5,0-3.8,0c-2.3-0.1-4.1-1.7-4.4-3.9C54.2,57.6,54.2,57.4,54.1,57.2z M34.1,21.7c-1.7,0-3.1,1.5-3.1,3.1
		c0,1.6,1.5,3.1,3.1,3.1c1.7,0,3.1-1.5,3.1-3.2C37.2,23.1,35.8,21.7,34.1,21.7z"/>
	<path class="st0" d="M71.1,16.2c-0.2,3.7-1.9,7.2-5.5,9.6c-1.1,0.7-2.4,0.9-3.6,0.4c-2.2-0.8-4.4-1.7-6.6-2.6
		c-1.7-0.7-3.5-1.4-5.2-2.2c-0.9-0.4-1.8-1-2.5-1.6c-0.9-0.8-1.1-2-1.2-3.2C45.8,9.2,52.5,2.5,59.8,3.3C66.4,4,71,9.1,71.1,16.2z"/>
	<path class="st1" d="M34.1,21.7c1.7,0,3.1,1.3,3.1,3c0,1.7-1.4,3.1-3.1,3.1c-1.6,0-3.1-1.4-3.1-3.1C31.1,23.2,32.5,21.7,34.1,21.7z
		"/>
</g>
</svg>
