<svg id="Layer_1" data-name="Layer 1" xmlns="http://www.w3.org/2000/svg" width="16" height="16" viewBox="0 0 16 16"><rect id="base" width="16" height="16" fill="none"/><g id="coingecko_hover" data-name="coingecko hover"><path id="Path_1524" data-name="Path 1524" d="M15.084,7.968A7.083,7.083,0,1,1,7.968.918h0A7.083,7.083,0,0,1,15.084,7.968Z" fill="#b39a31"/><path id="Path_1525" data-name="Path 1525" d="M14.553,7.971A6.551,6.551,0,1,1,7.969,1.453h0A6.552,6.552,0,0,1,14.553,7.971Z" fill="#f9e988"/><path id="Path_1526" data-name="Path 1526" d="M8.122,1.874a3.6,3.6,0,0,1,1.259,0,3.833,3.833,0,0,1,1.2.4,6.938,6.938,0,0,1,1.018.745c.321.261.641.529.945.821a4.771,4.771,0,0,1,.806.975,5.538,5.538,0,0,1,.565,1.138,5.18,5.18,0,0,1,.232,2.5h-.041a11.47,11.47,0,0,0-.616-2.341,9.212,9.212,0,0,0-.485-1.089A10.841,10.841,0,0,0,12.368,4a3.717,3.717,0,0,0-.854-.862A4.98,4.98,0,0,0,10.429,2.6a11.047,11.047,0,0,0-1.123-.406C8.92,2.086,8.528,2,8.118,1.917Z" fill="#fff"/><path id="Path_1527" data-name="Path 1527" d="M11.327,5.659c-.475-.138-.968-.333-1.467-.53A1.006,1.006,0,0,0,9.5,4.657a1.769,1.769,0,0,0-1.467-.15,3.657,3.657,0,0,0-1.715-.051C1.784,5.7,4.353,8.748,2.69,11.808a6.529,6.529,0,0,0,6.477,2.645S7.905,11.42,10.753,9.965C13.061,8.783,14.727,6.583,11.327,5.659Z" fill="#b39a31"/><path id="Path_1528" data-name="Path 1528" d="M11.883,7.651a.275.275,0,1,1-.277-.273h0A.275.275,0,0,1,11.883,7.651Z" fill="#fff"/><path id="Path_1529" data-name="Path 1529" d="M8.026,4.506a6.772,6.772,0,0,1,1.831.622C9.6,4.383,8.737,4.284,8.026,4.506Z" fill="#706225"/><path id="Path_1530" data-name="Path 1530" d="M8.339,6.387A1.267,1.267,0,1,1,7.071,5.121h0A1.268,1.268,0,0,1,8.339,6.387Z" fill="#fff"/><path id="Path_1531" data-name="Path 1531" d="M7.964,6.4a.891.891,0,1,1-.891-.891h0A.891.891,0,0,1,7.964,6.4Z" fill="#58595b"/><path id="Path_1532" data-name="Path 1532" d="M12.912,8.21A6.335,6.335,0,0,1,9.063,9.482c-.775,0-.932-.821-1.444-.42A3.646,3.646,0,0,1,5.683,9.7,2.409,2.409,0,0,1,3.412,7.653a11.553,11.553,0,0,1-.8,4.07,6.406,6.406,0,0,0,6.55,2.72c-.273-1.917,1.4-3.795,2.347-4.754a12.355,12.355,0,0,0,1.4-1.484Z" fill="#b39a31"/><path id="Path_1533" data-name="Path 1533" d="M12.869,8.257a4.612,4.612,0,0,1-1.084.7,6.938,6.938,0,0,1-1.216.443,3.832,3.832,0,0,1-1.3.15,1.774,1.774,0,0,1-1.188-.522L8.1,9.012a2.259,2.259,0,0,0,1.187.327,5.552,5.552,0,0,0,1.247-.1,6.828,6.828,0,0,0,1.212-.375,4.519,4.519,0,0,0,1.113-.616Z" fill="#58595b"/></g></svg>