<?xml version="1.0" encoding="UTF-8"?>
<svg xmlns="http://www.w3.org/2000/svg" xmlns:xlink="http://www.w3.org/1999/xlink" width="24px" height="24px" viewBox="0 0 24 24" version="1.1">
<g id="surface1">
<path style=" stroke:none;fill-rule:nonzero;fill:rgb(70.196078%,60.392157%,19.215686%);fill-opacity:1;" d="M 24 12 C 24 18.628906 18.628906 24 12 24 C 5.371094 24 0 18.628906 0 12 C 0 5.371094 5.371094 0 12 0 C 18.628906 0 24 5.371094 24 12 Z M 24 12 "/>
<path style=" stroke:none;fill-rule:nonzero;fill:rgb(100%,100%,100%);fill-opacity:1;" d="M 18.917969 10.074219 L 17.535156 10.074219 C 16.773438 7.960938 14.722656 6.507812 12.019531 6.507812 L 7.574219 6.507812 L 7.574219 10.074219 L 6.03125 10.074219 L 6.03125 11.355469 L 7.574219 11.355469 L 7.574219 12.695312 L 6.03125 12.695312 L 6.03125 13.976562 L 7.574219 13.976562 L 7.574219 17.5 L 12.019531 17.5 C 14.691406 17.5 16.726562 16.058594 17.507812 13.976562 L 18.917969 13.976562 L 18.917969 12.695312 L 17.820312 12.695312 C 17.847656 12.464844 17.863281 12.234375 17.863281 12.003906 L 17.863281 11.972656 C 17.863281 11.761719 17.851562 11.554688 17.832031 11.355469 L 18.925781 11.355469 L 18.925781 10.074219 Z M 8.820312 7.648438 L 12.019531 7.648438 C 13.761719 7.558594 15.386719 8.511719 16.160156 10.070312 L 8.820312 10.070312 Z M 12.019531 16.347656 L 8.820312 16.347656 L 8.820312 13.972656 L 16.148438 13.972656 C 15.363281 15.511719 13.746094 16.441406 12.019531 16.347656 Z M 16.574219 12.03125 C 16.574219 12.253906 16.558594 12.472656 16.527344 12.691406 L 8.820312 12.691406 L 8.820312 11.351562 L 16.53125 11.351562 C 16.558594 11.566406 16.574219 11.78125 16.574219 12 Z M 16.574219 12.03125 "/>
</g>
</svg>
