<svg id="Layer_1" data-name="Layer 1" xmlns="http://www.w3.org/2000/svg" width="40" height="40" viewBox="0 0 40 40"><circle id="Ellipse_82" data-name="Ellipse 82" cx="20" cy="20" r="20" fill="#b39a31"/><path id="Path_1564" data-name="Path 1564" d="M31.531,16.792H29.224c-1.27-3.526-4.686-5.944-9.191-5.944H12.624v5.944H10.051v2.132h2.573V21.16H10.051v2.132h2.573v5.872h7.409c4.453,0,7.843-2.4,9.146-5.872h2.353V21.16H29.7a9.675,9.675,0,0,0,.071-1.154v-.052c0-.35-.019-.694-.052-1.031h1.821V16.791ZM14.7,12.748h5.334a7.273,7.273,0,0,1,6.9,4.038H14.7Zm5.334,14.5H14.7v-3.96H26.916a7.281,7.281,0,0,1-6.883,3.96Zm7.59-7.195a7.782,7.782,0,0,1-.078,1.1H14.7V18.918H27.551A8.331,8.331,0,0,1,27.622,20Z" fill="#fff"/></svg>