<svg id="Layer_1" data-name="Layer 1" xmlns="http://www.w3.org/2000/svg" width="40" height="40" viewBox="0 0 40 40"><rect id="Rectangle_179" data-name="Rectangle 179" x="0.005" y="0.001" width="40" height="40" fill="none"/><path id="Path_1467" data-name="Path 1467" d="M39.405,24.837A20,20,0,1,1,24.836.594h.005A20,20,0,0,1,39.405,24.837Z" fill="#b39a31"/><g id="Layer_1-2" data-name="Layer_1"><g id="_1421394342400" data-name=" 1421394342400"><g id="Group_119" data-name="Group 119"><path id="Path_1461" data-name="Path 1461" d="M20,6.043l-.187.636V25.138l.187.187,8.568-5.065Z" fill="#3a3a3a"/><path id="Path_1462" data-name="Path 1462" d="M20,6.043,11.434,20.26,20,25.325Z" fill="#fff"/><path id="Path_1463" data-name="Path 1463" d="M20,26.947l-.105.129v6.575l.105.308,8.573-12.074Z" fill="#3a3a3a"/><path id="Path_1464" data-name="Path 1464" d="M20,33.959V26.947l-8.568-5.062Z" fill="#fff"/><path id="Path_1465" data-name="Path 1465" d="M20,25.324l8.568-5.065L20,16.364Z" fill="#515151"/><path id="Path_1466" data-name="Path 1466" d="M11.434,20.26,20,25.325v-8.96Z" fill="#707070"/></g></g></g></svg>