<?xml version="1.0" encoding="utf-8"?>
<!-- Generator: Adobe Illustrator 26.0.1, SVG Export Plug-In . SVG Version: 6.00 Build 0)  -->
<svg version="1.1" id="Layer_1" xmlns="http://www.w3.org/2000/svg" xmlns:xlink="http://www.w3.org/1999/xlink" x="0px" y="0px"
	 width="24px" height="24px" viewBox="0 0 24 24" style="enable-background:new 0 0 24 24;" xml:space="preserve">
<style type="text/css">
	.st0{fill:#FFFFFF;}
	.st1{fill:none;}
</style>
<g transform="matrix(1 0 0 1 0 0)">
	<g>
		<g>
			<path class="st0" d="M10.8,17.9c0.3,0,0.6,0.3,0.6,0.6c0,0.3-0.3,0.6-0.6,0.6c-0.3,0-0.6-0.3-0.6-0.6S10.5,17.9,10.8,17.9
				 M20.9,14c-0.3,0-0.6-0.3-0.6-0.6c0-0.3,0.3-0.6,0.6-0.6c0.3,0,0.6,0.3,0.6,0.6C21.5,13.7,21.2,14,20.9,14 M20.9,11.3
				c-1.1,0-2,0.9-2,2c0,0.2,0,0.4,0.1,0.6l0,0l-6.5,3.5c-0.4-0.5-1-0.9-1.6-0.9c-0.8,0-1.4,0.4-1.8,1.1l0,0l-5.9-3.1
				c-0.6-0.3-1.1-1.3-1-2.3c0-0.5,0.2-0.9,0.4-1c0.2-0.1,0.3-0.1,0.6,0l0,0l0,0c1.6,0.8,6.7,3.5,6.9,3.6c0.3,0.1,0.5,0.2,1.1-0.1
				l0,0l10.5-5.5C21.9,9.4,22,9.2,22,9c0-0.3-0.3-0.4-0.3-0.4c-0.6-0.3-1.5-0.7-2.4-1.1c-1.9-0.9-4.1-1.9-5.1-2.4
				c-0.8-0.4-1.5-0.1-1.6,0l0,0l-0.2,0.1C8.1,7.3,2.3,10.1,2,10.3c-0.6,0.3-1,1.1-1,1.9c-0.1,1.4,0.6,2.9,1.7,3.4l0,0l6.2,3.2
				c0.1,1,1,1.7,1.9,1.7c1.1,0,1.9-0.9,2-1.9l0,0l6.8-3.7c0.3,0.3,0.8,0.4,1.2,0.4c1.1,0,2-0.9,2-2C22.9,12.2,22,11.3,20.9,11.3"/>
		</g>
	</g>
</g>
</svg>
