<?xml version="1.0" encoding="utf-8"?>
<!-- Generator: Adobe Illustrator 26.0.1, SVG Export Plug-In . SVG Version: 6.00 Build 0)  -->
<svg version="1.1" id="Layer_1" xmlns="http://www.w3.org/2000/svg" xmlns:xlink="http://www.w3.org/1999/xlink" x="0px" y="0px"
	 width="93px" height="64px" viewBox="0 0 93 64" style="enable-background:new 0 0 93 64;" xml:space="preserve">
<style type="text/css">
	.st0{fill:#FFFFFF;}
	.st1{fill:#4A4949;}
</style>
<g>
	<path class="st0" d="M48.7,32.5c-0.4,0-0.7,0-1,0c-6.1,0-12.3,0-18.4,0c-1.8,0-3.4-0.4-4.8-1.5c-2-1.6-2.9-3.6-2.9-6.1
		c0-5.6,0-11.3,0-16.9c0-0.3,0-0.6,0-1c-1.3,0-2.6,0-3.8,0c-1.9,0-3-1.7-2.2-3.5c0.4-0.8,1.1-1.2,2-1.3c0.4,0,0.8,0,1.3,0
		c6.4,0,12.7,0,19.1,0c1.7,0,3.3,0.4,4.6,1.4c2,1.5,2.9,3.5,2.9,6.1c0,5.7,0,11.4,0,17.1c0,0.3,0,0.6,0,1c0.4,0,0.6,0,0.9,0
		c6.2,0,12.5,0,18.7,0c3.6,0,6.3,2.1,7.2,5.5c0.2,0.7,0.2,1.5,0.2,2.2c0,6.1,0,12.3,0,18.4c0,0.3,0,0.6,0,0.9c1.4,0,2.7,0,3.9,0
		c1.8,0,2.9,1.8,2.1,3.4c-0.5,1-1.3,1.3-2.3,1.3c-3.5,0-7,0-10.5,0c-3.2,0-6.4,0-9.6,0c-3,0-5.4-1.3-6.7-4.1
		c-0.5-1.1-0.7-2.3-0.7-3.5c0-4.2,0-8.4,0-12.6c0-2,0-4,0-6.1C48.7,33.1,48.7,32.9,48.7,32.5z"/>
</g>
</svg>
