<?xml version="1.0" encoding="UTF-8"?>
<svg xmlns="http://www.w3.org/2000/svg" xmlns:xlink="http://www.w3.org/1999/xlink" width="24px" height="24px" viewBox="0 0 24 24" version="1.1">
<g id="surface1">
<path style=" stroke:none;fill-rule:nonzero;fill:rgb(70.196078%,60.392157%,19.215686%);fill-opacity:1;" d="M 23.648438 14.90625 C 22.042969 21.335938 15.53125 25.25 9.101562 23.648438 C 2.671875 22.042969 -1.242188 15.53125 0.359375 9.101562 C 1.960938 2.671875 8.472656 -1.242188 14.90625 0.359375 C 21.335938 1.964844 25.25 8.476562 23.648438 14.90625 Z M 23.648438 14.90625 "/>
<path style=" stroke:none;fill-rule:nonzero;fill:rgb(100%,100%,100%);fill-opacity:1;" d="M 12.003906 4.804688 L 10.683594 5.5625 L 7.085938 7.644531 L 5.765625 8.402344 L 5.765625 15.605469 L 7.085938 16.363281 L 10.71875 18.445312 L 12.039062 19.203125 L 13.359375 18.445312 L 16.925781 16.363281 L 18.246094 15.605469 L 18.246094 8.402344 L 16.925781 7.644531 L 13.324219 5.5625 Z M 8.40625 14.085938 L 8.40625 9.921875 L 12.003906 7.84375 L 15.605469 9.921875 L 15.605469 14.085938 L 12.003906 16.164062 Z M 8.40625 14.085938 "/>
</g>
</svg>
