<svg id="Layer_1" data-name="Layer 1" xmlns="http://www.w3.org/2000/svg" width="40" height="40" viewBox="0 0 40 40"><rect id="Rectangle_179" data-name="Rectangle 179" x="0.011" y="0.006" width="40" height="40" fill="none"/><path id="Path_1467" data-name="Path 1467" d="M39.411,24.842A20,20,0,1,1,24.842.6l.005,0A20,20,0,0,1,39.411,24.842Z" fill="#b39a31"/><g id="ic_link" data-name="ic link"><rect id="Rectangle_182" data-name="Rectangle 182" x="8.011" y="8.006" width="24" height="24" fill="none"/><g id="Layer_2" data-name="Layer 2"><g id="Layer_1-2" data-name="Layer 1"><path id="Path_1469" data-name="Path 1469" d="M20.008,8.006l-2.2,1.266-6,3.468-2.2,1.266v12l2.2,1.266,6.055,3.468,2.2,1.266,2.2-1.266,5.945-3.468,2.2-1.266v-12l-2.2-1.266-6-3.468Zm-6,15.468V16.538l6-3.468,6,3.468v6.936l-6,3.468Z" fill="#fff"/></g></g></g></svg>