<?xml version="1.0" encoding="UTF-8"?>
<svg xmlns="http://www.w3.org/2000/svg" xmlns:xlink="http://www.w3.org/1999/xlink" width="18px" height="16px" viewBox="0 0 17 16" version="1.1">
<g id="surface1">
<path style=" stroke:none;fill-rule:nonzero;fill:rgb(50.980392%,27.843137%,89.803922%);fill-opacity:1;" d="M 12.839844 4.949219 C 12.527344 4.761719 12.128906 4.761719 11.777344 4.949219 L 9.296875 6.488281 L 7.613281 7.464844 L 5.179688 9 C 4.871094 9.1875 4.472656 9.1875 4.117188 9 L 2.214844 7.789062 C 1.902344 7.605469 1.683594 7.230469 1.683594 6.8125 L 1.683594 4.484375 C 1.683594 4.113281 1.859375 3.738281 2.214844 3.507812 L 4.117188 2.34375 C 4.425781 2.15625 4.824219 2.15625 5.179688 2.34375 L 7.082031 3.550781 C 7.394531 3.738281 7.613281 4.113281 7.613281 4.53125 L 7.613281 6.066406 L 9.296875 5.042969 L 9.296875 3.460938 C 9.296875 3.085938 9.121094 2.714844 8.765625 2.480469 L 5.222656 0.292969 C 4.914062 0.105469 4.515625 0.105469 4.160156 0.292969 L 0.53125 2.527344 C 0.175781 2.714844 0 3.085938 0 3.460938 L 0 7.835938 C 0 8.210938 0.175781 8.582031 0.53125 8.816406 L 4.117188 11.003906 C 4.425781 11.191406 4.824219 11.191406 5.179688 11.003906 L 7.613281 9.511719 L 9.296875 8.488281 L 11.730469 7 C 12.042969 6.8125 12.441406 6.8125 12.792969 7 L 14.699219 8.164062 C 15.007812 8.347656 15.230469 8.722656 15.230469 9.140625 L 15.230469 11.46875 C 15.230469 11.84375 15.050781 12.214844 14.699219 12.449219 L 12.839844 13.613281 C 12.527344 13.796875 12.128906 13.796875 11.777344 13.613281 L 9.871094 12.449219 C 9.5625 12.261719 9.339844 11.886719 9.339844 11.46875 L 9.339844 9.980469 L 7.660156 11.003906 L 7.660156 12.539062 C 7.660156 12.914062 7.835938 13.285156 8.191406 13.519531 L 11.777344 15.707031 C 12.085938 15.894531 12.484375 15.894531 12.839844 15.707031 L 16.425781 13.519531 C 16.734375 13.332031 16.957031 12.960938 16.957031 12.539062 L 16.957031 8.117188 C 16.957031 7.742188 16.777344 7.371094 16.425781 7.136719 Z M 12.839844 4.949219 "/>
</g>
</svg>
