<?xml version="1.0" encoding="utf-8"?>
<!-- Generator: Adobe Illustrator 26.0.1, SVG Export Plug-In . SVG Version: 6.00 Build 0)  -->
<svg version="1.1" id="Layer_1" xmlns="http://www.w3.org/2000/svg" xmlns:xlink="http://www.w3.org/1999/xlink" x="0px" y="0px"
	 width="24px" height="24px" viewBox="0 0 24 24" style="enable-background:new 0 0 24 24;" xml:space="preserve">
<style type="text/css">
	.st0{fill:#FFFFFF;}
	.st1{fill:none;}
</style>
<g id="ic_medium" transform="translate(-842 -2956.297)">
	<rect id="bg_00000133501168167613711060000015637322526092335264_" x="840.7" y="2954.6" class="st1" width="26.8" height="26.8"/>
	<path id="ic_medium_" class="st0" d="M849,2961.6c-3.7,0-6.6,3-6.6,6.7c0,3.7,2.9,6.7,6.6,6.7c3.7,0,6.6-3,6.6-6.7
		C855.6,2964.6,852.7,2961.7,849,2961.6z M859.6,2962c-1.8,0-3.3,2.8-3.3,6.3s1.5,6.3,3.3,6.3c1.8,0,3.3-2.8,3.3-6.3l0,0
		C862.9,2964.8,861.4,2962,859.6,2962L859.6,2962z M864.7,2962.7c-0.6,0-1.2,2.5-1.2,5.6s0.5,5.6,1.2,5.6s1.2-2.5,1.2-5.6
		S865.3,2962.7,864.7,2962.7L864.7,2962.7z" />
</g>
</svg>
