<svg id="Layer_1" data-name="Layer 1" xmlns="http://www.w3.org/2000/svg" width="16" height="16" viewBox="0 0 16 16"><rect id="base" width="16" height="16" fill="none"/><g id="metamask_hover" data-name="metamask hover"><path id="Path_1494" data-name="Path 1494" d="M5.062,13.188l1.752.465v-.608l.143-.143h1v1.216H6.886l-1.323-.572Z" fill="#cdbdb2"/><path id="Path_1495" data-name="Path 1495" d="M10.784,13.188l-1.716.465v-.608L8.925,12.9h-1v1.216H9l1.323-.572Z" fill="#cdbdb2"/><path id="Path_1497" data-name="Path 1497" d="M5.992,3.891l.858,2,.393,5.829H8.638l.429-5.829.787-2Z" fill="#b39a31"/><path id="Path_1498" data-name="Path 1498" d="M2.237,8.289l-1,2.9,2.5-.143H5.348V9.791L5.273,7.216,4.915,7.5Z" fill="#b39a31"/><path id="Path_1499" data-name="Path 1499" d="M4.133,8.611l2.932.072-.322,1.5-1.4-.358Z" fill="#b39a31"/><path id="Path_1500" data-name="Path 1500" d="M4.133,8.647,5.349,9.791v1.143Z" fill="#b39a31"/><path id="Path_1501" data-name="Path 1501" d="M5.348,9.827l1.43.358.465,1.538-.322.179-1.573-.93Z" fill="#b39a31"/><path id="Path_1502" data-name="Path 1502" d="M5.348,10.971l-.286,2.217,1.9-1.323Z" fill="#87731f"/><path id="Path_1503" data-name="Path 1503" d="M7.065,8.683l.179,3.04-.536-1.556Z" fill="#b39a31"/><path id="Path_1504" data-name="Path 1504" d="M3.7,11.007l1.645-.036-.286,2.217Z" fill="#b39a31"/><path id="Path_1505" data-name="Path 1505" d="M2.023,14.154l3.04-.966L3.7,11.007l-2.467.179Z" fill="#b39a31"/><path id="Path_1506" data-name="Path 1506" d="M6.851,5.893,5.313,7.18,4.133,8.61l2.932.107Z" fill="#87731f"/><path id="Path_1507" data-name="Path 1507" d="M5.062,13.188l1.9-1.323-.143,1.144v.644L5.532,13.4Z" fill="#dfcec3"/><path id="Path_1508" data-name="Path 1508" d="M10.784,13.188l-1.86-1.323.144,1.144v.644l1.287-.25Z" fill="#dfcec3"/><path id="Path_1509" data-name="Path 1509" d="M6.278,9.326l.393.823-1.4-.358Z" fill="#393939"/><path id="Path_1510" data-name="Path 1510" d="M1.987,2.21,6.85,5.893l-.822-2Z" fill="#b39a31"/><path id="Path_1511" data-name="Path 1511" d="M1.987,2.211,1.343,4.177,1.7,6.323l-.25.143.358.322-.286.25.393.358-.25.215.572.715L4.92,7.5a23.377,23.377,0,0,0,1.93-1.61Q6.814,5.858,1.987,2.211Z" fill="#726015"/><g id="Group_123" data-name="Group 123"><path id="Path_1512" data-name="Path 1512" d="M13.61,8.286l1,2.9-2.5-.143H10.5V9.791l.071-2.574.358.286Z" fill="#b39a31"/><path id="Path_1513" data-name="Path 1513" d="M11.713,8.612l-2.932.073.322,1.5L10.5,9.827Z" fill="#b39a31"/><path id="Path_1514" data-name="Path 1514" d="M11.713,8.647,10.5,9.792v1.144Z" fill="#b39a31"/><path id="Path_1515" data-name="Path 1515" d="M10.5,9.827l-1.43.358L8.6,11.722l.327.179,1.573-.93Z" fill="#b39a31"/><path id="Path_1516" data-name="Path 1516" d="M10.5,10.971l.286,2.217L8.924,11.9Z" fill="#87731f"/><path id="Path_1517" data-name="Path 1517" d="M8.781,8.682,8.6,11.722l.536-1.556Z" fill="#b39a31"/><path id="Path_1518" data-name="Path 1518" d="M12.143,11.007,10.5,10.971l.286,2.217Z" fill="#b39a31"/><path id="Path_1519" data-name="Path 1519" d="M13.823,14.154l-3.04-.966,1.36-2.181,2.467.179Z" fill="#b39a31"/><path id="Path_1520" data-name="Path 1520" d="M8.995,5.894l1.538,1.287,1.18,1.431-2.932.107Z" fill="#87731f"/><path id="Path_1521" data-name="Path 1521" d="M9.568,9.326l-.393.823,1.395-.358Z" fill="#393939"/><path id="Path_1522" data-name="Path 1522" d="M13.859,2.21,9,5.893l.822-2Z" fill="#b39a31"/><path id="Path_1523" data-name="Path 1523" d="M13.859,2.21,14.5,4.177l-.358,2.148.251.14-.358.322.286.25-.393.358.25.215-.572.715L10.927,7.5A23.392,23.392,0,0,1,9,5.893Q9.032,5.859,13.859,2.21Z" fill="#726015"/></g></g></svg>