<?xml version="1.0" encoding="UTF-8"?>
<svg xmlns="http://www.w3.org/2000/svg" xmlns:xlink="http://www.w3.org/1999/xlink" width="24px" height="24px" viewBox="0 0 24 24" version="1.1">
<g id="surface1">
<path style=" stroke:none;fill-rule:nonzero;fill:rgb(50.980392%,27.843137%,89.803922%);fill-opacity:1;" d="M 24 12 C 24 18.628906 18.628906 24 12 24 C 5.371094 24 0 18.628906 0 12 C 0 5.371094 5.371094 0 12 0 C 18.628906 0 24 5.371094 24 12 Z M 24 12 "/>
<path style=" stroke:none;fill-rule:nonzero;fill:rgb(100%,100%,100%);fill-opacity:1;" d="M 15.972656 9.433594 C 15.683594 9.265625 15.308594 9.265625 14.992188 9.433594 L 12.75 10.714844 L 11.222656 11.554688 L 8.976562 12.835938 C 8.691406 13.003906 8.316406 13.003906 8 12.835938 L 6.214844 11.832031 C 5.925781 11.664062 5.726562 11.359375 5.726562 11.023438 L 5.726562 9.042969 C 5.726562 8.707031 5.898438 8.398438 6.214844 8.234375 L 7.96875 7.253906 C 8.257812 7.089844 8.632812 7.089844 8.949219 7.253906 L 10.703125 8.234375 C 10.992188 8.398438 11.195312 8.707031 11.195312 9.042969 L 11.195312 10.324219 L 12.71875 9.460938 L 12.71875 8.175781 C 12.71875 7.84375 12.546875 7.535156 12.230469 7.367188 L 8.976562 5.527344 C 8.691406 5.359375 8.316406 5.359375 8 5.527344 L 4.6875 7.367188 C 4.371094 7.535156 4.199219 7.84375 4.199219 8.175781 L 4.199219 11.886719 C 4.199219 12.222656 4.371094 12.53125 4.6875 12.699219 L 8 14.539062 C 8.285156 14.707031 8.660156 14.707031 8.976562 14.539062 L 11.222656 13.285156 L 12.75 12.417969 L 14.992188 11.164062 C 15.28125 10.996094 15.65625 10.996094 15.972656 11.164062 L 17.726562 12.140625 C 18.015625 12.308594 18.21875 12.613281 18.21875 12.949219 L 18.21875 14.929688 C 18.21875 15.265625 18.042969 15.570312 17.726562 15.738281 L 15.972656 16.746094 C 15.683594 16.910156 15.308594 16.910156 14.992188 16.746094 L 13.238281 15.765625 C 12.949219 15.601562 12.75 15.292969 12.75 14.957031 L 12.75 13.675781 L 11.222656 14.539062 L 11.222656 15.824219 C 11.222656 16.15625 11.394531 16.464844 11.710938 16.632812 L 15.023438 18.472656 C 15.308594 18.640625 15.683594 18.640625 16 18.472656 L 19.3125 16.632812 C 19.597656 16.464844 19.800781 16.15625 19.800781 15.824219 L 19.800781 12.113281 C 19.800781 11.777344 19.628906 11.46875 19.3125 11.300781 Z M 15.972656 9.433594 "/>
</g>
</svg>
