<svg width="18" height="16" viewBox="0 0 18 16" fill="none" xmlns="http://www.w3.org/2000/svg">
<path d="M18 8C18 12.4188 13.9711 16 9 16C4.02891 16 0 12.4188 0 8C0 3.58125 4.02891 0 9 0C13.9711 0 18 3.58125 18 8Z" fill="#B39A31"/>
<path d="M11.9794 6.28916C11.7632 6.17666 11.4819 6.17666 11.2446 6.28916L9.56064 7.14385L8.41631 7.70166L6.73408 8.55791C6.51787 8.67041 6.23662 8.67041 5.99932 8.55791L4.66162 7.88916C4.44541 7.77666 4.29424 7.57197 4.29424 7.34853V6.02822C4.29424 5.80478 4.42432 5.6001 4.66162 5.48916L5.97822 4.8376C6.19443 4.7251 6.47393 4.7251 6.71123 4.8376L8.02783 5.48916C8.24404 5.6001 8.39521 5.80478 8.39521 6.02822V6.88447L9.53955 6.30635V5.45166C9.53955 5.22822 9.40947 5.02353 9.17217 4.91103L6.73408 3.68447C6.51787 3.57197 6.23662 3.57197 5.99932 3.68447L3.51728 4.91103C3.27998 5.02353 3.1499 5.22822 3.1499 5.45166V7.9251C3.1499 8.14853 3.27998 8.35322 3.51728 8.46572L5.99932 9.69385C6.21553 9.80478 6.49502 9.80478 6.73408 9.69385L8.41631 8.85635L9.56064 8.27978L11.2446 7.44228C11.4608 7.32978 11.7421 7.32978 11.9794 7.44228L13.296 8.09385C13.5122 8.20478 13.6634 8.40947 13.6634 8.63291V9.95322C13.6634 10.1767 13.5333 10.3813 13.296 10.4938L11.9794 11.1626C11.7632 11.2751 11.4819 11.2751 11.2446 11.1626L9.92803 10.511C9.71182 10.4001 9.56064 10.1954 9.56064 9.97197V9.11572L8.41631 9.69385V10.5485C8.41631 10.772 8.54639 10.9767 8.78369 11.0892L11.2657 12.3157C11.4819 12.4282 11.7632 12.4282 12.0005 12.3157L14.4825 11.0892C14.6987 10.9767 14.8499 10.772 14.8499 10.5485V8.0751C14.8499 7.85166 14.7198 7.64697 14.4825 7.53447L11.9794 6.28916Z" fill="white"/>
</svg>
