<svg width="40" height="40" viewBox="0 0 40 40" fill="none" xmlns="http://www.w3.org/2000/svg">
<path d="M40 20C40 31.0469 31.0469 40 20 40C8.95312 40 0 31.0469 0 20C0 8.95312 8.95312 0 20 0C31.0469 0 40 8.95312 40 20Z" fill="#B39A31"/>
<path d="M26.6211 15.7227C26.1406 15.4414 25.5156 15.4414 24.9883 15.7227L21.2461 17.8594L18.7031 19.2539L14.9648 21.3945C14.4844 21.6758 13.8594 21.6758 13.332 21.3945L10.3594 19.7227C9.87891 19.4414 9.54297 18.9297 9.54297 18.3711V15.0703C9.54297 14.5117 9.83203 14 10.3594 13.7227L13.2852 12.0937C13.7656 11.8125 14.3867 11.8125 14.9141 12.0937L17.8398 13.7227C18.3203 14 18.6562 14.5117 18.6562 15.0703V17.2109L21.1992 15.7656V13.6289C21.1992 13.0703 20.9102 12.5586 20.3828 12.2773L14.9648 9.21094C14.4844 8.92969 13.8594 8.92969 13.332 9.21094L7.81641 12.2773C7.28906 12.5586 7 13.0703 7 13.6289V19.8125C7 20.3711 7.28906 20.8828 7.81641 21.1641L13.332 24.2344C13.8125 24.5117 14.4336 24.5117 14.9648 24.2344L18.7031 22.1406L21.2461 20.6992L24.9883 18.6055C25.4688 18.3242 26.0937 18.3242 26.6211 18.6055L29.5469 20.2344C30.0273 20.5117 30.3633 21.0234 30.3633 21.582V24.8828C30.3633 25.4414 30.0742 25.9531 29.5469 26.2344L26.6211 27.9062C26.1406 28.1875 25.5156 28.1875 24.9883 27.9062L22.0625 26.2773C21.582 26 21.2461 25.4883 21.2461 24.9297V22.7891L18.7031 24.2344V26.3711C18.7031 26.9297 18.9922 27.4414 19.5195 27.7227L25.0352 30.7891C25.5156 31.0703 26.1406 31.0703 26.668 30.7891L32.1836 27.7227C32.6641 27.4414 33 26.9297 33 26.3711V20.1875C33 19.6289 32.7109 19.1172 32.1836 18.8359L26.6211 15.7227Z" fill="white"/>
</svg>
