<?xml version="1.0" encoding="UTF-8"?>
<svg xmlns="http://www.w3.org/2000/svg" xmlns:xlink="http://www.w3.org/1999/xlink" width="16px" height="16px" viewBox="0 0 16 16" version="1.1">
<g id="surface1">
<path style=" stroke:none;fill-rule:nonzero;fill:rgb(70.196078%,60.392157%,19.215686%);fill-opacity:1;" d="M 16 8.320312 L 16 12.457031 C 16 12.714844 15.9375 12.96875 15.828125 13.191406 C 15.714844 13.414062 15.554688 13.601562 15.359375 13.734375 L 12.234375 15.796875 C 12.042969 15.929688 11.820312 16 11.59375 16 C 11.371094 16 11.148438 15.929688 10.953125 15.796875 L 7.828125 13.734375 C 7.636719 13.601562 7.476562 13.414062 7.363281 13.191406 C 7.25 12.96875 7.191406 12.714844 7.191406 12.457031 L 7.191406 11.296875 L 8.789062 10.230469 L 8.789062 12.25 L 11.589844 14.113281 L 14.390625 12.25 L 14.390625 8.53125 L 11.589844 6.667969 L 5.03125 11.023438 C 4.835938 11.152344 4.613281 11.21875 4.390625 11.21875 C 4.164062 11.21875 3.945312 11.152344 3.75 11.023438 L 0.625 8.953125 C 0.433594 8.820312 0.277344 8.632812 0.167969 8.410156 C 0.0585938 8.1875 0 7.933594 0 7.679688 L 0 3.539062 C 0 3.28125 0.0625 3.027344 0.171875 2.804688 C 0.285156 2.582031 0.445312 2.394531 0.640625 2.265625 L 3.765625 0.199219 C 3.957031 0.0703125 4.179688 0 4.40625 0 C 4.628906 0 4.851562 0.0703125 5.046875 0.199219 L 8.171875 2.265625 C 8.363281 2.394531 8.523438 2.582031 8.636719 2.804688 C 8.75 3.027344 8.808594 3.28125 8.808594 3.539062 L 8.808594 4.703125 L 7.199219 5.757812 L 7.199219 3.753906 L 4.398438 1.890625 L 1.601562 3.753906 L 1.601562 7.46875 L 4.398438 9.332031 L 10.960938 4.972656 C 11.15625 4.847656 11.375 4.78125 11.601562 4.78125 C 11.824219 4.78125 12.042969 4.847656 12.238281 4.972656 L 15.363281 7.046875 C 15.558594 7.175781 15.71875 7.363281 15.828125 7.585938 C 15.941406 7.808594 16 8.0625 16 8.320312 Z M 16 8.320312 "/>
</g>
</svg>
