<svg xmlns="http://www.w3.org/2000/svg" viewBox="0 0 24 20.938" style="enable-background:new 0 0 38.4 33.5" xml:space="preserve" width="24" height="20.938"><path d="M18.125 6.375c-0.438 -0.25 -1 -0.25 -1.5 0L13.125 8.438l-2.375 1.313 -3.438 2.063c-0.438 0.25 -1 0.25 -1.5 0L3.125 10.188c-0.438 -0.25 -0.75 -0.75 -0.75 -1.313v-3.125c0 -0.5 0.25 -1 0.75 -1.313l2.688 -1.563c0.438 -0.25 1 -0.25 1.5 0L10 4.5c0.438 0.25 0.75 0.75 0.75 1.313v2.063l2.375 -1.375V4.375c0 -0.5 -0.25 -1 -0.75 -1.313l-5 -2.938c-0.438 -0.25 -1 -0.25 -1.5 0L0.75 3.125C0.25 3.375 0 3.875 0 4.375v5.875c0 0.5 0.25 1 0.75 1.313l5.063 2.938c0.438 0.25 1 0.25 1.5 0l3.438 -2 2.375 -1.375 3.438 -2c0.438 -0.25 1 -0.25 1.5 0l2.688 1.563c0.438 0.25 0.75 0.75 0.75 1.313v3.125c0 0.5 -0.25 1 -0.75 1.313L18.125 18c-0.438 0.25 -1 0.25 -1.5 0l-2.688 -1.563c-0.438 -0.25 -0.75 -0.75 -0.75 -1.313V13.125l-2.375 1.375v2.063c0 0.5 0.25 1 0.75 1.313l5.063 2.938c0.438 0.25 1 0.25 1.5 0l5.063 -2.938c0.438 -0.25 0.75 -0.75 0.75 -1.313V10.625c0 -0.5 -0.25 -1 -0.75 -1.313L18.125 6.375z" style="fill:#b39a31"/></svg>