<svg width="32" height="32" viewBox="0 0 32 32" fill="none" xmlns="http://www.w3.org/2000/svg">
<path d="M32 16.6402V24.9151C31.9974 25.431 31.8781 25.9375 31.6537 26.3847C31.4293 26.832 31.1076 27.2049 30.72 27.4668L24.47 31.5957C24.0829 31.8603 23.6407 32 23.19 32C22.7394 32 22.2971 31.8603 21.91 31.5957L15.66 27.4668C15.2723 27.2049 14.9506 26.832 14.7262 26.3847C14.5019 25.9375 14.3826 25.431 14.38 24.9151V22.5926L17.58 20.4622V24.4993L23.18 28.2267L28.78 24.4993V17.0616L23.18 13.3343L10.06 22.0507C9.66931 22.3031 9.22847 22.4358 8.77998 22.4358C8.33156 22.4358 7.89072 22.3031 7.50001 22.0507L1.24999 17.9046C0.868318 17.6387 0.552796 17.2645 0.333805 16.8179C0.114881 16.3715 -6.64529e-05 15.8679 2.88218e-08 15.3557V7.08081C0.00259282 6.56477 0.121927 6.05841 0.346303 5.61107C0.570613 5.1638 0.892384 4.79095 1.27997 4.52896L7.52999 0.400147C7.91791 0.13816 8.35982 0 8.80996 0C9.26018 0 9.70208 0.13816 10.09 0.400147L16.34 4.52896C16.7276 4.79095 17.0494 5.1638 17.2737 5.61107C17.4981 6.05841 17.6174 6.56477 17.62 7.08081V9.40324L14.4 11.5193V7.50513L8.79999 3.77777L3.19997 7.50513V14.9342L8.79999 18.6616L21.92 9.94521C22.3107 9.69268 22.7515 9.56008 23.2 9.56008C23.6484 9.56008 24.0893 9.69268 24.48 9.94521L30.73 14.0912C31.1154 14.3544 31.4349 14.7274 31.6574 15.174C31.88 15.6207 31.998 16.1258 32 16.6402Z" fill="#B39A31"/>
</svg>
