<?xml version="1.0" encoding="utf-8"?>
<!-- Generator: Adobe Illustrator 26.0.1, SVG Export Plug-In . SVG Version: 6.00 Build 0)  -->
<svg version="1.1" id="Layer_1" xmlns="http://www.w3.org/2000/svg" xmlns:xlink="http://www.w3.org/1999/xlink" x="0px" y="0px"
	 width="93px" height="64px" viewBox="0 0 93 64" style="enable-background:new 0 0 93 64;" xml:space="preserve">
<style type="text/css">
	.st0{fill:#FFFFFF;}
	.st1{fill:#4A4949;}
</style>
<g>
	<path class="st0" d="M52.6,22.9C57.9,17.7,63,12.5,68.2,7.3c-0.2,0-0.3-0.1-0.5-0.1c-1.4,0-2.9,0-4.3,0c-1.6,0-3-1.4-3-3
		c0-1.6,1.3-3,2.9-3c4.2,0,8.4,0,12.6,0c1.6,0,2.9,1.3,2.9,2.9c0,4.2,0,8.4,0,12.6c0,1.6-1.4,3-3,3c-1.6,0-3-1.3-3-3
		c0-1.6,0-3.2,0-5c-0.3,0.3-0.5,0.5-0.7,0.7c-5.6,5.6-11.2,11.2-16.8,16.8c-0.6,0.6-1.3,1.2-2.3,1.3c-1.1,0.1-1.9-0.4-2.7-1.1
		c-2.6-2.6-5.2-5.2-7.8-7.8c-0.2-0.2-0.3-0.4-0.6-0.9c-0.3,0.4-0.4,0.7-0.6,0.9C36.1,26.7,31,31.8,25.9,37c-1.3,1.3-2.8,1.5-4.2,0.5
		c-1.3-1-1.7-2.9-0.7-4.2c0.2-0.3,0.4-0.5,0.7-0.8c5.9-5.9,11.8-11.8,17.7-17.7c1.7-1.7,3.4-1.7,5.1,0c2.5,2.5,5.1,5.1,7.6,7.6
		C52.3,22.6,52.5,22.8,52.6,22.9z"/>
	<path class="st0" d="M66.6,44.3c0-5,0-10.1,0-15.1c0-1.7,0.7-2.7,2.1-3.2c1.7-0.6,3.6,0.4,3.9,2.2c0.1,0.4,0.1,0.8,0.1,1.1
		c0,10,0,19.9,0,29.9c0,1.1-0.3,2.1-1.2,2.8c-1.8,1.4-4.4,0.5-4.9-1.7c-0.1-0.4-0.1-0.8-0.1-1.2C66.6,54.2,66.6,49.3,66.6,44.3z"/>
	<path class="st0" d="M41.9,48.9c0,3.6,0,7.3,0,10.9c0,1.4-1.2,2.8-2.5,3c-1.6,0.2-3-0.7-3.5-2.2c-0.1-0.2-0.1-0.5-0.1-0.8
		c0-7.2,0-14.5,0-21.7c0-1.6,1.1-2.7,2.7-3c1.4-0.2,2.8,0.7,3.3,2.2c0.1,0.4,0.1,0.8,0.1,1.2C41.9,42,41.9,45.4,41.9,48.9
		C41.9,48.9,41.9,48.9,41.9,48.9z"/>
	<path class="st0" d="M57.3,52c0,2.5,0,5.1,0,7.6c0,2.3-2.1,3.8-4.1,3c-1.3-0.5-2-1.6-2-3c0-5.1,0-10.1,0-15.2c0-1.5,0.9-2.7,2.1-3
		c1.4-0.4,2.8,0,3.5,1.2c0.4,0.6,0.5,1.3,0.6,2C57.3,47.1,57.3,49.5,57.3,52z"/>
	<path class="st0" d="M20.4,55c0-1.5,0-3,0-4.5c0.1-2.5,2.6-4,4.6-2.7c1,0.6,1.5,1.6,1.5,2.8c0,3,0,5.9,0,8.9c0,1.6-0.9,2.7-2.2,3.1
		c-1.3,0.4-2.7-0.1-3.4-1.3c-0.3-0.5-0.5-1.3-0.5-1.9C20.3,58,20.4,56.5,20.4,55z"/>
</g>
</svg>
