<?xml version="1.0" encoding="utf-8"?>
<!-- Generator: Adobe Illustrator 26.0.1, SVG Export Plug-In . SVG Version: 6.00 Build 0)  -->
<svg version="1.1" id="Layer_1" xmlns="http://www.w3.org/2000/svg" xmlns:xlink="http://www.w3.org/1999/xlink" x="0px" y="0px"
	 width="93px" height="64px" viewBox="0 0 93 64" style="enable-background:new 0 0 93 64;" xml:space="preserve">
<style type="text/css">
	.st0{fill:#FFFFFF;}
	.st1{fill:#4A4949;}
</style>
<g>
	<path class="st0" d="M80.3,47.6c0,2.8,0,5.6,0,8.4c0,3.3-2,5.9-5.1,6.7c-0.6,0.2-1.3,0.2-1.9,0.2c-5.5,0-11,0-16.5,0
		c-3.5,0-6-1.9-6.9-5.3c-0.2-0.6-0.2-1.2-0.2-1.9c0-5.5,0-10.9,0-16.4c0-2.4,0.8-4.4,2.8-5.8c1.3-1,2.8-1.4,4.3-1.4
		c5.5,0,11,0,16.5,0c4.2,0,7.1,3,7.1,7.2C80.4,42.2,80.3,44.9,80.3,47.6z"/>
	<path class="st0" d="M18.8,13.7c0-1.7,0-3.4,0-5.1c0-4.2,2.9-7.1,7.1-7.1c3.4,0,6.9,0,10.3,0c4.2,0,7.1,2.9,7.1,7.1
		c0,3.5,0,6.9,0,10.4c0,4.2-2.9,7.1-7.1,7.1c-3.5,0-6.9,0-10.4,0c-4.1,0-7-2.9-7.1-7C18.8,17.2,18.8,15.5,18.8,13.7z"/>
	<path class="st0" d="M46.5,49.1c0,1.6,0,3,0,4.5c-0.2,0-0.3,0.1-0.4,0.1c-3.7,0-7.3,0-11,0c-2.9,0-5.1-1.3-6.3-4
		c-0.3-0.6-0.6-1.4-0.6-2.1c0-6.1,0-12.3,0-18.5c1.5,0,3,0,4.5,0c0,0.3,0,0.5,0,0.8c0,5.4,0,10.9,0,16.3c0,2,0.8,2.8,2.8,2.8
		c3.4,0,6.8,0,10.2,0C45.9,49.1,46.2,49.1,46.5,49.1z"/>
	<path class="st0" d="M71.1,29.1c-1.6,0-3,0-4.6,0c0-0.3,0-0.5,0-0.8c0-3.4,0-6.9,0-10.3c0-1.8-0.8-2.7-2.7-2.7
		c-5.4,0-10.9,0-16.3,0c-0.3,0-0.6,0-0.9,0c0-1.5,0-3,0-4.6c0.2,0,0.5,0,0.7,0c5.5,0,11,0.1,16.5,0c4.2-0.1,7.4,3.1,7.3,7.3
		c0,3.5,0,6.9,0,10.4C71.1,28.6,71.1,28.8,71.1,29.1z"/>
</g>
</svg>
