<?xml version="1.0" encoding="utf-8"?>
<!-- Generator: Adobe Illustrator 26.0.1, SVG Export Plug-In . SVG Version: 6.00 Build 0)  -->
<svg version="1.1" id="Layer_1" xmlns="http://www.w3.org/2000/svg" xmlns:xlink="http://www.w3.org/1999/xlink" x="0px" y="0px"
	 width="93px" height="64px" viewBox="0 0 93 64" style="enable-background:new 0 0 93 64;" xml:space="preserve">
<style type="text/css">
	.st0{fill:#FFFFFF;}
	.st1{fill:#4A4949;}
</style>
<g>
	<path class="st0" d="M71.4,24.6c0,2.9-0.7,5.6-1.8,8.1c-2.2,5.1-5.4,9.5-9.3,13.4c-3.3,3.3-6.9,6-11.1,8.1
		c-3.2,1.6-6.5,2.7-10.1,2.7c-3,0-5.6-1-7.7-3.2c-2.3-2.4-4.6-4.8-7-7.1c-2.1-2-2.9-4.5-2.7-7.3c0.2-3.7,1.5-7.1,3.3-10.3
		C29.6,20.9,36,14.5,44.3,10c3-1.6,6.2-2.8,9.7-2.9c2.6-0.1,5,0.6,7,2.5c2.5,2.6,5.1,5.2,7.7,7.7C70.6,19.4,71.4,21.9,71.4,24.6z
		 M60.3,19.3c-0.1-0.8-0.5-1.5-1.2-1.8c-0.7-0.3-1.4-0.2-2,0.4c-0.3,0.4-0.5,0.8-0.6,1.3c-1.2,4.7-3.4,8.9-6.6,12.5
		c-3.6,4.1-7.9,7.2-13,9.2c-1.2,0.5-2.5,0.8-3.7,1.3c-0.9,0.3-1.4,1-1.3,1.9c0,0.8,0.6,1.5,1.5,1.6c0.4,0.1,0.9,0,1.2-0.1
		c3.1-0.9,6.1-2.2,8.9-3.8c7.4-4.4,12.7-10.6,15.8-18.8C59.7,21.8,60,20.5,60.3,19.3z"/>
	<path class="st1" d="M60.3,19.3c-0.4,1.2-0.7,2.5-1.1,3.7c-3,8.1-8.4,14.3-15.8,18.8c-2.8,1.7-5.8,3-8.9,3.8
		c-0.4,0.1-0.8,0.1-1.2,0.1c-0.9-0.2-1.5-0.8-1.5-1.6c0-0.9,0.5-1.6,1.3-1.9c1.2-0.4,2.5-0.8,3.7-1.3c5.1-2,9.4-5.1,13-9.2
		c3.2-3.6,5.4-7.8,6.6-12.5c0.1-0.4,0.3-0.9,0.6-1.3c0.5-0.6,1.2-0.7,2-0.4C59.8,17.8,60.3,18.4,60.3,19.3z"/>
</g>
</svg>
