<?xml version="1.0" encoding="UTF-8"?>
<svg xmlns="http://www.w3.org/2000/svg" xmlns:xlink="http://www.w3.org/1999/xlink" width="24px" height="24px" viewBox="0 0 24 24" version="1.1">
<g id="surface1">
<path style=" stroke:none;fill-rule:nonzero;fill:rgb(70.196078%,60.392157%,19.215686%);fill-opacity:1;" d="M 23.648438 14.90625 C 22.042969 21.335938 15.53125 25.25 9.101562 23.648438 C 2.671875 22.042969 -1.242188 15.53125 0.359375 9.101562 C 1.960938 2.671875 8.472656 -1.242188 14.90625 0.359375 C 21.335938 1.964844 25.25 8.476562 23.648438 14.90625 Z M 23.648438 14.90625 "/>
<path style=" stroke:none;fill-rule:nonzero;fill:rgb(100%,100%,100%);fill-opacity:1;" d="M 13.5 13.605469 C 13.417969 13.613281 12.984375 13.636719 12.023438 13.636719 C 11.257812 13.636719 10.714844 13.613281 10.523438 13.605469 C 7.570312 13.476562 5.363281 12.960938 5.363281 12.347656 C 5.363281 11.730469 7.570312 11.214844 10.523438 11.085938 L 10.523438 13.097656 C 10.71875 13.109375 11.269531 13.144531 12.035156 13.144531 C 12.953125 13.144531 13.414062 13.105469 13.496094 13.097656 L 13.496094 11.085938 C 16.445312 11.214844 18.648438 11.730469 18.648438 12.34375 C 18.648438 12.957031 16.445312 13.472656 13.496094 13.605469 Z M 13.5 10.875 L 13.5 9.078125 L 17.617188 9.078125 L 17.617188 6.335938 L 6.410156 6.335938 L 6.410156 9.078125 L 10.523438 9.078125 L 10.523438 10.878906 C 7.179688 11.03125 4.664062 11.695312 4.664062 12.488281 C 4.664062 13.28125 7.179688 13.945312 10.523438 14.097656 L 10.523438 19.859375 L 13.5 19.859375 L 13.5 14.09375 C 16.835938 13.941406 19.347656 13.277344 19.347656 12.484375 C 19.347656 11.691406 16.839844 11.027344 13.5 10.875 Z M 13.5 10.875 "/>
</g>
</svg>
