<svg id="Layer_1" data-name="Layer 1" xmlns="http://www.w3.org/2000/svg" width="40" height="40" viewBox="0 0 40 40"><rect id="Rectangle_179" data-name="Rectangle 179" x="0.011" y="0.006" width="40" height="40" fill="none"/><path id="Path_1467" data-name="Path 1467" d="M39.411,24.842A20,20,0,1,1,24.842.6l.005,0A20,20,0,0,1,39.411,24.842Z" fill="#b39a31"/><path id="Path_1483" data-name="Path 1483" d="M22.5,22.677h0c-.139.01-.858.053-2.46.053-1.275,0-2.18-.038-2.5-.053h0c-4.926-.217-8.6-1.074-8.6-2.1s3.677-1.883,8.6-2.1v3.35c.322.023,1.245.078,2.519.078,1.53,0,2.3-.064,2.434-.076V18.475c4.916.219,8.585,1.077,8.585,2.1s-3.668,1.882-8.585,2.1h0Zm0-4.549v-3h6.863V10.559H10.683v4.57h6.859v3c-5.575.256-9.768,1.361-9.768,2.684s4.193,2.427,9.768,2.684V33.1H22.5v-9.61c5.563-.256,9.748-1.359,9.748-2.682s-4.184-2.427-9.748-2.683h0Z" fill="#fff"/></svg>