<?xml version="1.0" encoding="UTF-8"?>
<svg xmlns="http://www.w3.org/2000/svg" xmlns:xlink="http://www.w3.org/1999/xlink" width="24px" height="24px" viewBox="0 0 24 24" version="1.1">
<g id="surface1">
<path style=" stroke:none;fill-rule:nonzero;fill:rgb(70.196078%,60.392157%,19.215686%);fill-opacity:1;" d="M 23.648438 14.90625 C 22.042969 21.335938 15.53125 25.25 9.101562 23.648438 C 2.671875 22.042969 -1.242188 15.53125 0.359375 9.101562 C 1.960938 2.671875 8.472656 -1.242188 14.90625 0.359375 C 21.335938 1.964844 25.25 8.476562 23.648438 14.90625 Z M 23.648438 14.90625 "/>
<path style=" stroke:none;fill-rule:nonzero;fill:rgb(100%,100%,100%);fill-opacity:1;" d="M 9.449219 6.976562 C 9.257812 6.949219 9.246094 6.9375 9.339844 6.929688 C 9.628906 6.910156 9.917969 6.9375 10.199219 7.003906 C 10.949219 7.214844 11.609375 7.660156 12.09375 8.269531 L 12.257812 8.460938 L 12.496094 8.425781 C 13.492188 8.253906 14.515625 8.382812 15.4375 8.792969 C 15.667969 8.898438 15.890625 9.027344 16.097656 9.179688 C 16.132812 9.261719 16.152344 9.347656 16.160156 9.4375 C 16.238281 9.769531 16.203125 10.125 16.058594 10.4375 C 15.992188 10.519531 15.980469 10.636719 16.03125 10.730469 C 16.078125 10.824219 16.175781 10.886719 16.28125 10.886719 C 16.5 10.886719 16.730469 10.539062 16.839844 10.050781 L 16.886719 9.859375 L 16.96875 9.949219 C 17.425781 10.445312 17.734375 11.054688 17.859375 11.714844 L 17.878906 11.851562 L 17.796875 11.730469 C 17.683594 11.546875 17.53125 11.386719 17.355469 11.261719 C 16.890625 11.011719 16.367188 10.902344 15.839844 10.941406 C 15.269531 10.933594 14.707031 10.847656 14.160156 10.683594 C 13.40625 10.4375 13.019531 10.113281 12.128906 8.929688 C 11.863281 8.558594 11.5625 8.207031 11.238281 7.882812 C 10.757812 7.390625 10.128906 7.070312 9.449219 6.976562 Z M 9.449219 6.976562 "/>
<path style=" stroke:none;fill-rule:nonzero;fill:rgb(100%,100%,100%);fill-opacity:1;" d="M 16.289062 8.160156 C 16.289062 7.886719 16.347656 7.621094 16.453125 7.371094 C 16.476562 7.316406 16.503906 7.261719 16.539062 7.214844 C 16.535156 7.261719 16.523438 7.308594 16.5 7.351562 C 16.425781 7.617188 16.414062 7.890625 16.464844 8.160156 C 16.527344 8.574219 16.554688 8.628906 16.996094 9.078125 C 17.199219 9.289062 17.4375 9.558594 17.53125 9.667969 L 17.6875 9.871094 L 17.53125 9.722656 C 17.300781 9.507812 17.054688 9.316406 16.796875 9.144531 C 16.730469 9.105469 16.722656 9.105469 16.675781 9.152344 C 16.640625 9.191406 16.628906 9.246094 16.628906 9.511719 C 16.640625 9.835938 16.570312 10.160156 16.425781 10.449219 C 16.355469 10.585938 16.34375 10.558594 16.410156 10.402344 C 16.46875 10.21875 16.488281 10.027344 16.464844 9.835938 C 16.464844 9.035156 16.371094 8.84375 15.8125 8.519531 C 15.671875 8.4375 15.433594 8.320312 15.296875 8.253906 C 15.210938 8.21875 15.128906 8.179688 15.050781 8.132812 C 15.3125 8.183594 15.574219 8.261719 15.820312 8.363281 C 16.144531 8.492188 16.199219 8.503906 16.234375 8.492188 C 16.261719 8.460938 16.28125 8.386719 16.289062 8.160156 Z M 16.289062 8.160156 "/>
<path style=" stroke:none;fill-rule:nonzero;fill:rgb(100%,100%,100%);fill-opacity:1;" d="M 10.34375 9.523438 C 9.945312 8.945312 9.742188 8.253906 9.765625 7.546875 L 9.785156 7.355469 L 9.878906 7.375 C 10.082031 7.417969 10.28125 7.492188 10.464844 7.59375 C 10.832031 7.816406 10.996094 8.117188 11.152344 8.871094 C 11.199219 9.09375 11.265625 9.351562 11.292969 9.433594 C 11.390625 9.664062 11.511719 9.886719 11.660156 10.09375 C 11.761719 10.238281 11.695312 10.3125 11.464844 10.292969 C 11.007812 10.1875 10.609375 9.910156 10.34375 9.523438 Z M 10.34375 9.523438 "/>
<path style=" stroke:none;fill-rule:nonzero;fill:rgb(100%,100%,100%);fill-opacity:1;" d="M 15.820312 13.1875 C 14.003906 12.453125 13.359375 11.816406 13.359375 10.746094 C 13.359375 10.589844 13.371094 10.460938 13.371094 10.460938 C 13.425781 10.496094 13.476562 10.535156 13.527344 10.578125 C 13.894531 10.875 14.304688 11 15.453125 11.167969 C 15.929688 11.222656 16.402344 11.320312 16.859375 11.460938 C 17.878906 11.726562 18.644531 12.566406 18.824219 13.601562 C 18.867188 13.984375 18.847656 14.371094 18.769531 14.75 C 18.707031 14.984375 18.605469 15.207031 18.476562 15.410156 C 18.464844 15.410156 18.449219 15.363281 18.449219 15.289062 C 18.417969 14.886719 18.226562 14.511719 17.914062 14.25 C 17.277344 13.785156 16.570312 13.425781 15.820312 13.1875 Z M 15.820312 13.1875 "/>
<path style=" stroke:none;fill-rule:nonzero;fill:rgb(100%,100%,100%);fill-opacity:1;" d="M 14.863281 13.386719 C 14.84375 13.253906 14.816406 13.125 14.773438 13 L 14.726562 12.863281 L 14.808594 12.960938 C 14.941406 13.121094 15.039062 13.300781 15.101562 13.496094 C 15.164062 13.660156 15.1875 13.835938 15.167969 14.007812 C 15.183594 14.175781 15.160156 14.347656 15.101562 14.503906 C 15.023438 14.738281 14.890625 14.945312 14.71875 15.121094 C 14.34375 15.476562 13.855469 15.691406 13.335938 15.726562 C 13.226562 15.734375 12.917969 15.761719 12.640625 15.78125 C 12.109375 15.789062 11.585938 15.878906 11.078125 16.039062 C 11.023438 16.058594 10.96875 16.074219 10.960938 16.066406 C 11.109375 15.945312 11.277344 15.847656 11.457031 15.773438 C 11.894531 15.585938 12.359375 15.460938 12.835938 15.40625 C 13.113281 15.367188 13.382812 15.3125 13.652344 15.238281 C 14.492188 15.050781 15.03125 14.230469 14.863281 13.386719 Z M 14.863281 13.386719 "/>
<path style=" stroke:none;fill-rule:nonzero;fill:rgb(100%,100%,100%);fill-opacity:1;" d="M 15.371094 14.558594 C 15.140625 14.097656 15.082031 13.570312 15.207031 13.070312 C 15.226562 13.023438 15.242188 12.976562 15.261719 12.976562 C 15.308594 12.992188 15.351562 13.011719 15.390625 13.042969 C 15.5 13.117188 15.730469 13.246094 16.316406 13.566406 C 16.871094 13.824219 17.367188 14.191406 17.777344 14.640625 C 18.039062 14.960938 18.207031 15.34375 18.265625 15.75 C 18.304688 16.117188 18.289062 16.484375 18.21875 16.84375 C 18.046875 17.59375 17.5625 18.234375 16.886719 18.605469 C 16.824219 18.644531 16.761719 18.671875 16.695312 18.699219 C 16.710938 18.628906 16.738281 18.558594 16.777344 18.496094 C 16.996094 18.054688 17.027344 17.539062 16.859375 17.074219 C 16.675781 16.605469 16.425781 16.160156 16.125 15.753906 C 15.84375 15.375 15.589844 14.976562 15.371094 14.558594 Z M 15.371094 14.558594 "/>
<path style=" stroke:none;fill-rule:nonzero;fill:rgb(100%,100%,100%);fill-opacity:1;" d="M 8.898438 17.367188 C 9.554688 16.808594 10.34375 16.429688 11.1875 16.265625 C 11.582031 16.210938 11.980469 16.226562 12.371094 16.3125 C 12.832031 16.417969 13.238281 16.679688 13.527344 17.054688 C 13.765625 17.433594 13.910156 17.859375 13.949219 18.304688 C 13.984375 18.550781 14.03125 18.808594 14.039062 18.863281 C 14.085938 19.144531 14.230469 19.402344 14.445312 19.589844 C 14.835938 19.804688 15.308594 19.816406 15.710938 19.628906 C 15.761719 19.605469 15.8125 19.589844 15.867188 19.582031 C 15.75 19.691406 15.617188 19.78125 15.472656 19.847656 C 15.269531 19.957031 15.042969 20.011719 14.8125 20.003906 C 14.34375 19.988281 13.917969 19.726562 13.691406 19.316406 C 13.578125 19.121094 13.480469 18.917969 13.390625 18.707031 C 13.253906 18.21875 12.949219 17.789062 12.527344 17.496094 C 12.210938 17.28125 11.804688 17.246094 11.453125 17.394531 C 11.257812 17.484375 11.113281 17.664062 11.066406 17.875 C 11.019531 18.085938 11.074219 18.304688 11.214844 18.46875 C 11.355469 18.617188 11.539062 18.710938 11.738281 18.746094 C 12.042969 18.785156 12.324219 18.570312 12.367188 18.265625 C 12.371094 18.238281 12.371094 18.214844 12.371094 18.1875 C 12.386719 17.988281 12.261719 17.800781 12.070312 17.738281 C 11.777344 17.609375 11.457031 17.757812 11.464844 18.039062 C 11.460938 18.148438 11.53125 18.25 11.640625 18.285156 C 11.710938 18.320312 11.710938 18.320312 11.65625 18.3125 C 11.53125 18.28125 11.4375 18.179688 11.410156 18.050781 C 11.386719 17.921875 11.433594 17.792969 11.539062 17.714844 C 11.828125 17.492188 12.242188 17.542969 12.464844 17.832031 C 12.484375 17.859375 12.503906 17.890625 12.523438 17.921875 C 12.597656 18.121094 12.605469 18.34375 12.542969 18.546875 C 12.375 18.957031 11.917969 19.171875 11.496094 19.042969 C 11.175781 18.957031 10.894531 18.765625 10.695312 18.503906 C 10.253906 17.945312 9.589844 17.609375 8.878906 17.578125 L 8.707031 17.550781 Z M 8.898438 17.367188 "/>
<path style=" stroke:none;fill-rule:nonzero;fill:rgb(100%,100%,100%);fill-opacity:1;" d="M 4.621094 3.621094 C 6.757812 6.042969 10.054688 9.808594 10.222656 10.015625 C 10.359375 10.1875 10.304688 10.347656 10.074219 10.46875 C 9.910156 10.546875 9.734375 10.59375 9.550781 10.605469 C 9.386719 10.597656 9.230469 10.535156 9.109375 10.425781 C 9.027344 10.347656 8.667969 9.859375 7.859375 8.683594 C 7.246094 7.785156 6.722656 7.042969 6.714844 7.03125 C 6.675781 7.015625 6.675781 7.015625 7.796875 8.882812 C 8.144531 9.410156 8.457031 9.957031 8.734375 10.523438 C 8.734375 10.636719 8.695312 10.695312 8.550781 10.851562 C 8.273438 11.171875 8.117188 11.582031 8.109375 12.007812 C 7.984375 12.757812 7.617188 13.449219 7.0625 13.972656 C 6.835938 14.199219 6.640625 14.457031 6.484375 14.738281 C 6.363281 14.945312 6.300781 15.179688 6.300781 15.421875 C 6.28125 15.707031 6.320312 15.992188 6.421875 16.261719 C 6.523438 16.550781 6.671875 16.824219 6.859375 17.066406 C 7.011719 17.25 7.125 17.460938 7.199219 17.691406 C 7.199219 17.757812 7.21875 17.757812 7.550781 17.691406 C 8.210938 17.582031 8.832031 17.300781 9.347656 16.867188 C 9.542969 16.710938 9.648438 16.46875 9.625 16.21875 C 9.636719 16.09375 9.617188 15.96875 9.558594 15.859375 C 9.402344 15.609375 9.179688 15.40625 8.917969 15.277344 C 8.421875 14.960938 8.210938 14.703125 8.15625 14.359375 C 8.109375 14.070312 8.164062 13.871094 8.441406 13.332031 C 8.683594 12.921875 8.824219 12.457031 8.84375 11.980469 C 8.871094 11.621094 8.917969 11.476562 9.027344 11.363281 C 9.164062 11.234375 9.34375 11.164062 9.53125 11.167969 C 9.902344 11.148438 10.253906 11.015625 10.542969 10.78125 C 10.738281 10.632812 10.855469 10.402344 10.855469 10.15625 L 10.859375 9.960938 L 10.738281 9.839844 C 10.308594 9.382812 4.332031 3.253906 4.308594 3.253906 C 4.296875 3.253906 4.441406 3.414062 4.621094 3.621094 Z M 7.441406 15.792969 C 7.539062 15.632812 7.488281 15.425781 7.328125 15.328125 L 7.320312 15.320312 C 7.164062 15.226562 6.925781 15.269531 6.925781 15.398438 C 6.925781 15.441406 6.957031 15.476562 7 15.484375 C 7.082031 15.527344 7.089844 15.570312 7.027344 15.664062 C 6.960938 15.757812 6.960938 15.84375 7.042969 15.902344 C 7.171875 15.988281 7.339844 15.953125 7.421875 15.828125 C 7.425781 15.816406 7.433594 15.804688 7.4375 15.792969 Z M 7.441406 15.792969 "/>
<path style=" stroke:none;fill-rule:nonzero;fill:rgb(100%,100%,100%);fill-opacity:1;" d="M 10.738281 11.328125 C 10.5 11.417969 10.3125 11.621094 10.242188 11.867188 C 10.207031 12.035156 10.222656 12.207031 10.289062 12.363281 C 10.390625 12.492188 10.484375 12.53125 10.738281 12.53125 C 11.246094 12.53125 11.675781 12.308594 11.722656 12.042969 C 11.730469 11.761719 11.566406 11.5 11.308594 11.382812 C 11.128906 11.304688 10.929688 11.285156 10.738281 11.328125 Z M 11.328125 11.785156 C 11.359375 11.742188 11.371094 11.6875 11.363281 11.632812 C 11.355469 11.578125 11.324219 11.53125 11.28125 11.5 C 11.265625 11.488281 11.25 11.480469 11.234375 11.476562 C 10.988281 11.320312 10.613281 11.449219 10.613281 11.6875 C 10.613281 11.804688 10.804688 11.933594 10.988281 11.933594 C 11.117188 11.929688 11.238281 11.875 11.328125 11.785156 Z M 11.328125 11.785156 "/>
</g>
</svg>
