<svg id="Layer_1" data-name="Layer 1" xmlns="http://www.w3.org/2000/svg" width="40" height="40" viewBox="0 0 40 40"><path id="Path_1467" data-name="Path 1467" d="M39.411,24.842A20,20,0,1,1,24.842.6l.005,0A20,20,0,0,1,39.411,24.842Z" fill="#b39a31"/><g id="uniswap-uni-logo"><path id="Path_1470" data-name="Path 1470" d="M15.748,11.625c-.321-.046-.337-.061-.184-.077A5.009,5.009,0,0,1,17,11.67a6.186,6.186,0,0,1,3.153,2.112l.275.321.4-.061a8.523,8.523,0,0,1,4.9.612,6.339,6.339,0,0,1,1.1.643,1.476,1.476,0,0,1,.107.429,2.6,2.6,0,0,1-.168,1.668.447.447,0,0,0-.046.49.463.463,0,0,0,.413.26c.367,0,.75-.582.934-1.393l.077-.321.137.154a6.031,6.031,0,0,1,1.485,2.939l.031.23-.138-.2a2.585,2.585,0,0,0-.735-.781,4.6,4.6,0,0,0-2.525-.536,10.371,10.371,0,0,1-2.8-.429c-1.255-.413-1.9-.949-3.383-2.923a14.042,14.042,0,0,0-1.485-1.745A5.189,5.189,0,0,0,15.748,11.625Z" fill="#fff"/><path id="Path_1471" data-name="Path 1471" d="M27.15,13.6a3.31,3.31,0,0,1,.275-1.316,1.063,1.063,0,0,1,.138-.26.572.572,0,0,1-.061.23,2.922,2.922,0,0,0-.061,1.347c.107.689.153.781.888,1.531.337.352.735.8.888.98l.26.337-.26-.245a9.251,9.251,0,0,0-1.224-.964c-.107-.061-.122-.061-.2.015-.061.061-.077.153-.077.6a3.284,3.284,0,0,1-.337,1.561c-.122.23-.138.184-.031-.077a2.228,2.228,0,0,0,.092-.949c0-1.332-.153-1.653-1.087-2.189-.23-.138-.628-.337-.857-.444a3.492,3.492,0,0,1-.413-.2,6.79,6.79,0,0,1,1.286.383c.536.214.628.23.689.214C27.1,14.1,27.135,13.978,27.15,13.6Z" fill="#fff"/><path id="Path_1472" data-name="Path 1472" d="M17.242,15.872a5.411,5.411,0,0,1-.964-3.291l.031-.321.153.031a3.58,3.58,0,0,1,.98.367c.612.367.888.872,1.148,2.128.077.367.184.8.23.934a5.505,5.505,0,0,0,.612,1.1c.168.245.061.367-.321.337A3.137,3.137,0,0,1,17.242,15.872Z" fill="#fff"/><path id="Path_1473" data-name="Path 1473" d="M26.368,21.978c-3.031-1.224-4.1-2.281-4.1-4.071,0-.26.015-.474.015-.474a2.764,2.764,0,0,1,.26.2c.612.49,1.3.7,3.214.98a13.356,13.356,0,0,1,2.342.49,4.471,4.471,0,0,1,3.275,3.566,6.175,6.175,0,0,1-.092,1.913,3.838,3.838,0,0,1-.49,1.1c-.015,0-.046-.077-.046-.2a2.489,2.489,0,0,0-.888-1.73A12.232,12.232,0,0,0,26.368,21.978Z" fill="#fff"/><path id="Path_1474" data-name="Path 1474" d="M24.774,22.309a3.625,3.625,0,0,0-.153-.643l-.077-.23.138.168a2.692,2.692,0,0,1,.49.888,1.909,1.909,0,0,1,.107.857,1.955,1.955,0,0,1-.107.827,2.769,2.769,0,0,1-.643,1.025,3.69,3.69,0,0,1-2.3,1.01c-.184.015-.7.061-1.163.092a8.971,8.971,0,0,0-2.6.429c-.092.031-.184.061-.2.046a3.47,3.47,0,0,1,.827-.49,8.332,8.332,0,0,1,2.3-.612,10.5,10.5,0,0,0,1.362-.276A2.646,2.646,0,0,0,24.774,22.309Z" fill="#fff"/><path id="Path_1475" data-name="Path 1475" d="M25.62,24.263a3.573,3.573,0,0,1-.275-2.48c.031-.077.061-.153.092-.153a.642.642,0,0,1,.214.107c.184.122.566.337,1.546.872A7.811,7.811,0,0,1,29.631,24.4a3.78,3.78,0,0,1,.811,1.852,6.081,6.081,0,0,1-.077,1.821,4.515,4.515,0,0,1-2.219,2.939,2.144,2.144,0,0,1-.321.153,1.209,1.209,0,0,1,.138-.337,3.038,3.038,0,0,0,.138-2.372,9.751,9.751,0,0,0-1.224-2.2A14.525,14.525,0,0,1,25.62,24.263Z" fill="#fff"/><path id="Path_1476" data-name="Path 1476" d="M14.833,28.946a8.32,8.32,0,0,1,3.811-1.837,5.671,5.671,0,0,1,1.974.077,3.4,3.4,0,0,1,1.929,1.24,4.575,4.575,0,0,1,.7,2.082c.061.413.138.842.153.934a2.059,2.059,0,0,0,.673,1.209,2.33,2.33,0,0,0,2.112.061,1.024,1.024,0,0,1,.26-.077,2.369,2.369,0,0,1-.658.444,2.173,2.173,0,0,1-1.1.26,2.21,2.21,0,0,1-1.867-1.148,8.649,8.649,0,0,1-.5-1.01,3.679,3.679,0,0,0-1.439-2.02,1.884,1.884,0,0,0-1.791-.168,1.154,1.154,0,0,0-.4,1.791,1.563,1.563,0,0,0,.872.459.935.935,0,0,0,1.048-.8.945.945,0,0,0,.008-.13.733.733,0,0,0-.5-.75c-.49-.214-1.025.031-1.01.5a.421.421,0,0,0,.291.413c.122.061.122.061.031.046a.568.568,0,0,1-.2-1,1.1,1.1,0,0,1,1.542.2,1.042,1.042,0,0,1,.1.148,1.6,1.6,0,0,1,.031,1.041,1.431,1.431,0,0,1-1.745.827,2.5,2.5,0,0,1-1.332-.9A4.064,4.064,0,0,0,14.8,29.3l-.291-.046Z" fill="#fff"/><path id="Path_1477" data-name="Path 1477" d="M7.7,6.034c3.566,4.038,9.061,10.315,9.336,10.657.23.285.138.556-.245.756a2.469,2.469,0,0,1-.872.228,1.146,1.146,0,0,1-.735-.3c-.138-.128-.735-.942-2.082-2.9-1.025-1.5-1.9-2.739-1.913-2.753-.061-.029-.061-.029,1.806,3.081a24.352,24.352,0,0,1,1.561,2.739c0,.185-.061.285-.306.542a3.05,3.05,0,0,0-.735,1.926,5.816,5.816,0,0,1-1.745,3.281,5.847,5.847,0,0,0-.964,1.27A2.284,2.284,0,0,0,10.5,25.7a3.339,3.339,0,0,0,.2,1.4,4.665,4.665,0,0,0,.735,1.341A3.235,3.235,0,0,1,12,29.484c0,.114.031.114.582,0a6.23,6.23,0,0,0,3-1.37,1.246,1.246,0,0,0,.459-1.084,1.1,1.1,0,0,0-.107-.6,2.658,2.658,0,0,0-1.071-.97c-.827-.528-1.179-.956-1.27-1.526-.077-.485.015-.813.474-1.712a4.851,4.851,0,0,0,.673-2.254c.046-.6.122-.842.306-1.027a1.178,1.178,0,0,1,.842-.328,2.919,2.919,0,0,0,1.684-.642,1.308,1.308,0,0,0,.52-1.041L18.1,16.6l-.2-.2C17.184,15.636,7.22,5.421,7.178,5.421,7.159,5.421,7.4,5.692,7.7,6.034Zm4.7,20.287a.565.565,0,0,0-.186-.777l-.014-.008c-.26-.157-.658-.086-.658.128a.148.148,0,0,0,.122.143c.138.071.153.143.046.3s-.107.3.031.4a.453.453,0,0,0,.627-.13A.448.448,0,0,0,12.394,26.321Z" fill="#fff"/><path id="Path_1478" data-name="Path 1478" d="M17.9,18.88a1.359,1.359,0,0,0-.827.9,1.32,1.32,0,0,0,.077.827c.168.214.321.276.75.276.842,0,1.561-.367,1.638-.811a1.183,1.183,0,0,0-.689-1.1A1.553,1.553,0,0,0,17.9,18.88Zm.98.765a.343.343,0,0,0-.08-.48.323.323,0,0,0-.073-.04c-.413-.26-1.041-.046-1.041.352,0,.2.321.413.628.413a.847.847,0,0,0,.565-.245Z" fill="#fff"/></g></svg>