<?xml version="1.0" encoding="UTF-8"?>
<svg xmlns="http://www.w3.org/2000/svg" xmlns:xlink="http://www.w3.org/1999/xlink" width="24px" height="24px" viewBox="0 0 24 24" version="1.1">
<g id="surface1">
<path style=" stroke:none;fill-rule:nonzero;fill:rgb(70.196078%,60.392157%,19.215686%);fill-opacity:1;" d="M 12 24 C 18.605469 23.984375 23.949219 18.621094 23.941406 12.015625 C 23.933594 5.40625 18.574219 0.0585938 11.96875 0.0585938 C 5.363281 0.0585938 0.0078125 5.40625 0 12.015625 C -0.0078125 18.621094 5.335938 23.984375 11.941406 24 Z M 12 24 "/>
<path style=" stroke:none;fill-rule:nonzero;fill:rgb(100%,100%,100%);fill-opacity:1;" d="M 15.300781 13.898438 C 15.300781 12.148438 14.25 11.550781 12.148438 11.300781 C 10.648438 11.101562 10.351562 10.699219 10.351562 10 C 10.351562 9.300781 10.851562 8.851562 11.851562 8.851562 C 12.75 8.851562 13.25 9.148438 13.5 9.898438 C 13.554688 10.046875 13.691406 10.148438 13.851562 10.148438 L 14.648438 10.148438 C 14.742188 10.152344 14.828125 10.117188 14.894531 10.054688 C 14.960938 9.992188 14.996094 9.90625 15 9.816406 L 15 9.75 C 14.800781 8.636719 13.878906 7.796875 12.75 7.699219 L 12.75 6.5 C 12.75 6.300781 12.601562 6.152344 12.351562 6.101562 L 11.601562 6.101562 C 11.398438 6.101562 11.25 6.25 11.199219 6.5 L 11.199219 7.652344 C 9.699219 7.851562 8.75 8.851562 8.75 10.101562 C 8.75 11.75 9.75 12.398438 11.851562 12.652344 C 13.25 12.902344 13.699219 13.199219 13.699219 14 C 13.699219 14.800781 13 15.351562 12.050781 15.351562 C 10.75 15.351562 10.300781 14.800781 10.148438 14.050781 C 10.117188 13.878906 9.972656 13.753906 9.800781 13.75 L 8.949219 13.75 C 8.761719 13.746094 8.601562 13.894531 8.597656 14.085938 L 8.597656 14.148438 C 8.800781 15.398438 9.597656 16.300781 11.25 16.550781 L 11.25 17.75 C 11.25 17.949219 11.398438 18.097656 11.648438 18.148438 L 12.398438 18.148438 C 12.597656 18.148438 12.746094 18 12.796875 17.75 L 12.796875 16.550781 C 14.296875 16.300781 15.296875 15.25 15.296875 13.898438 Z M 15.300781 13.898438 "/>
<path style=" stroke:none;fill-rule:nonzero;fill:rgb(100%,100%,100%);fill-opacity:1;" d="M 9.449219 19.148438 C 6.503906 18.070312 4.542969 15.265625 4.542969 12.125 C 4.542969 8.984375 6.503906 6.179688 9.449219 5.097656 C 9.644531 5.015625 9.765625 4.8125 9.75 4.597656 L 9.75 3.898438 C 9.765625 3.710938 9.636719 3.539062 9.449219 3.5 C 9.378906 3.492188 9.308594 3.511719 9.25 3.550781 C 5.519531 4.738281 2.984375 8.207031 2.984375 12.125 C 2.984375 16.042969 5.519531 19.507812 9.25 20.699219 C 9.394531 20.785156 9.582031 20.734375 9.664062 20.589844 C 9.683594 20.5625 9.695312 20.53125 9.699219 20.5 C 9.75 20.449219 9.75 20.398438 9.75 20.300781 L 9.75 19.597656 C 9.71875 19.414062 9.609375 19.25 9.449219 19.148438 Z M 14.75 3.550781 C 14.605469 3.464844 14.417969 3.515625 14.335938 3.660156 C 14.316406 3.6875 14.304688 3.71875 14.300781 3.75 C 14.25 3.800781 14.25 3.847656 14.25 3.949219 L 14.25 4.648438 C 14.265625 4.851562 14.378906 5.039062 14.550781 5.148438 C 17.5 6.230469 19.457031 9.035156 19.457031 12.175781 C 19.457031 15.3125 17.5 18.121094 14.550781 19.199219 C 14.355469 19.285156 14.234375 19.484375 14.25 19.699219 L 14.25 20.398438 C 14.234375 20.589844 14.363281 20.761719 14.550781 20.800781 C 14.621094 20.808594 14.691406 20.789062 14.75 20.75 C 18.484375 19.546875 21.011719 16.074219 21.011719 12.148438 C 21.011719 8.226562 18.484375 4.753906 14.75 3.550781 Z M 14.75 3.550781 "/>
</g>
</svg>
