<svg id="Layer_1" data-name="Layer 1" xmlns="http://www.w3.org/2000/svg" width="40" height="40" viewBox="0 0 40 40"><path id="Path_1479" data-name="Path 1479" d="M20,40a19.952,19.952,0,1,0-.1,0Z" fill="#b39a31"/><path id="Path_1480" data-name="Path 1480" d="M25.5,23.167c0-2.917-1.75-3.917-5.25-4.333-2.5-.333-3-1-3-2.167s.833-1.917,2.5-1.917c1.5,0,2.333.5,2.75,1.75a.628.628,0,0,0,.583.417h1.333A.57.57,0,0,0,25,16.36v-.109a4.163,4.163,0,0,0-3.75-3.417v-2c0-.333-.25-.583-.667-.667h-1.25c-.333,0-.583.25-.667.667v1.917c-2.5.333-4.083,2-4.083,4.083,0,2.75,1.667,3.833,5.167,4.25,2.333.417,3.083.917,3.083,2.25s-1.167,2.25-2.75,2.25c-2.167,0-2.917-.917-3.167-2.167a.609.609,0,0,0-.583-.5H14.915a.57.57,0,0,0-.583.557v.109c.333,2.083,1.667,3.583,4.417,4v2c0,.333.25.583.667.667h1.247c.333,0,.583-.25.667-.667v-2c2.5-.417,4.167-2.167,4.167-4.417Z" fill="#fff"/><path id="Path_1481" data-name="Path 1481" d="M15.75,31.916a12.47,12.47,0,0,1,0-23.417.838.838,0,0,0,.5-.833V6.5a.633.633,0,0,0-.5-.667.5.5,0,0,0-.333.083,15,15,0,0,0,0,28.583.507.507,0,0,0,.693-.185.494.494,0,0,0,.057-.148c.083-.083.083-.167.083-.333V32.663A1.109,1.109,0,0,0,15.75,31.916Zm8.833-26a.507.507,0,0,0-.693.185.494.494,0,0,0-.057.148c-.083.083-.083.167-.083.333V7.749a1.106,1.106,0,0,0,.5.833A12.47,12.47,0,0,1,24.25,32a.838.838,0,0,0-.5.833V34a.633.633,0,0,0,.5.667.5.5,0,0,0,.333-.083,15.06,15.06,0,0,0,0-28.667Z" fill="#fff"/></svg>