<svg width="28" height="22" viewBox="0 0 28 22" fill="none" xmlns="http://www.w3.org/2000/svg">
<path d="M0.667969 3.30859L14 11.0039V16.1328L5.10937 11.0039V21.2617L0.667969 18.6992V3.30859Z" fill="#B39A31"/>
<path d="M5.10938 21.2617V11.0039L9.55469 13.5664V18.6992L5.10938 21.2617Z" fill="#B39A31"/>
<path d="M0.667969 3.30859L5.10937 0.742188L18.4453 8.4375L14 11.0039L0.667969 3.30859Z" fill="#B39A31"/>
<path d="M14 11.0039L18.4453 8.4375V13.5664L14 16.1328V11.0039Z" fill="#B39A31"/>
<path d="M18.4453 3.30859V18.6992L22.8906 21.2617V5.87109L18.4453 3.30859Z" fill="#B39A31"/>
<path d="M27.332 3.30859L22.8906 5.87109V21.2617L27.332 18.6992V3.30859Z" fill="#B39A31"/>
<path d="M22.8906 0.742188L27.332 3.30859L22.8906 5.87109L18.4453 3.30859L22.8906 0.742188Z" fill="#B39A31"/>
</svg>
