<?xml version="1.0" encoding="UTF-8"?>
<svg xmlns="http://www.w3.org/2000/svg" xmlns:xlink="http://www.w3.org/1999/xlink" width="24px" height="24px" viewBox="0 0 24 24" version="1.1">
<g id="surface1">
<path style=" stroke:none;fill-rule:nonzero;fill:rgb(15.686275%,56.862745%,97.647059%);fill-opacity:1;" d="M 4 7.382812 L 12 12 L 12 15.078125 L 6.667969 12 L 6.667969 18.15625 L 4 16.617188 Z M 4 7.382812 "/>
<path style=" stroke:none;fill-rule:nonzero;fill:rgb(16.862745%,74.117647%,96.862745%);fill-opacity:1;" d="M 6.667969 18.15625 L 6.667969 12 L 9.332031 13.539062 L 9.332031 16.617188 Z M 6.667969 18.15625 "/>
<path style=" stroke:none;fill-rule:nonzero;fill:rgb(16.862745%,42.745098%,93.72549%);fill-opacity:1;" d="M 4 7.382812 L 6.667969 5.84375 L 14.667969 10.460938 L 12 12 Z M 4 7.382812 "/>
<path style=" stroke:none;fill-rule:nonzero;fill:rgb(16.862745%,74.117647%,96.862745%);fill-opacity:1;" d="M 12 12 L 14.667969 10.460938 L 14.667969 13.539062 L 12 15.078125 Z M 12 12 "/>
<path style=" stroke:none;fill-rule:nonzero;fill:rgb(15.686275%,56.862745%,97.647059%);fill-opacity:1;" d="M 14.667969 7.382812 L 14.667969 16.617188 L 17.332031 18.15625 L 17.332031 8.921875 Z M 14.667969 7.382812 "/>
<path style=" stroke:none;fill-rule:nonzero;fill:rgb(16.862745%,74.117647%,96.862745%);fill-opacity:1;" d="M 20 7.382812 L 17.332031 8.921875 L 17.332031 18.15625 L 20 16.617188 Z M 20 7.382812 "/>
<path style=" stroke:none;fill-rule:nonzero;fill:rgb(16.862745%,42.745098%,93.72549%);fill-opacity:1;" d="M 17.332031 5.84375 L 20 7.382812 L 17.332031 8.921875 L 14.667969 7.382812 Z M 17.332031 5.84375 "/>
</g>
</svg>
