<?xml version="1.0" encoding="utf-8"?>
<!-- Generator: Adobe Illustrator 26.0.1, SVG Export Plug-In . SVG Version: 6.00 Build 0)  -->
<svg version="1.1" id="Component_1_1" xmlns="http://www.w3.org/2000/svg" xmlns:xlink="http://www.w3.org/1999/xlink" x="0px"
	 y="0px" width="308.1px" height="80.3px" viewBox="0 0 308.1 80.3" style="enable-background:new 0 0 308.1 80.3;"
	 xml:space="preserve">
<g id="Page-1" transform="translate(80.337 14.059)">
	<g id="Intro-to-Fantom" transform="translate(0 0)">
		<g id="Fantom-Logo-blue" transform="translate(0)">
			<path id="fantom" d="M13.7,51V21.6h8.1v-5.4h-8.1v-3.9c0-4.4,1.9-6.5,5.7-6.5c1.2,0,2.4,0.2,3.5,0.6l0,0V0.7
				c-1.6-0.5-3.3-0.7-5-0.7c-3.5,0-6.3,1-8.2,3c-2,2-2.9,5-2.9,8.8l0,0v4.4H0v5.4h6.7V51L13.7,51z M41.9,51.5c2.4,0.1,4.8-0.5,7-1.7
				c2-1.1,3.5-2.7,4.5-4.8l0,0V51h6.9V16.3h-6.9v5.6c-1-2-2.6-3.7-4.6-4.8c-2.1-1.2-4.5-1.7-7-1.7c-2.8,0-5.6,0.7-8,2.3
				c-2.4,1.6-4.3,3.8-5.5,6.4c-1.4,3-2,6.2-2,9.5c-0.1,3.2,0.6,6.5,1.9,9.4C30.8,48.3,36.1,51.7,41.9,51.5L41.9,51.5z M43.6,46
				c-2.8,0.1-5.6-1.1-7.4-3.2c-1.8-2.2-2.7-5.2-2.7-9.1c0-4,0.9-7,2.7-9.3c1.8-2.2,4.5-3.5,7.3-3.3c2.8-0.2,5.6,1,7.3,3.2
				c1.7,2.2,2.6,5.2,2.6,9.2c0,4-0.9,7-2.6,9.2C49.1,44.9,46.4,46.1,43.6,46z M77.4,51V31.2c-0.1-2.7,0.8-5.4,2.7-7.4
				c1.9-1.9,4.4-2.9,7.1-2.8c2.6,0,4.4,0.7,5.6,2.1s1.8,3.6,1.8,6.6l0,0V51h7V29.3c0-9.3-4.2-13.9-12.5-13.9c-2.5,0-5,0.6-7.1,1.8
				c-2.1,1.2-3.8,2.9-4.8,5.1l0,0l-0.6-6H70c0.4,3.2,0.6,6.5,0.6,9.8l0,0V51L77.4,51z M124.8,51.5c1.8,0,3.5-0.2,5.2-0.8l0,0v-5.7
				c-1.2,0.4-2.4,0.5-3.7,0.6c-1.6,0.1-3.1-0.4-4.3-1.5c-1-1-1.6-2.7-1.6-5.1l0,0V21.6h9.6v-5.4h-9.6V5.2l-7,2.4v8.7h-6.8v5.4h6.8
				v18c0,3.9,1,6.8,3,8.8S121.2,51.5,124.8,51.5L124.8,51.5z M151.4,51.5c3.1,0.1,6.2-0.7,8.9-2.2c2.6-1.5,4.6-3.6,6-6.3
				c1.5-3,2.2-6.2,2.1-9.5c0.1-3.3-0.6-6.6-2.1-9.5c-1.3-2.6-3.4-4.8-6-6.3c-5.6-2.9-12.3-2.9-17.9,0c-2.6,1.5-4.6,3.7-6,6.3
				c-1.5,3-2.2,6.2-2.1,9.5c-0.1,3.3,0.6,6.6,2.1,9.5c1.3,2.6,3.4,4.8,6,6.3C145.2,50.8,148.3,51.5,151.4,51.5L151.4,51.5z
				 M151.3,46c-2.8,0.2-5.5-1-7.3-3.2c-1.7-2.1-2.6-5.2-2.6-9.3c0-4,0.9-7.1,2.6-9.2c1.8-2.2,4.5-3.4,7.4-3.2
				c2.8-0.1,5.5,1.1,7.3,3.2c1.7,2.2,2.6,5.2,2.6,9.2c0,4.1-0.9,7.2-2.6,9.3C156.9,45,154.2,46.1,151.3,46L151.3,46z M183.4,51V31.3
				c-0.2-2.7,0.7-5.4,2.3-7.5c1.6-1.8,3.9-2.9,6.3-2.8c2.3,0,4,0.7,5,2.1c1,1.4,1.6,3.6,1.6,6.5l0,0V51h7V31.3
				c-0.2-2.7,0.7-5.4,2.3-7.5c1.6-1.8,3.9-2.9,6.3-2.8c2.3,0,4,0.7,5,2.1s1.6,3.6,1.6,6.5l0,0V51h7V29.3c0-9.3-3.9-13.9-11.6-13.9
				c-2.4,0-4.8,0.6-6.9,1.8c-2,1.1-3.6,2.8-4.7,4.9c-1.7-4.5-5.2-6.7-10.5-6.7c-2.3-0.1-4.6,0.5-6.6,1.7c-1.9,1.2-3.4,2.9-4.3,4.9
				l0,0l-0.6-5.8H176c0.4,3.2,0.6,6.5,0.6,9.8l0,0V51L183.4,51z"/>
		</g>
	</g>
</g>
<g id="Page-1-2">
	<g id="Intro-to-Fantom-2" transform="translate(0)">
		<g id="Fantom-Logo-blue-2">
			<path id="Combined-Shape" d="M28.2,0.8c2.2-1,4.7-1,6.9,0l0,0L55,11.2c1,0.5,1.7,1.4,1.9,2.5h0v52.6c-0.1,1.2-0.8,2.3-2,2.7l0,0
				L35.1,79.6c-2.2,1-4.7,1-6.9,0l0,0L8.3,69.1c-1.1-0.5-1.8-1.5-1.9-2.7c0-0.1,0-0.2,0-0.2V13.7c0.2-1.1,0.9-2,1.9-2.5l0,0
				L28.2,0.8z M53.8,43.1l-18.7,9.9c-2.2,1-4.7,1-6.9,0l0,0L9.5,43.1v23.1L28.2,76c0.9,0.6,1.9,1,3,1.2l0.4,0
				c1.2-0.1,2.3-0.5,3.3-1.1l0,0l18.9-10L53.8,43.1z M3.1,65.2c-0.1,1.5,0.1,2.9,0.7,4.3c0.5,0.9,1.2,1.6,2,2.1l0.1,0
				c0.2,0.2,0.5,0.3,0.8,0.5l0.4,0.2L8.2,73l-1.6,2.7l-1.3-0.8l-0.2-0.1c-0.4-0.2-0.7-0.4-1-0.6c-3-2-4.2-4.2-4.2-8.8v-0.1H3.1z
				 M30.1,29c-0.1,0-0.3,0.1-0.4,0.2l0,0L9.8,39.6l0,0l-0.1,0l0,0l0,0l0,0l19.9,10.5c0.1,0.1,0.3,0.1,0.4,0.2L30.1,29z M33.2,29
				v21.4c0.1,0,0.3-0.1,0.4-0.2l0,0l19.9-10.5l0,0l0.1,0l0,0l0,0l0,0L33.6,29.2C33.5,29.1,33.3,29,33.2,29z M53.8,17.5l-17.9,9.4
				l17.9,9.4L53.8,17.5z M9.5,17.5v18.7l17.8-9.4L9.5,17.5z M33.6,3.5c-1.3-0.5-2.7-0.5-3.9,0l0,0L9.8,14l0,0l-0.1,0l0,0l0,0l0,0
				l19.9,10.5c1.3,0.5,2.7,0.5,3.9,0l0,0l19.9-10.5l0,0l0.1,0l0,0l0,0l0,0L33.6,3.5z M56.8,4.7L58,5.4l0.2,0.1
				c0.4,0.2,0.7,0.4,1,0.6c3,2,4.2,4.2,4.2,8.8v0.1h-3.1c0.1-1.5-0.1-2.9-0.7-4.3c-0.5-0.9-1.2-1.6-2-2.1l-0.1,0
				c-0.2-0.2-0.5-0.3-0.8-0.5L56.3,8l-1.1-0.7L56.8,4.7z"/>
		</g>
	</g>
</g>
</svg>
