<svg width="309" height="81" viewBox="0 0 309 81" fill="none" xmlns="http://www.w3.org/2000/svg">
<path d="M154.69 16.8752V64.1251C154.688 64.3034 154.616 64.4737 154.489 64.5998C154.363 64.7259 154.192 64.7978 154.013 64.8001H149.08C147.947 64.801 146.833 64.5188 145.838 63.9795C144.844 63.4402 144.001 62.6609 143.387 61.7131L120.998 27.2432L121.766 44.4601V64.1251C121.764 64.3034 121.692 64.4737 121.565 64.5998C121.439 64.7259 121.268 64.7978 121.089 64.8001H114.565C114.386 64.7978 114.215 64.7259 114.089 64.5998C113.962 64.4737 113.89 64.3034 113.888 64.1251V16.8752C113.89 16.6969 113.962 16.5266 114.089 16.4005C114.215 16.2744 114.386 16.2025 114.565 16.2002H119.471C120.602 16.2008 121.715 16.4826 122.709 17.0201C123.703 17.5576 124.547 18.3338 125.164 19.2782L147.553 53.6941L146.857 36.5402V16.8752C146.857 16.6962 146.928 16.5245 147.055 16.3979C147.182 16.2713 147.355 16.2002 147.535 16.2002H154.058C154.229 16.2137 154.389 16.2904 154.506 16.4154C154.623 16.5403 154.689 16.7043 154.69 16.8752V16.8752Z" fill="black"/>
<path d="M221.361 64.7997H214.458C214.35 64.7987 214.244 64.7721 214.148 64.722C214.053 64.6719 213.971 64.5999 213.909 64.5119C213.847 64.4238 213.807 64.3224 213.793 64.2159C213.778 64.1094 213.789 64.001 213.825 63.8997L232.112 16.8478C232.191 16.6508 232.328 16.4828 232.506 16.3668C232.684 16.2507 232.894 16.1924 233.106 16.1998H241.753C241.958 16.2016 242.158 16.2642 242.327 16.3796C242.496 16.4951 242.626 16.6581 242.702 16.8478L260.935 63.8997C260.97 64.001 260.982 64.1094 260.967 64.2159C260.953 64.3224 260.913 64.4238 260.851 64.5119C260.789 64.5999 260.707 64.6719 260.611 64.722C260.516 64.7721 260.41 64.7987 260.302 64.7997H253.399C253.261 64.8004 253.126 64.7595 253.012 64.6824C252.897 64.6053 252.809 64.4957 252.758 64.3677L238.021 25.6678C237.974 25.5375 237.887 25.4249 237.773 25.3454C237.659 25.2658 237.524 25.2231 237.384 25.2231C237.245 25.2231 237.11 25.2658 236.996 25.3454C236.882 25.4249 236.795 25.5375 236.748 25.6678L222.011 64.3677C221.96 64.4971 221.87 64.6078 221.754 64.685C221.637 64.7622 221.5 64.8022 221.361 64.7997V64.7997Z" fill="black"/>
<path d="M308.857 63.7111L295.141 46.2601C302.884 44.8021 307.411 39.6001 307.411 31.6172C307.411 22.4462 301.421 16.2002 290.822 16.2002H271.695C271.427 16.2002 271.169 16.3064 270.979 16.4954C270.79 16.6845 270.683 16.9409 270.683 17.2082V17.2082C270.683 18.0592 270.851 18.9018 271.178 19.688C271.505 20.4742 271.984 21.1885 272.588 21.7902C273.193 22.392 273.91 22.8693 274.699 23.1949C275.488 23.5206 276.334 23.6882 277.188 23.6882H290.027C296.433 23.6882 299.505 26.9552 299.505 31.6712C299.505 36.3872 296.506 39.7711 290.027 39.7711H271.695C271.426 39.7735 271.168 39.8817 270.979 40.0722C270.789 40.2626 270.683 40.52 270.683 40.7881V64.1881C270.683 64.3671 270.754 64.5388 270.882 64.6654C271.009 64.792 271.181 64.8631 271.361 64.8631H277.884C278.063 64.8608 278.234 64.7889 278.361 64.6628C278.487 64.5367 278.559 64.3664 278.562 64.1881V46.6831H286.088L297.987 62.1541C298.625 62.982 299.446 63.6517 300.386 64.1107C301.327 64.5698 302.361 64.8057 303.408 64.8001H308.36C308.483 64.7933 308.602 64.7529 308.705 64.6833C308.807 64.6138 308.888 64.5177 308.939 64.4054C308.99 64.2932 309.01 64.1692 308.995 64.0468C308.981 63.9244 308.933 63.8083 308.857 63.7111Z" fill="black"/>
<path d="M200.733 16.2002H170.466C170.226 16.2002 169.996 16.295 169.827 16.4638C169.657 16.6326 169.562 16.8615 169.562 17.1002C169.562 18.8498 170.26 20.5278 171.502 21.765C172.744 23.0021 174.428 23.6972 176.185 23.6972H200.733C200.823 23.6984 200.911 23.6818 200.994 23.6483C201.077 23.6148 201.152 23.5651 201.215 23.5022C201.278 23.4393 201.328 23.3644 201.362 23.2819C201.395 23.1995 201.412 23.1112 201.411 23.0222V16.8752C201.411 16.6962 201.339 16.5245 201.212 16.3979C201.085 16.2713 200.913 16.2002 200.733 16.2002ZM200.733 57.3031H178.145C177.966 57.3008 177.795 57.2289 177.669 57.1028C177.542 56.9767 177.47 56.8064 177.468 56.6281V44.4421C177.468 44.2631 177.539 44.0914 177.666 43.9648C177.793 43.8383 177.966 43.7671 178.145 43.7671H199.026C199.205 43.7671 199.378 43.696 199.505 43.5694C199.632 43.4428 199.703 43.2712 199.703 43.0921V36.9002C199.703 36.7211 199.632 36.5494 199.505 36.4229C199.378 36.2963 199.205 36.2252 199.026 36.2252H170.574C170.305 36.2275 170.047 36.3357 169.858 36.5262C169.668 36.7167 169.562 36.974 169.562 37.2421V63.7561C169.562 64.0234 169.669 64.2798 169.858 64.4689C170.048 64.6579 170.306 64.7641 170.574 64.7641H200.733C200.913 64.7641 201.085 64.693 201.212 64.5664C201.339 64.4398 201.411 64.2681 201.411 64.0891V57.9421C201.404 57.7686 201.329 57.6047 201.202 57.4854C201.076 57.366 200.907 57.3006 200.733 57.3031Z" fill="black"/>
<path d="M65.2698 4.11316L48.2656 29.2501C47.9901 29.6129 47.8627 30.0662 47.9091 30.5188C47.9554 30.9714 48.1721 31.3897 48.5155 31.6896C48.859 31.9895 49.3037 32.1487 49.7602 32.1353C50.2167 32.1218 50.6511 31.9367 50.9762 31.6171L67.7092 17.2171C67.8057 17.129 67.926 17.071 68.0553 17.0504C68.1845 17.0297 68.317 17.0473 68.4363 17.101C68.5556 17.1547 68.6565 17.242 68.7264 17.3523C68.7963 17.4625 68.8322 17.5908 68.8296 17.7211V62.982C68.8282 63.1195 68.7848 63.2532 68.7051 63.3653C68.6254 63.4775 68.5132 63.5628 68.3836 63.6097C68.2539 63.6567 68.113 63.6631 67.9796 63.6282C67.8461 63.5932 67.7266 63.5185 67.637 63.414L17.0403 3.11416C16.2325 2.1461 15.222 1.36575 14.0795 0.827826C12.937 0.289897 11.6902 0.00741062 10.4265 0.000168941H8.66469C6.36667 0.000168941 4.16277 0.909501 2.53783 2.52812C0.912884 4.14675 0 6.34207 0 8.63115V72.369C0 74.6581 0.912884 76.8534 2.53783 78.472C4.16277 80.0907 6.36667 81 8.66469 81V81C10.1454 80.9998 11.6013 80.6217 12.8936 79.9016C14.1858 79.1816 15.2713 78.1437 16.0464 76.887L33.0505 51.7501C33.326 51.3872 33.4534 50.934 33.4071 50.4814C33.3607 50.0288 33.144 49.6105 32.8006 49.3106C32.4572 49.0107 32.0125 48.8514 31.556 48.8649C31.0995 48.8783 30.665 49.0635 30.34 49.3831L13.6069 63.783C13.5104 63.8712 13.3901 63.9291 13.2609 63.9498C13.1316 63.9704 12.9991 63.9528 12.8798 63.8991C12.7605 63.8455 12.6597 63.7581 12.5898 63.6479C12.5199 63.5377 12.484 63.4094 12.4865 63.279V18.0631C12.4879 17.9257 12.5313 17.792 12.611 17.6798C12.6907 17.5677 12.8029 17.4824 12.9326 17.4354C13.0622 17.3885 13.2032 17.382 13.3366 17.417C13.47 17.452 13.5895 17.5267 13.6792 17.6311L64.2759 77.931C65.0898 78.8903 66.1041 79.6612 67.2479 80.1897C68.3918 80.7182 69.6377 80.9917 70.8986 80.991H72.7057C73.8435 80.991 74.9702 80.7677 76.0215 80.334C77.0727 79.9003 78.0279 79.2645 78.8325 78.463C79.6371 77.6616 80.2754 76.7101 80.7108 75.6629C81.1462 74.6158 81.3704 73.4935 81.3704 72.36V8.63115C81.3704 7.49316 81.1445 6.36639 80.7057 5.3157C80.2668 4.265 79.6237 3.31112 78.8134 2.50895C78.003 1.70678 77.0415 1.07216 75.9839 0.641601C74.9264 0.211042 73.7939 -0.00695094 72.6515 0.000168941V0.000168941C71.1708 0.000345888 69.7148 0.378493 68.4226 1.09852C67.1303 1.81856 66.0448 2.85645 65.2698 4.11316Z" fill="black"/>
</svg>
