<svg xmlns="http://www.w3.org/2000/svg" xmlns:xlink="http://www.w3.org/1999/xlink" width="24" height="24" viewBox="0 0 24 24"><defs><style>.cls-1{fill:none;}.cls-2{clip-path:url(#clip-path);}.cls-3{fill:#fff;}</style><clipPath id="clip-path"><path class="cls-1" d="M11.87,8.16,9.27,3a1.06,1.06,0,0,0-1-.54,1.05,1.05,0,0,0-1,.54L.76,14.65a1.07,1.07,0,0,0,.93,1.59H6v4.28A1.08,1.08,0,0,0,7.1,21.59H9.4a1.07,1.07,0,0,0,1.07-1.07V16.24H9.35a1.07,1.07,0,0,1-.94-1.59Zm11.37,6.49L16.76,3a1.05,1.05,0,0,0-1-.54,1.06,1.06,0,0,0-1,.54L12.08,8.16l3.51,6.49a1.07,1.07,0,0,1-.94,1.59H13.53v4.28a1.07,1.07,0,0,0,1.07,1.07h2.3A1.08,1.08,0,0,0,18,20.52V16.24h4.34A1.07,1.07,0,0,0,23.24,14.65Z"/></clipPath></defs><g id="Layer_4" data-name="Layer 4"><g class="cls-2"><rect class="cls-3" x="-3.45" y="-2.24" width="31.06" height="28.48"/></g></g></svg>