<svg id="Layer_3" data-name="Layer 3" xmlns="http://www.w3.org/2000/svg" xmlns:xlink="http://www.w3.org/1999/xlink" viewBox="0 0 2138.97 911.82"><defs><style>.cls-1{fill:none;}.cls-2{clip-path:url(#clip-path);}.cls-3{fill:url(#linear-gradient);}.cls-4{fill:#444;}.cls-5{fill:url(#linear-gradient-2);}.cls-6{opacity:0.3;fill:url(#linear-gradient-3);}.cls-7{fill:url(#linear-gradient-4);}.cls-8,.cls-9{opacity:0.7;}.cls-8{fill:url(#linear-gradient-5);}.cls-9{fill:url(#linear-gradient-6);}.cls-10{opacity:0.85;fill:url(#linear-gradient-7);}</style><clipPath id="clip-path"><rect class="cls-1" x="0.63" y="5.46" width="2138.97" height="909.87"/></clipPath><linearGradient id="linear-gradient" x1="1177.08" y1="689.37" x2="1752.16" y2="804.93" gradientUnits="userSpaceOnUse"><stop offset="0" stop-color="#c2c2c1"/><stop offset="0.73" stop-color="#9b9a99"/><stop offset="0.95" stop-color="#494948"/></linearGradient><linearGradient id="linear-gradient-2" x1="2256.95" y1="597.23" x2="1618.58" y2="429.38" gradientUnits="userSpaceOnUse"><stop offset="0" stop-color="#c2c2c1"/><stop offset="0.56" stop-color="#9b9a99"/><stop offset="0.95" stop-color="#494948"/></linearGradient><linearGradient id="linear-gradient-3" x1="2328.31" y1="325.81" x2="1689.94" y2="157.97" xlink:href="#linear-gradient-2"/><linearGradient id="linear-gradient-4" x1="2308.28" y1="402.03" x2="1669.91" y2="234.18" xlink:href="#linear-gradient-2"/><linearGradient id="linear-gradient-5" x1="2205.7" y1="792.13" x2="1567.33" y2="624.29" xlink:href="#linear-gradient-2"/><linearGradient id="linear-gradient-6" x1="1204.17" y1="554.59" x2="1779.25" y2="670.16" xlink:href="#linear-gradient"/><linearGradient id="linear-gradient-7" x1="1266.88" y1="242.49" x2="1841.97" y2="358.06" xlink:href="#linear-gradient"/></defs><g class="cls-2"><polygon class="cls-3" points="1473.54 1014.55 1126.41 1017.09 950.66 716.16 1122.05 412.7 1469.18 410.17 1644.93 711.09 1473.54 1014.55"/><polygon class="cls-4" points="1436.75 486.43 1169.66 486.43 1036.12 718.94 1169.66 951.44 1436.75 951.44 1570.31 718.94 1436.75 486.43"/><polygon class="cls-5" points="1961.61 764.01 1839.63 551.65 1961.61 339.29 2205.55 339.29 2327.53 551.65 2205.55 764.01 1961.61 764.01"/><polygon class="cls-6" points="2016.99 488.39 1895.03 276.03 2016.99 63.67 2260.95 63.67 2382.91 276.03 2260.95 488.39 2016.99 488.39"/><polygon class="cls-7" points="1707.11 488.39 1585.13 276.03 1707.11 63.67 1951.05 63.67 2073.03 276.03 1951.05 488.39 1707.11 488.39"/><polygon class="cls-8" points="1733.12 912.31 1611.14 699.95 1733.12 487.58 1977.06 487.58 2099.04 699.95 1977.06 912.31 1733.12 912.31"/><polygon class="cls-9" points="1463.16 843.51 1341.19 631.15 1463.16 418.79 1707.11 418.79 1829.08 631.15 1707.11 843.51 1463.16 843.51"/><polygon class="cls-4" points="1656.04 507.69 1514.22 507.69 1443.32 631.15 1514.22 754.6 1656.04 754.6 1726.95 631.15 1656.04 507.69"/><polygon class="cls-10" points="1677.68 582.95 1344.08 584.45 1178.58 293.29 1346.68 0.64 1680.28 -0.87 1845.79 290.29 1677.68 582.95"/><polygon class="cls-4" points="1649.07 59.28 1381.97 59.28 1248.43 291.79 1381.97 524.29 1649.07 524.29 1782.61 291.79 1649.07 59.28"/><polygon class="cls-4" points="2053.39 373.31 1923.45 373.31 1858.47 486.43 1923.45 599.54 2053.39 599.54 2118.35 486.43 2053.39 373.31"/></g></svg>