<?xml version="1.0" encoding="utf-8"?>
<!-- Generator: Adobe Illustrator 26.0.1, SVG Export Plug-In . SVG Version: 6.00 Build 0)  -->
<svg version="1.1" id="Layer_1" xmlns="http://www.w3.org/2000/svg" xmlns:xlink="http://www.w3.org/1999/xlink" x="0px" y="0px"
	 width="93px" height="64px" viewBox="0 0 93 64" style="enable-background:new 0 0 93 64;" xml:space="preserve">
<style type="text/css">
	.st0{fill:#FFFFFF;}
	.st1{fill:#4A4949;}
</style>
<g>
	<path class="st0" d="M23.3,25.1c1.2,0.8,2.3,1.6,3.4,2.3c3.5,2,7.2,3.2,11.1,3.9c6.9,1.2,13.7,1,20.5-0.7c3.9-1,7.7-2.6,10.9-5.2
		c0.1-0.1,0.2-0.1,0.4-0.3c0,0.4,0,0.6,0,0.9c0,8.1,0,16.1,0,24.2c0,2.8-1.1,4.9-3.2,6.6c-2.8,2.3-6,3.6-9.5,4.5
		c-5.4,1.4-10.9,1.6-16.4,0.9c-3.6-0.4-7-1.3-10.2-2.9c-2.2-1-4.2-2.4-5.7-4.3c-1-1.3-1.4-2.7-1.4-4.2c0-8.4,0-16.7,0-25.1
		C23.3,25.4,23.3,25.3,23.3,25.1z"/>
	<path class="st0" d="M46.4,27.7c-4.9-0.1-9.7-0.7-14.3-2.6c-2.5-1-4.8-2.2-6.6-4.2c-1.1-1.1-1.9-2.4-2.1-4
		c-0.3-2.2,0.5-3.9,1.9-5.5c1.8-2.1,4.2-3.3,6.7-4.3c3.6-1.4,7.3-2.1,11.2-2.4c4.3-0.3,8.5-0.1,12.7,0.9c3.4,0.8,6.7,1.9,9.5,3.9
		c1.6,1.1,3.1,2.5,3.8,4.4c1,2.7,0.2,5-1.7,7c-1.8,2-4.1,3.2-6.6,4.2c-3.5,1.4-7.1,2.1-10.8,2.4C48.9,27.6,47.7,27.6,46.4,27.7z"/>
</g>
</svg>
