<svg id="Layer_1" data-name="Layer 1" xmlns="http://www.w3.org/2000/svg" width="160" height="40" viewBox="0 0 160 40"><defs><style>.cls-1{fill:#b39a31;}.cls-2{isolation:isolate;}</style></defs><g id="Layer_5" data-name="Layer 5"><g id="Layer_5-2" data-name="Layer 5-2"><rect class="cls-1" x="3.76" y="4.12" width="153.49" height="32.16" rx="7.11"/><g class="cls-2"><g class="cls-2"><path d="M75.38,15.24a.59.59,0,0,1-.18.2.35.35,0,0,1-.23.07.66.66,0,0,1-.36-.15A4.09,4.09,0,0,0,74.1,15a4.41,4.41,0,0,0-.75-.34,3.26,3.26,0,0,0-1.06-.15,3,3,0,0,0-1,.16,2.09,2.09,0,0,0-.75.42,1.69,1.69,0,0,0-.45.64,2,2,0,0,0-.15.79,1.49,1.49,0,0,0,.26.89,2.32,2.32,0,0,0,.7.61,5.58,5.58,0,0,0,1,.43l1.14.39c.38.13.76.28,1.13.44a4.18,4.18,0,0,1,1,.63,2.72,2.72,0,0,1,.7.93,3,3,0,0,1,.27,1.35,4.35,4.35,0,0,1-.29,1.58A3.52,3.52,0,0,1,75,25.08,3.88,3.88,0,0,1,73.6,26a5,5,0,0,1-1.83.31,5.67,5.67,0,0,1-2.29-.45,5.22,5.22,0,0,1-1.75-1.23l.5-.83a.69.69,0,0,1,.18-.16.37.37,0,0,1,.23-.07.51.51,0,0,1,.26.09l.34.24.43.32a3.28,3.28,0,0,0,.56.31,3.19,3.19,0,0,0,.7.24,4,4,0,0,0,.89.1,3.15,3.15,0,0,0,1.11-.18,2.22,2.22,0,0,0,.82-.48,2,2,0,0,0,.52-.74,2.49,2.49,0,0,0,.18-1,1.67,1.67,0,0,0-.26-1,2.25,2.25,0,0,0-.7-.63,5,5,0,0,0-1-.42l-1.13-.36c-.39-.13-.77-.27-1.14-.43a3.63,3.63,0,0,1-1-.63,2.92,2.92,0,0,1-.7-1,3.79,3.79,0,0,1,0-2.76,3.47,3.47,0,0,1,.78-1.13,3.61,3.61,0,0,1,1.25-.79,4.49,4.49,0,0,1,1.7-.3,5.4,5.4,0,0,1,2,.34,4.71,4.71,0,0,1,1.56,1Z"/></g><g class="cls-2"><path d="M86.27,17,81.18,28.81a.79.79,0,0,1-.2.29.54.54,0,0,1-.37.11H79.42l1.67-3.62L77.32,17h1.39a.49.49,0,0,1,.33.11.63.63,0,0,1,.17.23l2.43,5.74a6.08,6.08,0,0,1,.25.79,8.33,8.33,0,0,1,.27-.8l2.36-5.73a.5.5,0,0,1,.19-.24A.43.43,0,0,1,85,17Z"/><path d="M89.9,18.33a4.57,4.57,0,0,1,1.33-1.07,3.56,3.56,0,0,1,1.7-.4,3.21,3.21,0,0,1,1.32.25,2.48,2.48,0,0,1,1,.7,3,3,0,0,1,.58,1.09,4.87,4.87,0,0,1,.2,1.42v5.8H94.37v-5.8a2.47,2.47,0,0,0-.47-1.61,1.78,1.78,0,0,0-1.44-.57,2.69,2.69,0,0,0-1.33.34,4.28,4.28,0,0,0-1.13.93v6.71H88.38V17h1a.39.39,0,0,1,.42.34Z"/><path d="M98.9,18.29a4.88,4.88,0,0,1,3.56-1.45,3.44,3.44,0,0,1,1.36.25,3,3,0,0,1,1,.7,3.05,3.05,0,0,1,.61,1.09,4.53,4.53,0,0,1,.21,1.41v5.83h-.71a.69.69,0,0,1-.36-.08.5.5,0,0,1-.2-.3l-.18-.86c-.24.22-.48.42-.7.59a4.42,4.42,0,0,1-.72.43,3.67,3.67,0,0,1-.81.27,4.58,4.58,0,0,1-.95.09,3.61,3.61,0,0,1-1-.14,2.29,2.29,0,0,1-.81-.45,2.09,2.09,0,0,1-.55-.75,2.54,2.54,0,0,1-.2-1.08,2,2,0,0,1,.29-1,2.55,2.55,0,0,1,1-.88,6.35,6.35,0,0,1,1.73-.64,13.4,13.4,0,0,1,2.63-.28v-.71a2.42,2.42,0,0,0-.46-1.61,1.65,1.65,0,0,0-1.34-.54,2.83,2.83,0,0,0-1,.15,3.51,3.51,0,0,0-.7.33l-.5.33a.72.72,0,0,1-.42.15.45.45,0,0,1-.28-.09.67.67,0,0,1-.2-.21ZM104.07,22a13.19,13.19,0,0,0-1.88.17,5.57,5.57,0,0,0-1.27.37,1.63,1.63,0,0,0-.71.53,1.11,1.11,0,0,0-.22.68,1.46,1.46,0,0,0,.11.62,1.18,1.18,0,0,0,.32.43,1.35,1.35,0,0,0,.48.24,2.21,2.21,0,0,0,.59.08,3.07,3.07,0,0,0,.77-.09,2.72,2.72,0,0,0,.66-.24,3.85,3.85,0,0,0,.6-.39,5.2,5.2,0,0,0,.55-.51Z"/><path d="M110.31,18.42a4.68,4.68,0,0,1,1.33-1.15,3.49,3.49,0,0,1,1.73-.43,3.33,3.33,0,0,1,1.43.3,3,3,0,0,1,1.09.89,4.26,4.26,0,0,1,.69,1.47,7.56,7.56,0,0,1,.24,2,6.33,6.33,0,0,1-.27,1.88,4.26,4.26,0,0,1-.77,1.5,3.57,3.57,0,0,1-1.25,1,3.71,3.71,0,0,1-1.65.37,3.28,3.28,0,0,1-1.43-.29,3.38,3.38,0,0,1-1.06-.79v4h-1.61V17h1a.39.39,0,0,1,.42.34Zm.08,5.5a2.49,2.49,0,0,0,1,.84,2.78,2.78,0,0,0,1.17.24,2.29,2.29,0,0,0,2-.91,4.2,4.2,0,0,0,.69-2.59A6.25,6.25,0,0,0,115,20a3.17,3.17,0,0,0-.45-1,1.73,1.73,0,0,0-.73-.59,2.38,2.38,0,0,0-1-.19,2.6,2.6,0,0,0-1.38.36,4.08,4.08,0,0,0-1.08,1Z"/><path d="M124.88,18.51a.35.35,0,0,1-.33.19.67.67,0,0,1-.31-.09l-.42-.23a3.89,3.89,0,0,0-.59-.22,2.8,2.8,0,0,0-.81-.1,2.39,2.39,0,0,0-.73.1,1.78,1.78,0,0,0-.55.28,1.27,1.27,0,0,0-.35.42,1.14,1.14,0,0,0-.12.52.82.82,0,0,0,.2.58,1.67,1.67,0,0,0,.54.41,5.32,5.32,0,0,0,.75.3L123,21q.45.15.87.33a3.11,3.11,0,0,1,.75.45,2,2,0,0,1,.54.66,2.07,2.07,0,0,1,.2.94,3,3,0,0,1-.22,1.17,2.63,2.63,0,0,1-.67.92,3.16,3.16,0,0,1-1.08.62,4.41,4.41,0,0,1-1.47.22,4.52,4.52,0,0,1-1.73-.31,4.29,4.29,0,0,1-1.32-.79l.38-.62a.69.69,0,0,1,.17-.17.41.41,0,0,1,.25-.07.59.59,0,0,1,.35.13c.12.08.26.18.43.28a3.79,3.79,0,0,0,.63.28,3,3,0,0,0,.92.12,2.57,2.57,0,0,0,.82-.12,1.72,1.72,0,0,0,.58-.33,1.32,1.32,0,0,0,.35-.47,1.66,1.66,0,0,0,.11-.58,1,1,0,0,0-.2-.63,2,2,0,0,0-.54-.42,4.14,4.14,0,0,0-.76-.31l-.87-.27c-.3-.1-.59-.21-.88-.33a3.42,3.42,0,0,1-.76-.46,2.12,2.12,0,0,1-.53-.69,2.15,2.15,0,0,1-.2-1,2.49,2.49,0,0,1,.21-1,2.58,2.58,0,0,1,.63-.84,3,3,0,0,1,1-.58,3.92,3.92,0,0,1,1.38-.22,4.28,4.28,0,0,1,1.61.28,3.84,3.84,0,0,1,1.24.78Z"/><path d="M135.46,24.84a2.89,2.89,0,0,1-.71.63,4.49,4.49,0,0,1-.88.43,6,6,0,0,1-2,.35,4.68,4.68,0,0,1-1.74-.32,4,4,0,0,1-1.38-.94,4.14,4.14,0,0,1-.9-1.53,6.05,6.05,0,0,1-.33-2.08,5.25,5.25,0,0,1,.3-1.79,4,4,0,0,1,.84-1.43,3.71,3.71,0,0,1,1.34-.95,4.25,4.25,0,0,1,1.78-.35,4.19,4.19,0,0,1,1.52.27,3.51,3.51,0,0,1,1.2.8,3.58,3.58,0,0,1,.8,1.27,5,5,0,0,1,.29,1.74,1.07,1.07,0,0,1-.08.5.36.36,0,0,1-.31.13h-6.09a4.81,4.81,0,0,0,.24,1.5,2.91,2.91,0,0,0,.59,1.07,2.37,2.37,0,0,0,.9.63A2.87,2.87,0,0,0,132,25a3.47,3.47,0,0,0,1-.14,5.17,5.17,0,0,0,.76-.31,3.42,3.42,0,0,0,.52-.3.75.75,0,0,1,.37-.14.35.35,0,0,1,.3.16Zm-1.29-4.27a3.26,3.26,0,0,0-.16-1,2.48,2.48,0,0,0-.46-.81,2.16,2.16,0,0,0-.73-.52,2.55,2.55,0,0,0-1-.18,2.47,2.47,0,0,0-1.83.67,3.21,3.21,0,0,0-.83,1.86Z"/></g></g></g><g id="Group_110" data-name="Group 110"><path id="Union_1" data-name="Union 1" d="M38.27,31.37a1,1,0,1,1,1,1A1,1,0,0,1,38.27,31.37Zm-4.42-2.65a1,1,0,0,1,2,0,1,1,0,0,1-.94,1h-.09A1,1,0,0,1,33.85,28.72Zm8.9,0a1,1,0,1,1,1,1h0a1,1,0,0,1-1.07-.93h0v-.16Zm-4.69-2.65a1.21,1.21,0,0,1,1.19-1.22h0a1.21,1.21,0,1,1,0,2.42h0A1.22,1.22,0,0,1,38.06,26.07Zm-8.79.15a1,1,0,1,1,1,1A1,1,0,0,1,29.27,26.22Zm18,0a1,1,0,1,1,1,1h0A1,1,0,0,1,47.27,26.22Zm-4.64-2.65a.7.7,0,0,1,.06-.35l-2.8-1.61a.88.88,0,0,1-1.22,0L35.9,23.17a1.49,1.49,0,0,1,.05.36,1.23,1.23,0,0,1-1.07,1.34,1.21,1.21,0,0,1-1.34-1.07v-.27a1.18,1.18,0,0,1,.05-.37L31,21.65a1,1,0,0,1-1.42,0l0,0A1,1,0,1,1,31,20.21l2.49-1.53a1.21,1.21,0,0,1,.88-1.47,1.22,1.22,0,0,1,1.41.71,1.14,1.14,0,0,1,0,.73l2.86,1.65a.88.88,0,0,1,1.24,0l2.69-1.59a1.19,1.19,0,0,1,.77-1.51h0a1.23,1.23,0,0,1,1.52.79,1.46,1.46,0,0,1,0,.72l2.65,1.56a1,1,0,0,1,1.39.22.91.91,0,1,1-1.39,1.16l-2.59,1.56a1.21,1.21,0,0,1-2.3.73h0a1.13,1.13,0,0,1-.06-.36Zm.33-.83a1.19,1.19,0,0,1,1.69-.06h0l2.6-1.56a.39.39,0,0,1,0-.26.39.39,0,0,1,0-.26l-2.62-1.51a1.21,1.21,0,0,1-1.7.06h0l0,0-2.65,1.58v.47Zm-7.33,0,2.77-1.65a.28.28,0,0,1,0-.18.49.49,0,0,1,0-.17l-2.86-1.65a1.21,1.21,0,0,1-1.71.06h0l-2.5,1.53a.83.83,0,0,1,0,.54l2.55,1.48a1.19,1.19,0,0,1,1.69,0h0Zm2.45-7.07a1.21,1.21,0,1,1,1.21,1.21h0A1.21,1.21,0,0,1,38.08,15.67Zm9.2,0a1,1,0,1,1,1,1A1,1,0,0,1,47.28,15.67Zm-18,0a1,1,0,1,1,1,1h0a1,1,0,0,1-1-1Zm13.4-2.47a1,1,0,1,1,1,1h0A1,1,0,0,1,42.68,13.2Zm-8.83,0a1,1,0,1,1,1,1h0a1,1,0,0,1-1-1,.06.06,0,0,1,0,0Zm4.42-2.74a1,1,0,1,1,1,1h0a1,1,0,0,1-1-1,.06.06,0,0,1,0,0Z"/></g></g></svg>