<?xml version="1.0" encoding="utf-8"?>
<!-- Generator: Adobe Illustrator 26.0.1, SVG Export Plug-In . SVG Version: 6.00 Build 0)  -->
<svg version="1.1" id="Layer_1" xmlns="http://www.w3.org/2000/svg" xmlns:xlink="http://www.w3.org/1999/xlink" x="0px" y="0px"
	 width="93px" height="64px" viewBox="0 0 93 64" style="enable-background:new 0 0 93 64;" xml:space="preserve">
<style type="text/css">
	.st0{fill:#FFFFFF;}
	.st1{fill:#4A4949;}
</style>
<g>
	<path class="st0" d="M49.3,50.7c0,0.9,0,1.8,0,2.7c6,0,11.9,0,17.9,0c0,0,0,0.1,0.1,0.1c-0.2,0.2-0.5,0.5-0.7,0.7
		c-3.1,2.6-6.7,4.1-10.6,4.8c-4.6,0.8-9.3,0.8-13.9-0.1c-5-1-9.4-3.3-12.6-7.4c-1.4-1.8-2-4-2-6.3c0-1.5,0-3,0.9-4.4
		c1.1-1.8,2.7-2.8,4.8-3c0.3,0,0.6,0,0.9,0c10.2,0,20.4,0,30.5,0c2.1,0,3.9,0.7,5.2,2.4c0.9,1.1,1.2,2.3,1.3,3.7
		c-7.3,0-14.5,0-21.8,0c0,0.9,0,1.8,0,2.7c7.2,0,14.4,0,21.7,0c-0.1,1.4-0.6,2.7-1.3,3.8c-0.1,0.2-0.5,0.2-0.7,0.2
		c-6.3,0-12.6,0-18.9,0C49.8,50.7,49.6,50.7,49.3,50.7z"/>
	<path class="st0" d="M60,10.4c-3.6,0-7.2,0-10.7,0c0,0.9,0,1.8,0,2.8c0.2,0,0.5,0,0.7,0c3.7,0,7.3,0,11,0c0.6,0,0.9,0.2,1,0.7
		c0.3,1.1,0.6,2.2,0.9,3.3c-4.6,0-9.1,0-13.6,0c0,0.9,0,1.8,0,2.7c4.5,0,9,0,13.6,0c-0.4,1.4-0.7,2.8-1.1,4.1c-4.3,0-8.4,0-12.6,0
		c0,0.9,0,1.8,0,2.8c3.6,0,7.1,0,10.7,0c-1.9,3.8-8.5,6.2-13.6,5.1c-6.2-1.3-10.6-6.6-10.8-13.1c-0.1-6.1,3.7-11.5,9.6-13.3
		C50.8,3.8,57,6.1,60,10.4z"/>
</g>
</svg>
