<svg id="Layer_1" data-name="Layer 1" xmlns="http://www.w3.org/2000/svg" width="160" height="40" viewBox="0 0 160 40"><defs><style>.cls-1{fill:#b39a31;}.cls-2{isolation:isolate;}</style></defs><g id="Layer_4" data-name="Layer 4"><g id="Layer_5" data-name="Layer 5"><rect class="cls-1" x="3.65" y="4.42" width="153.49" height="32.16" rx="7.11"/><g class="cls-2"><g class="cls-2"><path d="M72.4,26.62H70.86a.43.43,0,0,1-.31-.1,1,1,0,0,1-.19-.23l-2.29-3.58c0,.09,0,.17-.08.25a.76.76,0,0,1-.11.22l-2.13,3.11a2.11,2.11,0,0,1-.19.23.37.37,0,0,1-.28.1H63.85L67,21.94,64,17.5h1.54a.46.46,0,0,1,.29.07.57.57,0,0,1,.16.18l2.24,3.42a2,2,0,0,1,.23-.51l2-2.88a.85.85,0,0,1,.17-.2.38.38,0,0,1,.23-.08h1.48L69.2,21.86Z"/></g><g class="cls-2"><path d="M78.69,13.72a7.08,7.08,0,0,1,2.13.29,4.13,4.13,0,0,1,1.5.8,3.3,3.3,0,0,1,.89,1.26,4.53,4.53,0,0,1,.29,1.65,4.22,4.22,0,0,1-.32,1.65,3.52,3.52,0,0,1-.92,1.28,4.19,4.19,0,0,1-1.5.84,6.26,6.26,0,0,1-2.07.31H76.62v4.82H74.89V13.72Zm0,6.69a4.07,4.07,0,0,0,1.32-.2,2.66,2.66,0,0,0,1-.55,2.18,2.18,0,0,0,.59-.85,2.75,2.75,0,0,0,.2-1.09A2.47,2.47,0,0,0,81,15.79a3.32,3.32,0,0,0-2.31-.69H76.62v5.31Z"/></g><g class="cls-2"><path d="M89.39,17.36a4.66,4.66,0,0,1,1.8.33,3.79,3.79,0,0,1,1.37.95,4,4,0,0,1,.87,1.48,6.42,6.42,0,0,1,0,3.88,4.11,4.11,0,0,1-.87,1.48,3.9,3.9,0,0,1-1.37.94,4.66,4.66,0,0,1-1.8.33,4.71,4.71,0,0,1-1.81-.33,3.81,3.81,0,0,1-1.37-.94A4.11,4.11,0,0,1,85.34,24a6.42,6.42,0,0,1,0-3.88,4,4,0,0,1,.87-1.48,3.71,3.71,0,0,1,1.37-.95A4.71,4.71,0,0,1,89.39,17.36Zm0,8.14a2.37,2.37,0,0,0,2-.91,4.2,4.2,0,0,0,.66-2.52,4.24,4.24,0,0,0-.66-2.54,2.34,2.34,0,0,0-2-.91,2.9,2.9,0,0,0-1.19.23,2.25,2.25,0,0,0-.85.68,3,3,0,0,0-.5,1.08,5.91,5.91,0,0,0-.17,1.46,4.19,4.19,0,0,0,.67,2.52A2.39,2.39,0,0,0,89.39,25.5Z"/><path d="M98.11,13.36V26.62h-1.6V13.36Z"/><path d="M103.06,13.36V26.62h-1.6V13.36Z"/><path d="M108.39,14.64a1.08,1.08,0,0,1-.09.44,1.5,1.5,0,0,1-.26.36,1.27,1.27,0,0,1-.37.25,1.12,1.12,0,0,1-.44.09,1.08,1.08,0,0,1-.44-.09,1.48,1.48,0,0,1-.35-.25,1.45,1.45,0,0,1-.25-.36,1.08,1.08,0,0,1-.09-.44,1.12,1.12,0,0,1,.09-.44,1.1,1.1,0,0,1,.25-.37,1.06,1.06,0,0,1,.79-.34,1.12,1.12,0,0,1,.44.09,1,1,0,0,1,.37.25,1.1,1.1,0,0,1,.35.81Zm-.34,2.86v9.12h-1.6V17.5Z"/><path d="M112.89,18.83a5.15,5.15,0,0,1,.63-.61,4.1,4.1,0,0,1,.71-.46,3.58,3.58,0,0,1,.79-.3,3.71,3.71,0,0,1,.9-.1,3.21,3.21,0,0,1,1.32.25,2.59,2.59,0,0,1,1,.7,3.34,3.34,0,0,1,.58,1.09,4.88,4.88,0,0,1,.19,1.42v5.8h-1.61v-5.8a2.42,2.42,0,0,0-.47-1.61,1.74,1.74,0,0,0-1.43-.57,2.66,2.66,0,0,0-1.33.34,4.48,4.48,0,0,0-1.14.93v6.71h-1.61V17.5h1a.39.39,0,0,1,.42.34Z"/></g><g class="cls-2"><path d="M121.88,18.79a5.24,5.24,0,0,1,1.63-1.09,5,5,0,0,1,1.94-.36,3.44,3.44,0,0,1,1.36.25,3,3,0,0,1,1,.7,3.05,3.05,0,0,1,.61,1.09,4.53,4.53,0,0,1,.21,1.41v5.83h-.72a.74.74,0,0,1-.36-.08.49.49,0,0,1-.19-.3l-.18-.86a8.86,8.86,0,0,1-.71.59,3.71,3.71,0,0,1-.72.43,3.59,3.59,0,0,1-.8.27,4.65,4.65,0,0,1-1,.09,3.61,3.61,0,0,1-1-.14,2.29,2.29,0,0,1-.81-.45,2,2,0,0,1-.55-.75,2.54,2.54,0,0,1-.21-1.08,2,2,0,0,1,.3-1,2.59,2.59,0,0,1,1-.88,6.56,6.56,0,0,1,1.74-.64,13.4,13.4,0,0,1,2.63-.28v-.71a2.42,2.42,0,0,0-.46-1.61,1.66,1.66,0,0,0-1.34-.54,2.89,2.89,0,0,0-1,.15,3.69,3.69,0,0,0-.69.33l-.5.33a.72.72,0,0,1-.42.15.45.45,0,0,1-.28-.09.67.67,0,0,1-.2-.21Zm5.18,3.73a13.34,13.34,0,0,0-1.89.17,5.63,5.63,0,0,0-1.26.37,1.73,1.73,0,0,0-.72.53,1.17,1.17,0,0,0-.22.68,1.46,1.46,0,0,0,.12.62,1.08,1.08,0,0,0,.32.43,1.21,1.21,0,0,0,.48.24,2.21,2.21,0,0,0,.59.08,3.19,3.19,0,0,0,1.43-.33,3.85,3.85,0,0,0,.6-.39,6.39,6.39,0,0,0,.55-.51Z"/></g><g class="cls-2"><path d="M134.45,26.76a2.19,2.19,0,0,1-1.66-.6,2.39,2.39,0,0,1-.58-1.74V18.84h-1.1a.32.32,0,0,1-.24-.08.33.33,0,0,1-.1-.27v-.64l1.49-.18.37-2.82a.4.4,0,0,1,.12-.22.35.35,0,0,1,.25-.09h.81v3.14h2.64v1.16h-2.64v5.48a1.13,1.13,0,0,0,.28.85.94.94,0,0,0,.72.28,1.14,1.14,0,0,0,.43-.07,1.19,1.19,0,0,0,.32-.15l.23-.14A.29.29,0,0,1,136,25a.27.27,0,0,1,.22.15l.47.77a2.93,2.93,0,0,1-1,.6A3.31,3.31,0,0,1,134.45,26.76Z"/></g><g class="cls-2"><path d="M146.16,25.34a3.3,3.3,0,0,1-.71.63,4.87,4.87,0,0,1-.89.43,5.44,5.44,0,0,1-1,.26,5.63,5.63,0,0,1-1,.09,4.68,4.68,0,0,1-1.74-.32,4,4,0,0,1-1.38-.94,4.43,4.43,0,0,1-.9-1.53,6.06,6.06,0,0,1-.32-2.08,5.25,5.25,0,0,1,.29-1.79,4,4,0,0,1,.84-1.43,3.8,3.8,0,0,1,1.34-.95,4.25,4.25,0,0,1,1.78-.35,4.15,4.15,0,0,1,1.52.27,3.55,3.55,0,0,1,1.21.8A3.7,3.7,0,0,1,146,19.7a5,5,0,0,1,.29,1.74,1.07,1.07,0,0,1-.08.5.35.35,0,0,1-.31.13h-6.09a5.48,5.48,0,0,0,.24,1.5,3.06,3.06,0,0,0,.59,1.07,2.37,2.37,0,0,0,.9.63,2.94,2.94,0,0,0,1.17.22,3.54,3.54,0,0,0,1-.14,5.5,5.5,0,0,0,.75-.31,4.17,4.17,0,0,0,.53-.3.72.72,0,0,1,.36-.14.38.38,0,0,1,.31.16Zm-1.3-4.27a3,3,0,0,0-.16-1,2.31,2.31,0,0,0-.46-.81,2.16,2.16,0,0,0-.73-.52,2.52,2.52,0,0,0-1-.18,2.43,2.43,0,0,0-1.82.67,3.16,3.16,0,0,0-.84,1.86Z"/></g></g></g><path d="M50.52,15.16,48.28,17c-.9-.46-.88-1.44-1.21-2.22,1.17-1.68,2.33-2.29,3.45,0Z"/><path d="M44.56,11.36l1-1.2h.31c3.34,1.84.58,2.69-.61,3.79Z"/><path d="M42.7,19.82,44,18c.3.94,0,2.09.92,2.82L45.15,23l.36,3.76L44,25.19A11.93,11.93,0,0,0,42.7,19.82Z"/><path d="M39.88,27.08a7.43,7.43,0,0,1-1.56-8.54C38.79,21.4,40.05,24.11,39.88,27.08Z"/><path d="M39.88,27.08c.17-3-1.09-5.68-1.56-8.54.1-.21.19-.43.29-.64.87.77.17,2.39,1.56,2.89.2,1.15.4,2.3.61,3.45V28Z"/><path d="M32.7,23.28a2.55,2.55,0,0,0,0-3.34L32.13,16l1.3,1.3c-.4,2.57.51,4.89,1.41,7.21l-1.25,1.23Z"/><path d="M49,29.61c-1.3.23-1.5-1.06-2.23-1.61.4-1.16-1.13-2.28-.07-3.46.64.65,1.29,1.29,1.94,1.94C47.94,27.62,49.12,28.54,49,29.61Z"/><path d="M35.77,13.63c.59,1.13,3,1.13,1.92,3.33-.65,1.28-1.17,1.31-1.86.11Z"/><path d="M34.83,24.51c-.9-2.32-1.81-4.64-1.41-7.23.3.29.6.59.89.89a7.93,7.93,0,0,0,1.2,5.11Z"/><path d="M35.17,30.14,33.3,32l-.88-2.44L34,28Z"/><path d="M35.53,26.4l1.36-1.12a6.24,6.24,0,0,1,1,1.71c.27,1.09-.9,1.29-1.47,1.89Z"/><path d="M43.63,30.84l-1.57-1.56c-.08-1.2-.17-2.4-.25-3.6l1.61,1.6C43.42,28.43,43.55,29.64,43.63,30.84Z"/><path d="M33.33,14.57l-1.91-1.88V11.36c.57-.35,1-1.54,1.82-.23C33.29,12.28,33.31,13.43,33.33,14.57Z"/><path d="M35.53,26.4l.89,2.48-1.25,1.26L34,28Z"/><path d="M42.7,19.82A11.93,11.93,0,0,1,44,25.19,4.33,4.33,0,0,1,42.7,19.82Z"/><path d="M35.51,23.28a7.94,7.94,0,0,1-1.2-5.09A4.23,4.23,0,0,1,35.51,23.28Z"/><path d="M35.77,13.63l.06,3.44-1.25-1.25c.28-1.15-.76-2.28-.06-3.43Z"/><path d="M30.51,17.72l-1.26-1.24c-.11-.79-.21-1.57-.32-2.36.45-1.33.88-.51,1.32,0C30.34,15.33,30.42,16.53,30.51,17.72Z"/><path d="M41.81,25.68c.08,1.2.17,2.4.25,3.6L40.81,28V24.24Z"/><path d="M46.69,24.54c-1.06,1.18.47,2.3.07,3.46l-1.25-1.25L45.15,23Z"/><path d="M34.52,12.39c-.7,1.15.34,2.28.06,3.43l-1.25-1.25c0-1.14,0-2.29-.07-3.44Z"/><path d="M42.94,16.39c-.32.31-.63.63-.94.95-.85-.5-.86-1.44-1.18-2.22l1.25-1.25C42.27,14.74,42.17,15.71,42.94,16.39Z"/><path d="M43.63,30.84c-.08-1.2-.21-2.41-.21-3.56l.93.95.57,3.92Z"/><path d="M40.82,15.12c.32.78.33,1.72,1.18,2.22l-.83,1c-1.14-.33-.94-1.43-1.28-2.22Z"/><path d="M32.7,23.28l.88,2.49-.94.94c-.29-.83-.58-1.67-.88-2.5Z"/><path d="M47.07,14.81c.33.78.31,1.76,1.21,2.22l-1.49,1.31-.64-2.56Z"/><path d="M39.89,16.07c.34.79.14,1.89,1.28,2.22l-.68,1.25c-1.75-.24-.68-1.82-1.26-2.63Z"/><path d="M31.76,24.18c.3.83.59,1.67.88,2.5l-.93.94c-.87-.63-.46-1.71-.88-2.5Z"/><path d="M44.81,14.51l-.89,1c-1-.59-.6-1.69-.91-2.53L44,12A3.22,3.22,0,0,0,44.81,14.51Z"/><path d="M32.12,16l.57,3.91-1.27-1.25c-.08-1.2-.17-2.39-.26-3.59Z"/><path d="M29.27,26.69l.62-.63c.29.83.58,1.66.88,2.5l-1.21.72C29.42,28.44,29.42,27.56,29.27,26.69Z"/><path d="M43,12.93c.31.84-.11,1.94.91,2.53l-1,.93c-.77-.68-.67-1.65-.87-2.52Z"/><path d="M49,29.61c.13-1.07-1-2-.36-3.13C50.18,27.36,50.68,28.36,49,29.61Z"/><path d="M44.88,32.1l-.57-3.92,1.31,1.3A2.36,2.36,0,0,0,46.08,32C45.72,32.54,45.34,32.81,44.88,32.1Z"/><path d="M46.17,19l-.7.87c-.9-.61-.47-1.7-.88-2.49l.93-.93Z"/><path d="M31.18,15.07c.09,1.2.18,2.39.26,3.59l-.93-.94c-.09-1.19-.17-2.39-.26-3.58Z"/><path d="M32.42,29.56,33.3,32c-1,.62-1.58-.34-1.9-.87C30.9,30.28,32,30,32.42,29.56Z"/><path d="M30.77,28.56c-.3-.84-.59-1.67-.88-2.5.31-.32.62-.63.94-.94.42.79,0,1.87.88,2.5Z"/><path d="M44.81,14.51A3.22,3.22,0,0,1,44,12l.61-.63L45.23,14Z"/><path d="M46.08,32a2.36,2.36,0,0,1-.46-2.53C45.84,30.28,48.85,30.62,46.08,32Z"/><path d="M39.23,16.91c.58.81-.49,2.39,1.26,2.63-.1.42-.21.83-.32,1.25-1.39-.5-.69-2.12-1.56-2.89C38.82,17.57,39,17.28,39.23,16.91Z"/><path d="M44.59,17.34c.41.79,0,1.88.88,2.49-.19.32-.39.63-.59,1-.94-.73-.62-1.88-.92-2.82Z"/><path d="M46.17,19l-.65-2.55.63-.63.64,2.56Z"/><path d="M29.27,26.69c.1.87.19,1.75.29,2.62C28.82,28.51,27.59,27.76,29.27,26.69Z"/><path d="M28.93,14.12c.11.79.21,1.57.32,2.36C28.23,15.82,27.73,15.09,28.93,14.12Z"/><path d="M31.42,11.36v1.33C30.75,12.28,30.64,11.81,31.42,11.36Z"/></g></svg>